<?xml version="1.0" encoding="UTF-8"?>
<svg width="44px" height="30px" viewBox="0 0 44 30" version="1.1" xmlns="http://www.w3.org/2000/svg" xmlns:xlink="http://www.w3.org/1999/xlink">
    <!-- Generator: Sketch 61.2 (89653) - https://sketch.com -->
    <title>icon_flag_ue</title>
    <desc>Created with Sketch.</desc>
    <g id="Page-1" stroke="none" stroke-width="1" fill="none" fill-rule="evenodd">
        <g id="Artboard-Copy" transform="translate(-288.000000, -179.000000)">
            <g id="icon_flag_ue" transform="translate(288.000000, 179.000000)">
                <polygon id="Fill-1" fill="#FFFFFF" points="0 29.5898 43.559 29.5898 43.559 -0.0002 0 -0.0002"></polygon>
                <polygon id="Fill-2" fill="#233C87" points="0.834 28.7338 42.72 28.7338 42.72 0.8108 0.834 0.8108"></polygon>
                <polygon id="Fill-3" fill="#FCEE3A" points="20.8866 6.895 21.7696 6.25 22.6526 6.895 22.3176 5.852 23.2136 5.207 22.1096 5.207 21.7696 4.151 21.4316 5.209 20.3276 5.207 21.2216 5.852"></polygon>
                <polygon id="Fill-4" fill="#FCEE3A" points="16.3139 8.1245 17.1969 7.4785 18.0799 8.1245 17.7439 7.0815 18.6409 6.4355 17.5339 6.4355 17.1969 5.3785 16.8569 6.4375 15.7499 6.4355 16.6499 7.0815"></polygon>
                <polygon id="Fill-5" fill="#FCEE3A" points="13.851 8.7324 13.509 9.7894 12.406 9.7894 13.303 10.4344 12.967 11.4774 13.851 10.8334 14.734 11.4774 14.398 10.4344 15.294 9.7894 14.188 9.7894"></polygon>
                <polygon id="Fill-6" fill="#FCEE3A" points="12.622 15.4009 13.505 16.0459 13.17 15.0039 14.067 14.3579 12.96 14.3579 12.622 13.3009 12.285 14.3599 11.179 14.3579 12.074 15.0039 11.74 16.0459"></polygon>
                <polygon id="Fill-7" fill="#FCEE3A" points="14.1874 18.9404 13.8504 17.8834 13.5104 18.9414 12.4044 18.9404 13.3024 19.5854 12.9684 20.6274 13.8504 19.9824 14.7334 20.6274 14.3954 19.5854 15.2914 18.9404"></polygon>
                <polygon id="Fill-8" fill="#FCEE3A" points="17.5419 22.292 17.2009 21.237 16.8669 22.294 15.7599 22.292 16.6569 22.938 16.3189 23.981 17.2039 23.336 18.0879 23.981 17.7519 22.938 18.6489 22.292"></polygon>
                <polygon id="Fill-9" fill="#FCEE3A" points="22.1102 23.5083 21.7722 22.4513 21.4342 23.5083 20.3282 23.5083 21.2242 24.1533 20.8872 25.1953 21.7722 24.5513 22.6552 25.1953 22.3172 24.1533 23.2172 23.5083"></polygon>
                <polygon id="Fill-10" fill="#FCEE3A" points="26.6776 22.292 26.3396 21.237 25.9996 22.294 24.8956 22.292 25.7916 22.938 25.4576 23.981 26.3396 23.336 27.2226 23.981 26.8856 22.938 27.7846 22.292"></polygon>
                <polygon id="Fill-11" fill="#FCEE3A" points="30.0307 18.9404 29.6927 17.8834 29.3547 18.9414 28.2477 18.9404 29.1457 19.5854 28.8087 20.6274 29.6927 19.9824 30.5767 20.6274 30.2387 19.5854 31.1387 18.9404"></polygon>
                <polygon id="Fill-12" fill="#FCEE3A" points="32.3524 14.3452 31.2444 14.3452 30.9074 13.2892 30.5664 14.3472 29.4634 14.3452 30.3604 14.9912 30.0244 16.0332 30.9074 15.3872 31.7894 16.0332 31.4554 14.9912"></polygon>
                <polygon id="Fill-13" fill="#FCEE3A" points="28.8085 11.4648 29.6935 10.8188 30.5765 11.4648 30.2395 10.4218 31.1375 9.7778 30.0305 9.7778 29.6935 8.7208 29.3535 9.7788 28.2475 9.7778 29.1465 10.4218"></polygon>
                <polygon id="Fill-14" fill="#FCEE3A" points="26.3515 5.3799 26.0165 6.4369 24.9095 6.4359 25.8035 7.0809 25.4685 8.1249 26.3535 7.4789 27.2375 8.1249 26.9015 7.0809 27.7975 6.4359 26.6895 6.4359"></polygon>
            </g>
        </g>
    </g>
</svg>