<?xml version="1.0" encoding="UTF-8"?>
<svg width="44px" height="30px" viewBox="0 0 44 30" version="1.1" xmlns="http://www.w3.org/2000/svg" xmlns:xlink="http://www.w3.org/1999/xlink">
    <!-- Generator: Sketch 61.2 (89653) - https://sketch.com -->
    <title>icon_flag_asean</title>
    <desc>Created with Sketch.</desc>
    <g id="Page-1" stroke="none" stroke-width="1" fill="none" fill-rule="evenodd">
        <g id="Artboard-Copy" transform="translate(-229.000000, -179.000000)">
            <g id="icon_flag_asean" transform="translate(229.000000, 179.000000)">
                <polygon id="Fill-1" fill="#FFFFFF" points="0 29.5898 43.563 29.5898 43.563 -0.0002 0 -0.0002"></polygon>
                <polygon id="Fill-2" fill="#040101" points="0.841 28.7338 42.723 28.7338 42.723 0.8108 0.841 0.8108"></polygon>
                <polygon id="Fill-3" fill="#233C87" points="0.657 28.8908 42.804 28.8908 42.804 0.7018 0.657 0.7018"></polygon>
                <g id="Group-40" transform="translate(11.000000, 3.589800)">
                    <path d="M10.7812,0.3765 C16.6562,0.3765 21.4202,5.2315 21.4202,11.2185 C21.4202,17.2045 16.6562,22.0615 10.7812,22.0615 C4.9052,22.0615 0.1402,17.2045 0.1402,11.2185 C0.1402,5.2315 4.9052,0.3765 10.7812,0.3765" id="Fill-4" fill="#196BB5"></path>
                    <path d="M10.7812,0.9102 C16.3672,0.9102 20.8952,5.5262 20.8952,11.2182 C20.8952,16.9112 16.3672,21.5262 10.7812,21.5262 C5.1952,21.5262 0.6662,16.9112 0.6662,11.2182 C0.6662,5.5262 5.1952,0.9102 10.7812,0.9102" id="Fill-6" fill="#FFFFFF"></path>
                    <path d="M10.7812,1.419 C16.0902,1.419 20.3972,5.807 20.3972,11.219 C20.3972,16.63 16.0902,21.018 10.7812,21.018 C5.4712,21.018 1.1632,16.63 1.1632,11.219 C1.1632,5.807 5.4712,1.419 10.7812,1.419" id="Fill-8" fill="#B62B31"></path>
                    <path d="M6.3686,4.874 C6.3686,6.025 6.7436,7.086 7.0856,7.908 C7.3066,8.437 8.2136,9.852 8.6086,10.122 C8.3996,10.443 8.0206,10.782 7.7686,11.165 C7.5486,11.506 7.2346,11.957 7.0776,12.356 C6.7336,13.229 6.3406,14.214 6.3406,15.428 L6.3406,15.723 C6.3406,15.826 6.3596,15.838 6.3686,15.931 L7.2686,15.931 L7.2686,15.812 C7.2686,14.522 7.4826,13.596 7.7336,12.582 C7.8446,12.149 8.0776,11.646 8.2586,11.278 C8.3596,11.071 8.4596,10.881 8.5846,10.69 C8.6336,10.618 8.9876,10.17 8.9876,10.151 C8.9876,10.136 8.3496,9.169 8.2666,9.014 C8.0896,8.672 7.8566,8.082 7.7466,7.68 C7.4736,6.679 7.2996,5.637 7.2996,4.37 L6.3686,4.37 L6.3686,4.874 Z" id="Fill-10" fill="#F8DF42"></path>
                    <path d="M9.7724,5.082 C9.7724,6.002 9.8604,6.863 9.9174,7.721 C9.9394,8.057 10.2534,10.158 10.2504,10.162 C9.9294,11.372 9.7444,13.735 9.7444,15.249 L9.7444,15.93 L10.6144,15.93 L10.6104,10.21 L10.6444,4.369 L9.7724,4.369 L9.7724,5.082 Z" id="Fill-12" fill="#F8DF42"></path>
                    <path d="M7.5322,4.5781 C7.5322,5.5591 7.7892,6.8941 8.0362,7.6491 C8.1882,8.1081 8.3302,8.5501 8.5322,8.9551 C8.7442,9.3841 8.9572,9.7321 9.1592,10.1201 C8.7372,10.9381 8.4042,11.4501 8.0802,12.4301 C7.8532,13.1221 7.5322,14.4041 7.5322,15.3091 L7.5322,15.9311 L8.3752,15.9311 L8.3752,15.4261 C8.3752,14.5961 8.5042,13.1751 8.6922,12.5481 C8.8242,12.1091 8.8932,11.7271 9.0332,11.2961 C9.1012,11.0861 9.1732,10.9031 9.2492,10.7141 C9.2802,10.6381 9.5112,10.1621 9.5112,10.1511 C9.5112,10.1431 9.1142,9.1691 9.0642,9.0051 C8.9312,8.6031 8.7902,8.1761 8.7222,7.7231 C8.6602,7.3061 8.5612,6.8411 8.4932,6.3541 C8.4312,5.8781 8.4042,5.3461 8.4042,4.8151 L8.4042,4.3711 L7.5322,4.3711 L7.5322,4.5781 Z" id="Fill-14" fill="#F8DF42"></path>
                    <path d="M11.8959,5.4082 C11.8959,6.2082 11.8529,7.1462 11.7309,7.8502 C11.6659,8.2342 11.6329,8.6472 11.5819,9.0012 C11.5449,9.2622 11.4069,9.9742 11.4129,10.1222 C11.4129,10.1222 11.5899,11.1582 11.6099,11.2142 C11.6769,11.4362 11.7199,12.0792 11.7529,12.3712 C11.8379,13.1662 11.9229,13.9372 11.9229,14.8332 L11.9229,15.9302 L12.7699,15.9302 C12.7699,14.0642 12.3139,11.3222 11.6919,10.1222 C12.2979,8.9552 12.7379,6.1922 12.7379,4.3702 L11.8959,4.3702 L11.8959,5.4082 Z" id="Fill-16" fill="#F8DF42"></path>
                    <path d="M9.7431,10.1221 C9.1231,11.3191 8.6671,14.0751 8.6671,15.9301 L9.5101,15.9301 L9.5101,14.6271 C9.5101,13.8231 9.6291,13.0661 9.6841,12.3451 C9.7151,11.9041 9.8821,10.5381 9.9951,10.2011 C10.0441,10.0601 9.7661,8.4171 9.7201,8.0971 C9.6241,7.4661 9.5371,6.5021 9.5371,5.8231 L9.5371,4.3711 L8.6971,4.3711 C8.6971,6.1781 9.1411,8.9611 9.7431,10.1221" id="Fill-18" fill="#F8DF42"></path>
                    <path d="M5.1762,5.1113 C5.1762,6.1313 5.6912,7.4813 6.0692,8.1453 C6.3072,8.5613 6.5932,8.9413 6.9142,9.2693 C7.1092,9.4663 7.7732,10.0513 8.0272,10.1203 C7.9932,10.1663 7.5322,10.4783 7.4322,10.5533 C7.2272,10.7093 7.0602,10.8533 6.8842,11.0323 C6.5522,11.3713 6.2352,11.7963 6.0002,12.2373 C5.5302,13.1093 5.1472,14.2083 5.1472,15.5463 L5.1472,15.9303 L6.0502,15.9303 L6.0502,15.4573 C6.0502,14.3983 6.4262,13.0833 6.7762,12.3743 C7.1002,11.7183 7.8302,10.5243 8.3772,10.1523 C8.2602,9.9763 8.0562,9.8393 7.9182,9.6703 C7.7652,9.4833 7.6412,9.3163 7.4942,9.1213 C7.2182,8.7533 7.0092,8.3403 6.7952,7.9083 C6.4202,7.1443 6.0772,5.8903 6.0772,4.7573 L6.0772,4.3713 L5.1762,4.3713 L5.1762,5.1113 Z" id="Fill-20" fill="#F8DF42"></path>
                    <path d="M10.8271,10.2105 L10.8201,15.9305 L11.6941,15.9305 C11.6941,14.1005 11.5841,11.9305 11.2501,10.4235 C11.1431,9.9485 11.2401,9.7055 11.3401,9.1995 C11.4241,8.7855 11.4491,8.2835 11.5131,7.8625 C11.5701,7.4635 11.5841,6.8925 11.6051,6.4735 C11.6221,6.0095 11.6621,5.5295 11.6621,5.0245 L11.6621,4.3695 L10.7841,4.3695 L10.8271,10.2105 Z" id="Fill-22" fill="#F8DF42"></path>
                    <path d="M13.0302,4.874 C13.0302,5.33 13.0072,5.956 12.9432,6.356 C12.9052,6.592 12.8792,6.815 12.8532,7.065 C12.8302,7.259 12.7372,7.546 12.7122,7.722 C12.6472,8.149 12.5062,8.603 12.3782,8.984 C12.3212,9.156 11.9232,10.095 11.9232,10.122 C11.9232,10.13 12.3462,11.102 12.4002,11.297 C12.5302,11.743 12.6372,12.113 12.7582,12.593 C12.9532,13.373 13.0582,14.645 13.0582,15.606 L13.0582,15.931 L13.9022,15.931 L13.9022,15.606 C13.9022,14.418 13.6512,13.497 13.3972,12.565 C13.1262,11.578 12.6862,10.918 12.2742,10.122 C12.4772,9.727 12.7022,9.363 12.9142,8.936 C13.1132,8.528 13.2722,8.052 13.4142,7.578 C13.6862,6.681 13.9022,5.547 13.9022,4.37 L13.0302,4.37 L13.0302,4.874 Z" id="Fill-24" fill="#F8DF42"></path>
                    <path d="M14.1357,4.4595 C14.1357,5.6715 13.9517,6.7245 13.6877,7.6795 C13.5707,8.0985 13.3547,8.6415 13.1757,8.9965 C13.0857,9.1785 12.9577,9.4005 12.8437,9.5765 C12.7927,9.6515 12.4477,10.1025 12.4477,10.1205 C12.4477,10.1715 12.7777,10.5765 12.8267,10.6545 C12.9557,10.8505 13.0547,11.0305 13.1627,11.2575 C13.3577,11.6475 13.5957,12.1485 13.7017,12.6045 C13.9687,13.6925 14.1657,14.5325 14.1657,15.9315 L15.0937,15.9315 L15.0937,15.4285 C15.0937,14.1815 14.7047,13.2705 14.3647,12.3775 C14.2187,11.9925 13.8977,11.5215 13.6767,11.1825 C13.4197,10.7935 13.0387,10.4485 12.8267,10.1205 C13.2767,9.8145 14.1357,8.4005 14.3867,7.8005 C14.7967,6.8145 15.0667,5.9425 15.0667,4.5495 L15.0667,4.5195 C15.0667,4.4385 15.0527,4.4365 15.0357,4.3705 L14.1357,4.3705 L14.1357,4.4595 Z" id="Fill-26" fill="#F8DF42"></path>
                    <path d="M15.3573,4.7857 C15.3573,5.9007 15.0093,7.1567 14.6413,7.9087 C14.4233,8.3417 14.2173,8.7537 13.9403,9.1217 C13.7953,9.3117 13.6733,9.4657 13.5313,9.6537 C13.3903,9.8347 13.1803,9.9647 13.0593,10.1507 C13.6033,10.5237 14.3353,11.7187 14.6593,12.3757 C15.0133,13.0967 15.3843,14.4067 15.3843,15.4867 L15.3843,15.9307 L16.2903,15.9307 L16.2903,15.3687 C16.2903,14.1247 15.8333,13.0037 15.4073,12.1777 C15.2083,11.7947 14.8243,11.3127 14.5363,11.0177 C14.3313,10.8117 13.4453,10.1747 13.4103,10.1227 C13.6753,10.0487 14.3473,9.4447 14.5493,9.2407 C14.9193,8.8637 15.1283,8.5287 15.4083,8.0707 C15.8493,7.3537 16.2573,5.9827 16.2573,4.8157 L16.2573,4.3707 L15.3573,4.3707 L15.3573,4.7857 Z" id="Fill-28" fill="#F8DF42"></path>
                    <path d="M12.4755,17.9463 C12.4755,17.6133 12.9985,17.6903 13.2335,17.5613 C13.2335,18.0053 13.1565,18.1833 12.7095,18.1833 C12.5895,18.1833 12.4755,18.0693 12.4755,17.9463 M11.9825,17.1753 L12.5365,17.1753 C12.5495,16.9913 12.6615,16.9083 12.8565,16.9083 L13.0015,16.9083 C13.1055,16.9083 13.2335,16.9913 13.2335,17.0883 L13.2335,17.1463 C13.2335,17.4363 11.9235,17.1243 11.9235,17.9173 L11.9235,18.0353 C11.9235,18.3543 12.2375,18.5693 12.5365,18.5693 L12.6815,18.5693 C12.9225,18.5693 13.1495,18.3333 13.2565,18.3043 L13.2895,18.5103 L13.9335,18.5103 C13.9175,18.3513 13.7855,18.3903 13.7855,17.8873 L13.7855,17.1173 C13.7885,16.6013 13.4005,16.4643 12.9135,16.4643 C12.3775,16.4643 12.0235,16.6693 11.9825,17.1753" id="Fill-30" fill="#196BB5"></path>
                    <path d="M5.7875,17.9458 C5.7875,17.6018 6.2895,17.6838 6.5415,17.5608 C6.5415,17.9868 6.4195,18.1838 6.0215,18.1838 C5.9025,18.1838 5.7875,18.0868 5.7875,17.9458 M5.2935,17.0888 L5.2935,17.1758 L5.8455,17.1758 C5.8475,17.0068 5.9435,16.9098 6.1085,16.9098 L6.3115,16.9098 C6.4355,16.9098 6.5415,17.0008 6.5415,17.1178 C6.5415,17.4618 5.2045,17.1208 5.2045,17.9178 C5.2045,18.3358 5.4655,18.5688 5.8725,18.5688 L5.9015,18.5688 C6.3025,18.5688 6.3805,18.3548 6.5635,18.3048 L6.6005,18.5108 L7.2105,18.5108 C7.1965,18.3338 7.1315,18.4238 7.0985,18.2688 C7.0855,18.1948 7.0965,17.9778 7.0965,17.8868 C7.0965,17.6308 7.0935,17.3738 7.0965,17.1178 C7.0985,16.6308 6.7145,16.4648 6.2515,16.4648 C5.7915,16.4648 5.2935,16.6518 5.2935,17.0888" id="Fill-32" fill="#196BB5"></path>
                    <path d="M14.8329,16.7905 L14.8329,16.5235 L14.2789,16.5235 L14.2789,18.5095 L14.8639,18.5095 L14.8639,17.4135 C14.8639,17.1625 14.9779,16.9385 15.2099,16.9385 L15.3859,16.9385 C15.5429,16.9385 15.6489,17.0435 15.6489,17.2075 L15.6489,18.5095 L16.2289,18.5095 L16.2289,17.1465 C16.2289,16.7215 15.9099,16.4655 15.5009,16.4655 C15.0749,16.4655 15.0539,16.6395 14.8329,16.7905" id="Fill-34" fill="#196BB5"></path>
                    <path d="M7.5322,17.0874 L7.5322,17.2044 C7.5322,17.8254 8.8412,17.6674 8.8412,17.9454 L8.8412,17.9774 C8.8412,18.1214 8.6422,18.1534 8.4902,18.1534 L8.4042,18.1534 C7.9822,18.1534 8.1152,17.8584 7.9672,17.8584 L7.4432,17.8584 C7.4432,18.3744 7.9802,18.5684 8.4902,18.5684 C8.9822,18.5684 9.4232,18.3654 9.4232,17.8584 L9.4232,17.8274 C9.4232,17.1964 8.0842,17.3554 8.0842,17.0574 C8.0842,16.9354 8.2422,16.8794 8.3752,16.8794 L8.5232,16.8794 C8.6762,16.8794 8.7812,16.9834 8.7852,17.1464 L9.3652,17.1464 C9.2472,16.6294 8.9972,16.4644 8.3752,16.4644 C7.9722,16.4644 7.5322,16.6854 7.5322,17.0874" id="Fill-36" fill="#196BB5"></path>
                    <path d="M10.2367,17.3233 C10.2817,17.1273 10.3837,16.9083 10.6137,16.9083 L10.6727,16.9083 C10.9297,16.9083 11.0907,17.0923 11.1107,17.3233 L10.2367,17.3233 Z M9.6557,17.5303 L9.6557,17.5913 C9.6557,18.1863 10.0797,18.5683 10.6727,18.5683 L10.7037,18.5683 C11.1827,18.5683 11.5717,18.3173 11.6637,17.9173 L11.1377,17.9173 C11.0337,17.9173 11.0277,18.1243 10.7917,18.1243 L10.6727,18.1243 C10.4097,18.1243 10.2447,17.9453 10.2367,17.6793 L11.6907,17.6793 L11.6907,17.5913 C11.6907,16.8863 11.3557,16.4643 10.6727,16.4643 C10.0297,16.4643 9.6557,16.8673 9.6557,17.5303 L9.6557,17.5303 Z" id="Fill-38" fill="#196BB5"></path>
                </g>
            </g>
        </g>
    </g>
</svg>