<?xml version="1.0" encoding="UTF-8"?>
<svg width="46px" height="36px" viewBox="0 0 46 36" version="1.1" xmlns="http://www.w3.org/2000/svg" xmlns:xlink="http://www.w3.org/1999/xlink">
    <!-- Generator: Sketch 61.2 (89653) - https://sketch.com -->
    <title>icon_book_flag_asean</title>
    <desc>Created with Sketch.</desc>
    <defs>
        <path d="M0,6.87 C0,7.953 0.758,8.831 1.692,8.832 L1.692,8.832 C23.82,8.999 45.16,8.307 45.318,4.671 L45.318,4.671 L45.318,4.562 C45.252,1.695 41.449,0.675 36.072,0.675 L36.072,0.675 C22.819,0.675 0,6.87 0,6.87 M44.97,4.731 C44.97,7.8 23.873,8.854 1.694,8.704 L1.694,8.704 C1.633,8.704 1.574,8.7 1.516,8.694 L1.516,8.694 C0.837,8.617 0.278,8.104 0.079,7.419 L0.079,7.419 C0.296,8.156 0.935,8.691 1.691,8.693 L1.691,8.693 C23.872,8.554 44.97,1.723 44.97,4.731" id="path-1"></path>
        <path d="M1.695,5.353 C0.759,5.353 0,6.111 0,7.047 L0,7.047 L0,33.87 C0,34.802 0.753,35.557 1.684,35.563 L1.684,35.563 C23.885,35.399 45.346,28.05 45.3190254,31.638 L45.3190254,31.638 L45.3190254,1.426 C45.324,0.725 44.505,0.440999843 43.019,0.440999843 L43.019,0.440999843 C36.917,0.44 19.548,5.219 1.695,5.353 L1.695,5.353 Z" id="path-3"></path>
        <polygon id="path-5" points="0 0.440999843 45.3188254 0.440999843 45.3188254 35.563 0 35.563"></polygon>
        <linearGradient x1="94.2701701%" y1="47.2927887%" x2="33.8378841%" y2="50%" id="linearGradient-7">
            <stop stop-color="#000000" offset="0%"></stop>
            <stop stop-color="#FFFFFF" offset="100%"></stop>
        </linearGradient>
    </defs>
    <g id="Page-1" stroke="none" stroke-width="1" fill="none" fill-rule="evenodd">
        <g id="Artboard-Copy" transform="translate(-580.000000, -187.000000)">
            <g id="icon_book_flag_asean" transform="translate(580.000000, 186.000000)">
                <path d="M0,34.4292 C0,35.5082 0.753,36.3832 1.684,36.3912 C23.884,36.5432 45.318,35.5252 45.318,32.1972 C45.318,29.2722 41.496,28.2352 36.072,28.2352 C22.818,28.2352 0,34.4292 0,34.4292" id="Fill-1" fill="#0B133A"></path>
                <g id="Group-5" transform="translate(0.000000, 27.559600)">
                    <mask id="mask-2" fill="white">
                        <use xlink:href="#path-1"></use>
                    </mask>
                    <g id="Clip-4"></g>
                    <path d="M0,6.87 C0,7.953 0.758,8.831 1.692,8.832 L1.692,8.832 C23.82,8.999 45.16,8.307 45.318,4.671 L45.318,4.671 L45.318,4.562 C45.252,1.695 41.449,0.675 36.072,0.675 L36.072,0.675 C22.819,0.675 0,6.87 0,6.87 M44.97,4.731 C44.97,7.8 23.873,8.854 1.694,8.704 L1.694,8.704 C1.633,8.704 1.574,8.7 1.516,8.694 L1.516,8.694 C0.837,8.617 0.278,8.104 0.079,7.419 L0.079,7.419 C0.296,8.156 0.935,8.691 1.691,8.693 L1.691,8.693 C23.872,8.554 44.97,1.723 44.97,4.731" id="Fill-3" mask="url(#mask-2)"></path>
                </g>
                <g id="Group-263" transform="translate(0.000000, 0.559600)">
                    <mask id="mask-4" fill="white">
                        <use xlink:href="#path-3"></use>
                    </mask>
                    <g id="Clip-7"></g>
                    <polygon id="Fill-6" fill="#21428F" mask="url(#mask-4)" points="0 35.563 0.266 35.563 0.266 0.44 0 0.44"></polygon>
                    <polygon id="Fill-8" fill="#21428F" mask="url(#mask-4)" points="0.177 35.563 0.442 35.563 0.442 0.44 0.177 0.44"></polygon>
                    <polygon id="Fill-9" fill="#21428F" mask="url(#mask-4)" points="0.354 35.563 0.62 35.563 0.62 0.44 0.354 0.44"></polygon>
                    <polygon id="Fill-10" fill="#21428F" mask="url(#mask-4)" points="0.531 35.563 0.796 35.563 0.796 0.44 0.531 0.44"></polygon>
                    <polygon id="Fill-11" fill="#204390" mask="url(#mask-4)" points="0.708 35.563 0.973 35.563 0.973 0.44 0.708 0.44"></polygon>
                    <polygon id="Fill-12" fill="#204390" mask="url(#mask-4)" points="0.885 35.563 1.151 35.563 1.151 0.44 0.885 0.44"></polygon>
                    <polygon id="Fill-13" fill="#214390" mask="url(#mask-4)" points="1.062 35.563 1.328 35.563 1.328 0.44 1.062 0.44"></polygon>
                    <polygon id="Fill-14" fill="#214390" mask="url(#mask-4)" points="1.239 35.563 1.504 35.563 1.504 0.44 1.239 0.44"></polygon>
                    <polygon id="Fill-15" fill="#214390" mask="url(#mask-4)" points="1.416 35.563 1.682 35.563 1.682 0.44 1.416 0.44"></polygon>
                    <polygon id="Fill-16" fill="#204491" mask="url(#mask-4)" points="1.592 35.563 1.858 35.563 1.858 0.44 1.592 0.44"></polygon>
                    <polygon id="Fill-17" fill="#224491" mask="url(#mask-4)" points="1.77 35.563 2.035 35.563 2.035 0.44 1.77 0.44"></polygon>
                    <polygon id="Fill-18" fill="#214591" mask="url(#mask-4)" points="1.946 35.563 2.211 35.563 2.211 0.44 1.946 0.44"></polygon>
                    <polygon id="Fill-19" fill="#214592" mask="url(#mask-4)" points="2.123 35.563 2.389 35.563 2.389 0.44 2.123 0.44"></polygon>
                    <polygon id="Fill-20" fill="#204693" mask="url(#mask-4)" points="2.3 35.563 2.565 35.563 2.565 0.44 2.3 0.44"></polygon>
                    <polygon id="Fill-21" fill="#224693" mask="url(#mask-4)" points="2.477 35.563 2.743 35.563 2.743 0.44 2.477 0.44"></polygon>
                    <polygon id="Fill-22" fill="#224693" mask="url(#mask-4)" points="2.654 35.563 2.919 35.563 2.919 0.44 2.654 0.44"></polygon>
                    <polygon id="Fill-23" fill="#214693" mask="url(#mask-4)" points="2.831 35.563 3.096 35.563 3.096 0.44 2.831 0.44"></polygon>
                    <polygon id="Fill-24" fill="#214693" mask="url(#mask-4)" points="3.008 35.563 3.274 35.563 3.274 0.44 3.008 0.44"></polygon>
                    <polygon id="Fill-25" fill="#224794" mask="url(#mask-4)" points="3.185 35.563 3.45 35.563 3.45 0.44 3.185 0.44"></polygon>
                    <polygon id="Fill-26" fill="#224794" mask="url(#mask-4)" points="3.362 35.563 3.627 35.563 3.627 0.44 3.362 0.44"></polygon>
                    <polygon id="Fill-27" fill="#214794" mask="url(#mask-4)" points="3.539 35.563 3.804 35.563 3.804 0.44 3.539 0.44"></polygon>
                    <polygon id="Fill-28" fill="#214794" mask="url(#mask-4)" points="3.715 35.563 3.981 35.563 3.981 0.44 3.715 0.44"></polygon>
                    <polygon id="Fill-29" fill="#234795" mask="url(#mask-4)" points="3.892 35.563 4.158 35.563 4.158 0.44 3.892 0.44"></polygon>
                    <polygon id="Fill-30" fill="#224895" mask="url(#mask-4)" points="4.069 35.563 4.335 35.563 4.335 0.44 4.069 0.44"></polygon>
                    <polygon id="Fill-31" fill="#224895" mask="url(#mask-4)" points="4.246 35.563 4.512 35.563 4.512 0.44 4.246 0.44"></polygon>
                    <polygon id="Fill-32" fill="#234896" mask="url(#mask-4)" points="4.423 35.563 4.688 35.563 4.688 0.44 4.423 0.44"></polygon>
                    <polygon id="Fill-33" fill="#234896" mask="url(#mask-4)" points="4.6 35.563 4.865 35.563 4.865 0.44 4.6 0.44"></polygon>
                    <polygon id="Fill-34" fill="#224996" mask="url(#mask-4)" points="4.777 35.563 5.043 35.563 5.043 0.44 4.777 0.44"></polygon>
                    <polygon id="Fill-35" fill="#224996" mask="url(#mask-4)" points="4.954 35.563 5.219 35.563 5.219 0.44 4.954 0.44"></polygon>
                    <polygon id="Fill-36" fill="#234997" mask="url(#mask-4)" points="5.131 35.563 5.396 35.563 5.396 0.44 5.131 0.44"></polygon>
                    <polygon id="Fill-37" fill="#234997" mask="url(#mask-4)" points="5.308 35.563 5.573 35.563 5.573 0.44 5.308 0.44"></polygon>
                    <polygon id="Fill-38" fill="#234997" mask="url(#mask-4)" points="5.484 35.563 5.75 35.563 5.75 0.44 5.484 0.44"></polygon>
                    <polygon id="Fill-39" fill="#224A97" mask="url(#mask-4)" points="5.662 35.563 5.928 35.563 5.928 0.44 5.662 0.44"></polygon>
                    <polygon id="Fill-40" fill="#244A97" mask="url(#mask-4)" points="5.838 35.563 6.104 35.563 6.104 0.44 5.838 0.44"></polygon>
                    <polygon id="Fill-41" fill="#234A98" mask="url(#mask-4)" points="6.016 35.563 6.281 35.563 6.281 0.44 6.016 0.44"></polygon>
                    <polygon id="Fill-42" fill="#234A98" mask="url(#mask-4)" points="6.192 35.563 6.457 35.563 6.457 0.44 6.192 0.44"></polygon>
                    <polygon id="Fill-43" fill="#234B98" mask="url(#mask-4)" points="6.369 35.563 6.634 35.563 6.634 0.44 6.369 0.44"></polygon>
                    <polygon id="Fill-44" fill="#244B98" mask="url(#mask-4)" points="6.546 35.563 6.812 35.563 6.812 0.44 6.546 0.44"></polygon>
                    <polygon id="Fill-45" fill="#244B98" mask="url(#mask-4)" points="6.723 35.563 6.988 35.563 6.988 0.44 6.723 0.44"></polygon>
                    <polygon id="Fill-46" fill="#244C9A" mask="url(#mask-4)" points="6.9 35.563 7.166 35.563 7.166 0.44 6.9 0.44"></polygon>
                    <polygon id="Fill-47" fill="#244C9A" mask="url(#mask-4)" points="7.077 35.563 7.343 35.563 7.343 0.44 7.077 0.44"></polygon>
                    <polygon id="Fill-48" fill="#244C9A" mask="url(#mask-4)" points="7.254 35.563 7.519 35.563 7.519 0.44 7.254 0.44"></polygon>
                    <polygon id="Fill-49" fill="#244C9A" mask="url(#mask-4)" points="7.431 35.563 7.697 35.563 7.697 0.44 7.431 0.44"></polygon>
                    <polygon id="Fill-50" fill="#244C9A" mask="url(#mask-4)" points="7.607 35.563 7.873 35.563 7.873 0.44 7.607 0.44"></polygon>
                    <polygon id="Fill-51" fill="#244C9A" mask="url(#mask-4)" points="7.785 35.563 8.05 35.563 8.05 0.44 7.785 0.44"></polygon>
                    <polygon id="Fill-52" fill="#244C9A" mask="url(#mask-4)" points="7.961 35.563 8.226 35.563 8.226 0.44 7.961 0.44"></polygon>
                    <polygon id="Fill-53" fill="#244C9A" mask="url(#mask-4)" points="8.138 35.563 8.404 35.563 8.404 0.44 8.138 0.44"></polygon>
                    <polygon id="Fill-54" fill="#254C9A" mask="url(#mask-4)" points="8.315 35.563 8.58 35.563 8.58 0.44 8.315 0.44"></polygon>
                    <polygon id="Fill-55" fill="#254C9A" mask="url(#mask-4)" points="8.492 35.563 8.758 35.563 8.758 0.44 8.492 0.44"></polygon>
                    <polygon id="Fill-56" fill="#254D9A" mask="url(#mask-4)" points="8.669 35.563 8.935 35.563 8.935 0.44 8.669 0.44"></polygon>
                    <polygon id="Fill-57" fill="#254D9A" mask="url(#mask-4)" points="8.846 35.563 9.111 35.563 9.111 0.44 8.846 0.44"></polygon>
                    <polygon id="Fill-58" fill="#254D9A" mask="url(#mask-4)" points="9.023 35.563 9.288 35.563 9.288 0.44 9.023 0.44"></polygon>
                    <polygon id="Fill-59" fill="#254D9A" mask="url(#mask-4)" points="9.2 35.563 9.466 35.563 9.466 0.44 9.2 0.44"></polygon>
                    <polygon id="Fill-60" fill="#254D9B" mask="url(#mask-4)" points="9.377 35.563 9.642 35.563 9.642 0.44 9.377 0.44"></polygon>
                    <polygon id="Fill-61" fill="#254D9B" mask="url(#mask-4)" points="9.554 35.563 9.819 35.563 9.819 0.44 9.554 0.44"></polygon>
                    <polygon id="Fill-62" fill="#254D9B" mask="url(#mask-4)" points="9.73 35.563 9.995 35.563 9.995 0.44 9.73 0.44"></polygon>
                    <polygon id="Fill-63" fill="#254D9B" mask="url(#mask-4)" points="9.907 35.563 10.173 35.563 10.173 0.44 9.907 0.44"></polygon>
                    <polygon id="Fill-64" fill="#254D9B" mask="url(#mask-4)" points="10.084 35.563 10.35 35.563 10.35 0.44 10.084 0.44"></polygon>
                    <polygon id="Fill-65" fill="#254D9B" mask="url(#mask-4)" points="10.261 35.563 10.527 35.563 10.527 0.44 10.261 0.44"></polygon>
                    <polygon id="Fill-66" fill="#244D9B" mask="url(#mask-4)" points="10.438 35.563 10.703 35.563 10.703 0.44 10.438 0.44"></polygon>
                    <polygon id="Fill-67" fill="#244D9B" mask="url(#mask-4)" points="10.615 35.563 10.88 35.563 10.88 0.44 10.615 0.44"></polygon>
                    <polygon id="Fill-68" fill="#244D9B" mask="url(#mask-4)" points="10.792 35.563 11.058 35.563 11.058 0.44 10.792 0.44"></polygon>
                    <polygon id="Fill-69" fill="#244D9B" mask="url(#mask-4)" points="10.969 35.563 11.234 35.563 11.234 0.44 10.969 0.44"></polygon>
                    <polygon id="Fill-70" fill="#264D9B" mask="url(#mask-4)" points="11.146 35.563 11.411 35.563 11.411 0.44 11.146 0.44"></polygon>
                    <polygon id="Fill-71" fill="#264D9B" mask="url(#mask-4)" points="11.323 35.563 11.588 35.563 11.588 0.44 11.323 0.44"></polygon>
                    <polygon id="Fill-72" fill="#264D9B" mask="url(#mask-4)" points="11.5 35.563 11.766 35.563 11.766 0.44 11.5 0.44"></polygon>
                    <polygon id="Fill-73" fill="#264D9B" mask="url(#mask-4)" points="11.677 35.563 11.942 35.563 11.942 0.44 11.677 0.44"></polygon>
                    <polygon id="Fill-74" fill="#264D9B" mask="url(#mask-4)" points="11.854 35.563 12.12 35.563 12.12 0.44 11.854 0.44"></polygon>
                    <polygon id="Fill-75" fill="#254E9C" mask="url(#mask-4)" points="12.031 35.563 12.296 35.563 12.296 0.44 12.031 0.44"></polygon>
                    <polygon id="Fill-76" fill="#254E9C" mask="url(#mask-4)" points="12.208 35.563 12.473 35.563 12.473 0.44 12.208 0.44"></polygon>
                    <polygon id="Fill-77" fill="#254E9C" mask="url(#mask-4)" points="12.384 35.563 12.649 35.563 12.649 0.44 12.384 0.44"></polygon>
                    <polygon id="Fill-78" fill="#254E9C" mask="url(#mask-4)" points="12.561 35.563 12.827 35.563 12.827 0.44 12.561 0.44"></polygon>
                    <polygon id="Fill-79" fill="#254E9C" mask="url(#mask-4)" points="12.738 35.563 13.003 35.563 13.003 0.44 12.738 0.44"></polygon>
                    <polygon id="Fill-80" fill="#254E9C" mask="url(#mask-4)" points="12.915 35.563 13.18 35.563 13.18 0.44 12.915 0.44"></polygon>
                    <polygon id="Fill-81" fill="#254E9C" mask="url(#mask-4)" points="13.092 35.563 13.358 35.563 13.358 0.44 13.092 0.44"></polygon>
                    <polygon id="Fill-82" fill="#254E9C" mask="url(#mask-4)" points="13.269 35.563 13.534 35.563 13.534 0.44 13.269 0.44"></polygon>
                    <polygon id="Fill-83" fill="#254E9C" mask="url(#mask-4)" points="13.446 35.563 13.712 35.563 13.712 0.44 13.446 0.44"></polygon>
                    <polygon id="Fill-84" fill="#254E9C" mask="url(#mask-4)" points="13.623 35.563 13.888 35.563 13.888 0.44 13.623 0.44"></polygon>
                    <polygon id="Fill-85" fill="#244E9C" mask="url(#mask-4)" points="13.8 35.563 14.065 35.563 14.065 0.44 13.8 0.44"></polygon>
                    <polygon id="Fill-86" fill="#244E9C" mask="url(#mask-4)" points="13.977 35.563 14.242 35.563 14.242 0.44 13.977 0.44"></polygon>
                    <polygon id="Fill-87" fill="#264E9C" mask="url(#mask-4)" points="14.153 35.563 14.419 35.563 14.419 0.44 14.153 0.44"></polygon>
                    <polygon id="Fill-88" fill="#264E9C" mask="url(#mask-4)" points="14.33 35.563 14.596 35.563 14.596 0.44 14.33 0.44"></polygon>
                    <polygon id="Fill-89" fill="#264E9C" mask="url(#mask-4)" points="14.507 35.563 14.773 35.563 14.773 0.44 14.507 0.44"></polygon>
                    <polygon id="Fill-90" fill="#264E9C" mask="url(#mask-4)" points="14.684 35.563 14.95 35.563 14.95 0.44 14.684 0.44"></polygon>
                    <polygon id="Fill-91" fill="#264E9C" mask="url(#mask-4)" points="14.861 35.563 15.126 35.563 15.126 0.44 14.861 0.44"></polygon>
                    <polygon id="Fill-92" fill="#264E9C" mask="url(#mask-4)" points="15.038 35.563 15.303 35.563 15.303 0.44 15.038 0.44"></polygon>
                    <polygon id="Fill-93" fill="#264E9C" mask="url(#mask-4)" points="15.215 35.563 15.481 35.563 15.481 0.44 15.215 0.44"></polygon>
                    <polygon id="Fill-94" fill="#264E9C" mask="url(#mask-4)" points="15.392 35.563 15.657 35.563 15.657 0.44 15.392 0.44"></polygon>
                    <polygon id="Fill-95" fill="#254F9D" mask="url(#mask-4)" points="15.569 35.563 15.834 35.563 15.834 0.44 15.569 0.44"></polygon>
                    <polygon id="Fill-96" fill="#254F9D" mask="url(#mask-4)" points="15.746 35.563 16.012 35.563 16.012 0.44 15.746 0.44"></polygon>
                    <polygon id="Fill-97" fill="#254F9D" mask="url(#mask-4)" points="15.922 35.563 16.188 35.563 16.188 0.44 15.922 0.44"></polygon>
                    <polygon id="Fill-98" fill="#254F9D" mask="url(#mask-4)" points="16.1 35.563 16.366 35.563 16.366 0.44 16.1 0.44"></polygon>
                    <polygon id="Fill-99" fill="#254F9D" mask="url(#mask-4)" points="16.277 35.563 16.542 35.563 16.542 0.44 16.277 0.44"></polygon>
                    <polygon id="Fill-100" fill="#254F9D" mask="url(#mask-4)" points="16.454 35.563 16.719 35.563 16.719 0.44 16.454 0.44"></polygon>
                    <polygon id="Fill-101" fill="#254F9D" mask="url(#mask-4)" points="16.63 35.563 16.895 35.563 16.895 0.44 16.63 0.44"></polygon>
                    <polygon id="Fill-102" fill="#254F9D" mask="url(#mask-4)" points="16.807 35.563 17.073 35.563 17.073 0.44 16.807 0.44"></polygon>
                    <polygon id="Fill-103" fill="#274F9D" mask="url(#mask-4)" points="16.984 35.563 17.25 35.563 17.25 0.44 16.984 0.44"></polygon>
                    <polygon id="Fill-104" fill="#274F9D" mask="url(#mask-4)" points="17.161 35.563 17.426 35.563 17.426 0.44 17.161 0.44"></polygon>
                    <polygon id="Fill-105" fill="#264F9E" mask="url(#mask-4)" points="17.338 35.563 17.603 35.563 17.603 0.44 17.338 0.44"></polygon>
                    <polygon id="Fill-106" fill="#264F9E" mask="url(#mask-4)" points="17.515 35.563 17.781 35.563 17.781 0.44 17.515 0.44"></polygon>
                    <polygon id="Fill-107" fill="#264F9E" mask="url(#mask-4)" points="17.691 35.563 17.957 35.563 17.957 0.44 17.691 0.44"></polygon>
                    <polygon id="Fill-108" fill="#264F9E" mask="url(#mask-4)" points="17.869 35.563 18.135 35.563 18.135 0.44 17.869 0.44"></polygon>
                    <polygon id="Fill-109" fill="#264F9E" mask="url(#mask-4)" points="18.046 35.563 18.311 35.563 18.311 0.44 18.046 0.44"></polygon>
                    <polygon id="Fill-110" fill="#264F9E" mask="url(#mask-4)" points="18.223 35.563 18.488 35.563 18.488 0.44 18.223 0.44"></polygon>
                    <polygon id="Fill-111" fill="#264F9E" mask="url(#mask-4)" points="18.399 35.563 18.665 35.563 18.665 0.44 18.399 0.44"></polygon>
                    <polygon id="Fill-112" fill="#264F9E" mask="url(#mask-4)" points="18.576 35.563 18.842 35.563 18.842 0.44 18.576 0.44"></polygon>
                    <polygon id="Fill-113" fill="#264F9E" mask="url(#mask-4)" points="18.753 35.563 19.018 35.563 19.018 0.44 18.753 0.44"></polygon>
                    <polygon id="Fill-114" fill="#264F9E" mask="url(#mask-4)" points="18.93 35.563 19.195 35.563 19.195 0.44 18.93 0.44"></polygon>
                    <polygon id="Fill-115" fill="#25509E" mask="url(#mask-4)" points="19.107 35.563 19.373 35.563 19.373 0.44 19.107 0.44"></polygon>
                    <polygon id="Fill-116" fill="#25509E" mask="url(#mask-4)" points="19.284 35.563 19.549 35.563 19.549 0.44 19.284 0.44"></polygon>
                    <polygon id="Fill-117" fill="#25509E" mask="url(#mask-4)" points="19.461 35.563 19.727 35.563 19.727 0.44 19.461 0.44"></polygon>
                    <polygon id="Fill-118" fill="#25509E" mask="url(#mask-4)" points="19.638 35.563 19.904 35.563 19.904 0.44 19.638 0.44"></polygon>
                    <polygon id="Fill-119" fill="#27509E" mask="url(#mask-4)" points="19.815 35.563 20.08 35.563 20.08 0.44 19.815 0.44"></polygon>
                    <polygon id="Fill-120" fill="#27509E" mask="url(#mask-4)" points="19.992 35.563 20.257 35.563 20.257 0.44 19.992 0.44"></polygon>
                    <polygon id="Fill-121" fill="#27509E" mask="url(#mask-4)" points="20.168 35.563 20.434 35.563 20.434 0.44 20.168 0.44"></polygon>
                    <polygon id="Fill-122" fill="#27509E" mask="url(#mask-4)" points="20.345 35.563 20.611 35.563 20.611 0.44 20.345 0.44"></polygon>
                    <polygon id="Fill-123" fill="#27509E" mask="url(#mask-4)" points="20.522 35.563 20.788 35.563 20.788 0.44 20.522 0.44"></polygon>
                    <polygon id="Fill-124" fill="#27509E" mask="url(#mask-4)" points="20.699 35.563 20.965 35.563 20.965 0.44 20.699 0.44"></polygon>
                    <polygon id="Fill-125" fill="#26509F" mask="url(#mask-4)" points="20.876 35.563 21.141 35.563 21.141 0.44 20.876 0.44"></polygon>
                    <polygon id="Fill-126" fill="#26509F" mask="url(#mask-4)" points="21.053 35.563 21.318 35.563 21.318 0.44 21.053 0.44"></polygon>
                    <polygon id="Fill-127" fill="#26509F" mask="url(#mask-4)" points="21.23 35.563 21.496 35.563 21.496 0.44 21.23 0.44"></polygon>
                    <polygon id="Fill-128" fill="#26509F" mask="url(#mask-4)" points="21.407 35.563 21.672 35.563 21.672 0.44 21.407 0.44"></polygon>
                    <polygon id="Fill-129" fill="#26509F" mask="url(#mask-4)" points="21.584 35.563 21.849 35.563 21.849 0.44 21.584 0.44"></polygon>
                    <polygon id="Fill-130" fill="#26509F" mask="url(#mask-4)" points="21.761 35.563 22.026 35.563 22.026 0.44 21.761 0.44"></polygon>
                    <polygon id="Fill-131" fill="#26509F" mask="url(#mask-4)" points="21.937 35.563 22.203 35.563 22.203 0.44 21.937 0.44"></polygon>
                    <polygon id="Fill-132" fill="#26509F" mask="url(#mask-4)" points="22.115 35.563 22.38 35.563 22.38 0.44 22.115 0.44"></polygon>
                    <polygon id="Fill-133" fill="#26509F" mask="url(#mask-4)" points="22.292 35.563 22.558 35.563 22.558 0.44 22.292 0.44"></polygon>
                    <polygon id="Fill-134" fill="#26509F" mask="url(#mask-4)" points="22.469 35.563 22.734 35.563 22.734 0.44 22.469 0.44"></polygon>
                    <polygon id="Fill-135" fill="#25519F" mask="url(#mask-4)" points="22.646 35.563 22.911 35.563 22.911 0.44 22.646 0.44"></polygon>
                    <polygon id="Fill-136" fill="#27519F" mask="url(#mask-4)" points="22.822 35.563 23.087 35.563 23.087 0.44 22.822 0.44"></polygon>
                    <polygon id="Fill-137" fill="#27519F" mask="url(#mask-4)" points="22.999 35.563 23.265 35.563 23.265 0.44 22.999 0.44"></polygon>
                    <polygon id="Fill-138" fill="#27519F" mask="url(#mask-4)" points="23.176 35.563 23.441 35.563 23.441 0.44 23.176 0.44"></polygon>
                    <polygon id="Fill-139" fill="#27519F" mask="url(#mask-4)" points="23.353 35.563 23.618 35.563 23.618 0.44 23.353 0.44"></polygon>
                    <polygon id="Fill-140" fill="#27519F" mask="url(#mask-4)" points="23.53 35.563 23.796 35.563 23.796 0.44 23.53 0.44"></polygon>
                    <polygon id="Fill-141" fill="#27519F" mask="url(#mask-4)" points="23.707 35.563 23.973 35.563 23.973 0.44 23.707 0.44"></polygon>
                    <polygon id="Fill-142" fill="#27519F" mask="url(#mask-4)" points="23.884 35.563 24.15 35.563 24.15 0.44 23.884 0.44"></polygon>
                    <polygon id="Fill-143" fill="#27519F" mask="url(#mask-4)" points="24.061 35.563 24.326 35.563 24.326 0.44 24.061 0.44"></polygon>
                    <polygon id="Fill-144" fill="#27519F" mask="url(#mask-4)" points="24.238 35.563 24.503 35.563 24.503 0.44 24.238 0.44"></polygon>
                    <polygon id="Fill-145" fill="#2651A0" mask="url(#mask-4)" points="24.415 35.563 24.68 35.563 24.68 0.44 24.415 0.44"></polygon>
                    <polygon id="Fill-146" fill="#2651A0" mask="url(#mask-4)" points="24.591 35.563 24.857 35.563 24.857 0.44 24.591 0.44"></polygon>
                    <polygon id="Fill-147" fill="#2651A0" mask="url(#mask-4)" points="24.769 35.563 25.034 35.563 25.034 0.44 24.769 0.44"></polygon>
                    <polygon id="Fill-148" fill="#2651A0" mask="url(#mask-4)" points="24.945 35.563 25.21 35.563 25.21 0.44 24.945 0.44"></polygon>
                    <polygon id="Fill-149" fill="#2651A0" mask="url(#mask-4)" points="25.122 35.563 25.388 35.563 25.388 0.44 25.122 0.44"></polygon>
                    <polygon id="Fill-150" fill="#2651A0" mask="url(#mask-4)" points="25.299 35.563 25.565 35.563 25.565 0.44 25.299 0.44"></polygon>
                    <polygon id="Fill-151" fill="#2651A0" mask="url(#mask-4)" points="25.476 35.563 25.741 35.563 25.741 0.44 25.476 0.44"></polygon>
                    <polygon id="Fill-152" fill="#2851A0" mask="url(#mask-4)" points="25.653 35.563 25.919 35.563 25.919 0.44 25.653 0.44"></polygon>
                    <polygon id="Fill-153" fill="#2851A0" mask="url(#mask-4)" points="25.83 35.563 26.095 35.563 26.095 0.44 25.83 0.44"></polygon>
                    <polygon id="Fill-154" fill="#2851A0" mask="url(#mask-4)" points="26.007 35.563 26.272 35.563 26.272 0.44 26.007 0.44"></polygon>
                    <polygon id="Fill-155" fill="#2853A1" mask="url(#mask-4)" points="26.184 35.563 26.45 35.563 26.45 0.44 26.184 0.44"></polygon>
                    <polygon id="Fill-156" fill="#2853A1" mask="url(#mask-4)" points="26.36 35.563 26.626 35.563 26.626 0.44 26.36 0.44"></polygon>
                    <polygon id="Fill-157" fill="#2853A1" mask="url(#mask-4)" points="26.538 35.563 26.803 35.563 26.803 0.44 26.538 0.44"></polygon>
                    <polygon id="Fill-158" fill="#2853A1" mask="url(#mask-4)" points="26.714 35.563 26.98 35.563 26.98 0.44 26.714 0.44"></polygon>
                    <polygon id="Fill-159" fill="#2753A2" mask="url(#mask-4)" points="26.892 35.563 27.157 35.563 27.157 0.44 26.892 0.44"></polygon>
                    <polygon id="Fill-160" fill="#2753A2" mask="url(#mask-4)" points="27.068 35.563 27.333 35.563 27.333 0.44 27.068 0.44"></polygon>
                    <polygon id="Fill-161" fill="#2753A2" mask="url(#mask-4)" points="27.245 35.563 27.511 35.563 27.511 0.44 27.245 0.44"></polygon>
                    <polygon id="Fill-162" fill="#2753A2" mask="url(#mask-4)" points="27.422 35.563 27.688 35.563 27.688 0.44 27.422 0.44"></polygon>
                    <polygon id="Fill-163" fill="#2753A2" mask="url(#mask-4)" points="27.599 35.563 27.864 35.563 27.864 0.44 27.599 0.44"></polygon>
                    <polygon id="Fill-164" fill="#2753A2" mask="url(#mask-4)" points="27.776 35.563 28.041 35.563 28.041 0.44 27.776 0.44"></polygon>
                    <polygon id="Fill-165" fill="#2753A2" mask="url(#mask-4)" points="27.953 35.563 28.219 35.563 28.219 0.44 27.953 0.44"></polygon>
                    <polygon id="Fill-166" fill="#2753A2" mask="url(#mask-4)" points="28.129 35.563 28.395 35.563 28.395 0.44 28.129 0.44"></polygon>
                    <polygon id="Fill-167" fill="#2753A2" mask="url(#mask-4)" points="28.307 35.563 28.573 35.563 28.573 0.44 28.307 0.44"></polygon>
                    <polygon id="Fill-168" fill="#2853A2" mask="url(#mask-4)" points="28.484 35.563 28.749 35.563 28.749 0.44 28.484 0.44"></polygon>
                    <polygon id="Fill-169" fill="#2853A2" mask="url(#mask-4)" points="28.661 35.563 28.926 35.563 28.926 0.44 28.661 0.44"></polygon>
                    <polygon id="Fill-170" fill="#2853A2" mask="url(#mask-4)" points="28.837 35.563 29.103 35.563 29.103 0.44 28.837 0.44"></polygon>
                    <polygon id="Fill-171" fill="#2853A2" mask="url(#mask-4)" points="29.014 35.563 29.28 35.563 29.28 0.44 29.014 0.44"></polygon>
                    <polygon id="Fill-172" fill="#2853A2" mask="url(#mask-4)" points="29.191 35.563 29.456 35.563 29.456 0.44 29.191 0.44"></polygon>
                    <polygon id="Fill-173" fill="#2853A3" mask="url(#mask-4)" points="29.368 35.563 29.633 35.563 29.633 0.44 29.368 0.44"></polygon>
                    <polygon id="Fill-174" fill="#2754A3" mask="url(#mask-4)" points="29.545 35.563 29.811 35.563 29.811 0.44 29.545 0.44"></polygon>
                    <polygon id="Fill-175" fill="#2754A3" mask="url(#mask-4)" points="29.722 35.563 29.988 35.563 29.988 0.44 29.722 0.44"></polygon>
                    <polygon id="Fill-176" fill="#2754A3" mask="url(#mask-4)" points="29.899 35.563 30.165 35.563 30.165 0.44 29.899 0.44"></polygon>
                    <polygon id="Fill-177" fill="#2754A3" mask="url(#mask-4)" points="30.076 35.563 30.342 35.563 30.342 0.44 30.076 0.44"></polygon>
                    <polygon id="Fill-178" fill="#2754A3" mask="url(#mask-4)" points="30.253 35.563 30.518 35.563 30.518 0.44 30.253 0.44"></polygon>
                    <polygon id="Fill-179" fill="#2754A3" mask="url(#mask-4)" points="30.43 35.563 30.695 35.563 30.695 0.44 30.43 0.44"></polygon>
                    <polygon id="Fill-180" fill="#2754A3" mask="url(#mask-4)" points="30.606 35.563 30.872 35.563 30.872 0.44 30.606 0.44"></polygon>
                    <polygon id="Fill-181" fill="#2754A3" mask="url(#mask-4)" points="30.783 35.563 31.049 35.563 31.049 0.44 30.783 0.44"></polygon>
                    <polygon id="Fill-182" fill="#2754A3" mask="url(#mask-4)" points="30.96 35.563 31.225 35.563 31.225 0.44 30.96 0.44"></polygon>
                    <polygon id="Fill-183" fill="#2754A3" mask="url(#mask-4)" points="31.137 35.563 31.403 35.563 31.403 0.44 31.137 0.44"></polygon>
                    <polygon id="Fill-184" fill="#2954A4" mask="url(#mask-4)" points="31.314 35.563 31.58 35.563 31.58 0.44 31.314 0.44"></polygon>
                    <polygon id="Fill-185" fill="#2954A4" mask="url(#mask-4)" points="31.491 35.563 31.757 35.563 31.757 0.44 31.491 0.44"></polygon>
                    <polygon id="Fill-186" fill="#2954A4" mask="url(#mask-4)" points="31.668 35.563 31.934 35.563 31.934 0.44 31.668 0.44"></polygon>
                    <polygon id="Fill-187" fill="#2954A4" mask="url(#mask-4)" points="31.845 35.563 32.11 35.563 32.11 0.44 31.845 0.44"></polygon>
                    <polygon id="Fill-188" fill="#2854A4" mask="url(#mask-4)" points="32.022 35.563 32.287 35.563 32.287 0.44 32.022 0.44"></polygon>
                    <polygon id="Fill-189" fill="#2854A4" mask="url(#mask-4)" points="32.199 35.563 32.465 35.563 32.465 0.44 32.199 0.44"></polygon>
                    <polygon id="Fill-190" fill="#2854A4" mask="url(#mask-4)" points="32.375 35.563 32.641 35.563 32.641 0.44 32.375 0.44"></polygon>
                    <polygon id="Fill-191" fill="#2854A4" mask="url(#mask-4)" points="32.553 35.563 32.818 35.563 32.818 0.44 32.553 0.44"></polygon>
                    <polygon id="Fill-192" fill="#2854A4" mask="url(#mask-4)" points="32.729 35.563 32.995 35.563 32.995 0.44 32.729 0.44"></polygon>
                    <polygon id="Fill-193" fill="#2854A4" mask="url(#mask-4)" points="32.907 35.563 33.172 35.563 33.172 0.44 32.907 0.44"></polygon>
                    <polygon id="Fill-194" fill="#2855A5" mask="url(#mask-4)" points="33.083 35.563 33.348 35.563 33.348 0.44 33.083 0.44"></polygon>
                    <polygon id="Fill-195" fill="#2855A5" mask="url(#mask-4)" points="33.26 35.563 33.526 35.563 33.526 0.44 33.26 0.44"></polygon>
                    <polygon id="Fill-196" fill="#2855A5" mask="url(#mask-4)" points="33.437 35.563 33.703 35.563 33.703 0.44 33.437 0.44"></polygon>
                    <polygon id="Fill-197" fill="#2855A5" mask="url(#mask-4)" points="33.614 35.563 33.879 35.563 33.879 0.44 33.614 0.44"></polygon>
                    <polygon id="Fill-198" fill="#2855A5" mask="url(#mask-4)" points="33.791 35.563 34.056 35.563 34.056 0.44 33.791 0.44"></polygon>
                    <polygon id="Fill-199" fill="#2855A5" mask="url(#mask-4)" points="33.968 35.563 34.234 35.563 34.234 0.44 33.968 0.44"></polygon>
                    <polygon id="Fill-200" fill="#2855A5" mask="url(#mask-4)" points="34.145 35.563 34.411 35.563 34.411 0.44 34.145 0.44"></polygon>
                    <polygon id="Fill-201" fill="#2955A5" mask="url(#mask-4)" points="34.322 35.563 34.588 35.563 34.588 0.44 34.322 0.44"></polygon>
                    <polygon id="Fill-202" fill="#2955A6" mask="url(#mask-4)" points="34.499 35.563 34.764 35.563 34.764 0.44 34.499 0.44"></polygon>
                    <polygon id="Fill-203" fill="#2955A6" mask="url(#mask-4)" points="34.676 35.563 34.941 35.563 34.941 0.44 34.676 0.44"></polygon>
                    <polygon id="Fill-204" fill="#2855A6" mask="url(#mask-4)" points="34.853 35.563 35.118 35.563 35.118 0.44 34.853 0.44"></polygon>
                    <polygon id="Fill-205" fill="#2855A6" mask="url(#mask-4)" points="35.029 35.563 35.295 35.563 35.295 0.44 35.029 0.44"></polygon>
                    <polygon id="Fill-206" fill="#2855A6" mask="url(#mask-4)" points="35.207 35.563 35.472 35.563 35.472 0.44 35.207 0.44"></polygon>
                    <polygon id="Fill-207" fill="#2855A6" mask="url(#mask-4)" points="35.383 35.563 35.648 35.563 35.648 0.44 35.383 0.44"></polygon>
                    <polygon id="Fill-208" fill="#2855A6" mask="url(#mask-4)" points="35.56 35.563 35.825 35.563 35.825 0.44 35.56 0.44"></polygon>
                    <polygon id="Fill-209" fill="#2855A6" mask="url(#mask-4)" points="35.737 35.563 36.003 35.563 36.003 0.44 35.737 0.44"></polygon>
                    <polygon id="Fill-210" fill="#2954A4" mask="url(#mask-4)" points="35.914 35.563 36.18 35.563 36.18 0.44 35.914 0.44"></polygon>
                    <polygon id="Fill-211" fill="#2854A3" mask="url(#mask-4)" points="36.091 35.563 36.357 35.563 36.357 0.44 36.091 0.44"></polygon>
                    <polygon id="Fill-212" fill="#2853A1" mask="url(#mask-4)" points="36.268 35.563 36.533 35.563 36.533 0.44 36.268 0.44"></polygon>
                    <polygon id="Fill-213" fill="#2953A0" mask="url(#mask-4)" points="36.445 35.563 36.71 35.563 36.71 0.44 36.445 0.44"></polygon>
                    <polygon id="Fill-214" fill="#29529F" mask="url(#mask-4)" points="36.622 35.563 36.888 35.563 36.888 0.44 36.622 0.44"></polygon>
                    <polygon id="Fill-215" fill="#28529E" mask="url(#mask-4)" points="36.798 35.563 37.064 35.563 37.064 0.44 36.798 0.44"></polygon>
                    <polygon id="Fill-216" fill="#29519D" mask="url(#mask-4)" points="36.976 35.563 37.241 35.563 37.241 0.44 36.976 0.44"></polygon>
                    <polygon id="Fill-217" fill="#29519C" mask="url(#mask-4)" points="37.152 35.563 37.417 35.563 37.417 0.44 37.152 0.44"></polygon>
                    <polygon id="Fill-218" fill="#28509B" mask="url(#mask-4)" points="37.329 35.563 37.595 35.563 37.595 0.44 37.329 0.44"></polygon>
                    <polygon id="Fill-219" fill="#294F9B" mask="url(#mask-4)" points="37.506 35.563 37.771 35.563 37.771 0.44 37.506 0.44"></polygon>
                    <polygon id="Fill-220" fill="#294F9A" mask="url(#mask-4)" points="37.683 35.563 37.949 35.563 37.949 0.44 37.683 0.44"></polygon>
                    <polygon id="Fill-221" fill="#294E99" mask="url(#mask-4)" points="37.86 35.563 38.125 35.563 38.125 0.44 37.86 0.44"></polygon>
                    <polygon id="Fill-222" fill="#284E98" mask="url(#mask-4)" points="38.037 35.563 38.302 35.563 38.302 0.44 38.037 0.44"></polygon>
                    <polygon id="Fill-223" fill="#284E97" mask="url(#mask-4)" points="38.214 35.563 38.479 35.563 38.479 0.44 38.214 0.44"></polygon>
                    <polygon id="Fill-224" fill="#294D96" mask="url(#mask-4)" points="38.391 35.563 38.657 35.563 38.657 0.44 38.391 0.44"></polygon>
                    <polygon id="Fill-225" fill="#294D96" mask="url(#mask-4)" points="38.567 35.563 38.833 35.563 38.833 0.44 38.567 0.44"></polygon>
                    <polygon id="Fill-226" fill="#284C95" mask="url(#mask-4)" points="38.745 35.563 39.011 35.563 39.011 0.44 38.745 0.44"></polygon>
                    <polygon id="Fill-227" fill="#284C95" mask="url(#mask-4)" points="38.921 35.563 39.187 35.563 39.187 0.44 38.921 0.44"></polygon>
                    <polygon id="Fill-228" fill="#294B94" mask="url(#mask-4)" points="39.099 35.563 39.364 35.563 39.364 0.44 39.099 0.44"></polygon>
                    <polygon id="Fill-229" fill="#284B93" mask="url(#mask-4)" points="39.275 35.563 39.541 35.563 39.541 0.44 39.275 0.44"></polygon>
                    <polygon id="Fill-230" fill="#284B93" mask="url(#mask-4)" points="39.452 35.563 39.718 35.563 39.718 0.44 39.452 0.44"></polygon>
                    <polygon id="Fill-231" fill="#294A91" mask="url(#mask-4)" points="39.629 35.563 39.894 35.563 39.894 0.44 39.629 0.44"></polygon>
                    <polygon id="Fill-232" fill="#294991" mask="url(#mask-4)" points="39.806 35.563 40.071 35.563 40.071 0.44 39.806 0.44"></polygon>
                    <polygon id="Fill-233" fill="#284990" mask="url(#mask-4)" points="39.983 35.563 40.249 35.563 40.249 0.44 39.983 0.44"></polygon>
                    <polygon id="Fill-234" fill="#28498F" mask="url(#mask-4)" points="40.16 35.563 40.425 35.563 40.425 0.44 40.16 0.44"></polygon>
                    <polygon id="Fill-235" fill="#28488E" mask="url(#mask-4)" points="40.337 35.563 40.603 35.563 40.603 0.44 40.337 0.44"></polygon>
                    <polygon id="Fill-236" fill="#29488E" mask="url(#mask-4)" points="40.514 35.563 40.779 35.563 40.779 0.44 40.514 0.44"></polygon>
                    <polygon id="Fill-237" fill="#28478D" mask="url(#mask-4)" points="40.691 35.563 40.956 35.563 40.956 0.44 40.691 0.44"></polygon>
                    <polygon id="Fill-238" fill="#28478D" mask="url(#mask-4)" points="40.868 35.563 41.133 35.563 41.133 0.44 40.868 0.44"></polygon>
                    <polygon id="Fill-239" fill="#28468C" mask="url(#mask-4)" points="41.044 35.563 41.31 35.563 41.31 0.44 41.044 0.44"></polygon>
                    <polygon id="Fill-240" fill="#29468B" mask="url(#mask-4)" points="41.221 35.563 41.487 35.563 41.487 0.44 41.221 0.44"></polygon>
                    <polygon id="Fill-241" fill="#28458A" mask="url(#mask-4)" points="41.398 35.563 41.663 35.563 41.663 0.44 41.398 0.44"></polygon>
                    <polygon id="Fill-242" fill="#28458A" mask="url(#mask-4)" points="41.575 35.563 41.84 35.563 41.84 0.44 41.575 0.44"></polygon>
                    <polygon id="Fill-243" fill="#284589" mask="url(#mask-4)" points="41.752 35.563 42.018 35.563 42.018 0.44 41.752 0.44"></polygon>
                    <polygon id="Fill-244" fill="#274488" mask="url(#mask-4)" points="41.929 35.563 42.195 35.563 42.195 0.44 41.929 0.44"></polygon>
                    <polygon id="Fill-245" fill="#284387" mask="url(#mask-4)" points="42.106 35.563 42.372 35.563 42.372 0.44 42.106 0.44"></polygon>
                    <polygon id="Fill-246" fill="#284386" mask="url(#mask-4)" points="42.283 35.563 42.548 35.563 42.548 0.44 42.283 0.44"></polygon>
                    <polygon id="Fill-247" fill="#274183" mask="url(#mask-4)" points="42.46 35.563 42.725 35.563 42.725 0.44 42.46 0.44"></polygon>
                    <polygon id="Fill-248" fill="#273F80" mask="url(#mask-4)" points="42.637 35.563 42.903 35.563 42.903 0.44 42.637 0.44"></polygon>
                    <polygon id="Fill-249" fill="#273D7D" mask="url(#mask-4)" points="42.813 35.563 43.079 35.563 43.079 0.44 42.813 0.44"></polygon>
                    <polygon id="Fill-250" fill="#273B7A" mask="url(#mask-4)" points="42.991 35.563 43.256 35.563 43.256 0.44 42.991 0.44"></polygon>
                    <polygon id="Fill-251" fill="#273A78" mask="url(#mask-4)" points="43.167 35.563 43.432 35.563 43.432 0.44 43.167 0.44"></polygon>
                    <polygon id="Fill-252" fill="#273875" mask="url(#mask-4)" points="43.344 35.563 43.61 35.563 43.61 0.44 43.344 0.44"></polygon>
                    <polygon id="Fill-253" fill="#263673" mask="url(#mask-4)" points="43.521 35.563 43.786 35.563 43.786 0.44 43.521 0.44"></polygon>
                    <polygon id="Fill-254" fill="#263470" mask="url(#mask-4)" points="43.698 35.563 43.964 35.563 43.964 0.44 43.698 0.44"></polygon>
                    <polygon id="Fill-255" fill="#263673" mask="url(#mask-4)" points="43.875 35.563 44.141 35.563 44.141 0.44 43.875 0.44"></polygon>
                    <polygon id="Fill-256" fill="#263A79" mask="url(#mask-4)" points="44.052 35.563 44.317 35.563 44.317 0.44 44.052 0.44"></polygon>
                    <polygon id="Fill-257" fill="#273E7F" mask="url(#mask-4)" points="44.229 35.563 44.494 35.563 44.494 0.44 44.229 0.44"></polygon>
                    <polygon id="Fill-258" fill="#284386" mask="url(#mask-4)" points="44.406 35.563 44.672 35.563 44.672 0.44 44.406 0.44"></polygon>
                    <polygon id="Fill-259" fill="#28478D" mask="url(#mask-4)" points="44.583 35.563 44.848 35.563 44.848 0.44 44.583 0.44"></polygon>
                    <polygon id="Fill-260" fill="#294B94" mask="url(#mask-4)" points="44.76 35.563 45.026 35.563 45.026 0.44 44.76 0.44"></polygon>
                    <polygon id="Fill-261" fill="#28509B" mask="url(#mask-4)" points="44.937 35.563 45.203 35.563 45.203 0.44 44.937 0.44"></polygon>
                    <polygon id="Fill-262" fill="#2955A6" mask="url(#mask-4)" points="45.114 35.563 45.346 35.563 45.346 0.44 45.114 0.44"></polygon>
                </g>
                <g id="Group-303" transform="translate(0.000000, 0.559600)">
                    <path d="M22.2646,9.6513 C27.1356,9.1603 31.0856,12.7893 31.0856,17.7533 C31.0856,22.7153 27.1356,27.1413 22.2646,27.6313 C17.3916,28.1233 13.4416,24.4933 13.4416,19.5303 C13.4416,14.5663 17.3916,10.1423 22.2646,9.6513" id="Fill-264" fill="#196BB5"></path>
                    <path d="M22.2646,10.0942 C26.8966,9.6282 30.6506,13.0762 30.6506,17.7962 C30.6506,22.5162 26.8966,26.7212 22.2646,27.1872 C17.6326,27.6542 13.8776,24.2062 13.8776,19.4862 C13.8776,14.7662 17.6326,10.5612 22.2646,10.0942" id="Fill-266" fill="#FFFFFF"></path>
                    <path d="M22.2646,10.5156 C26.6656,10.0726 30.2376,13.3506 30.2376,17.8386 C30.2376,22.3246 26.6656,26.3226 22.2646,26.7656 C17.8616,27.2096 14.2896,23.9316 14.2896,19.4456 C14.2896,14.9576 17.8616,10.9596 22.2646,10.5156" id="Fill-268" fill="#B62B31"></path>
                    <path d="M18.606,13.749 C18.606,14.704 18.917,15.552 19.2,16.205 C19.383,16.625 20.135,17.722 20.463,17.913 C20.29,18.198 19.975,18.51 19.767,18.848 C19.584,19.15 19.324,19.55 19.194,19.894 C18.908,20.647 18.582,21.496 18.582,22.502 L18.582,22.747 C18.582,22.833 18.599,22.841 18.606,22.917 L19.352,22.842 L19.352,22.743 C19.352,21.673 19.53,20.888 19.737,20.026 C19.83,19.658 20.023,19.222 20.173,18.901 C20.256,18.722 20.339,18.555 20.443,18.387 C20.483,18.323 20.777,17.921 20.777,17.906 C20.777,17.894 20.248,17.145 20.18,17.023 C20.033,16.755 19.839,16.285 19.749,15.96 C19.522,15.154 19.378,14.304 19.378,13.253 L18.606,13.331 L18.606,13.749 Z" id="Fill-270" fill="#F8DF42"></path>
                    <path d="M21.4277,13.6372 C21.4277,14.4002 21.5007,15.1072 21.5487,15.8132 C21.5667,16.0902 21.8267,17.8052 21.8237,17.8092 C21.5577,18.8392 21.4047,20.8142 21.4047,22.0702 L21.4047,22.6342 L22.1257,22.5622 L22.1227,17.8192 L22.1507,12.9732 L21.4277,13.0462 L21.4277,13.6372 Z" id="Fill-272" fill="#F8DF42"></path>
                    <path d="M19.5703,13.4062 C19.5703,14.2202 19.7833,15.3052 19.9883,15.9112 C20.1143,16.2792 20.2323,16.6332 20.3993,16.9522 C20.5753,17.2902 20.7523,17.5612 20.9203,17.8652 C20.5693,18.5792 20.2933,19.0312 20.0253,19.8702 C19.8363,20.4642 19.5703,21.5532 19.5703,22.3042 L19.5703,22.8202 L20.2693,22.7492 L20.2693,22.3312 C20.2693,21.6422 20.3763,20.4532 20.5313,19.9182 C20.6413,19.5422 20.6983,19.2202 20.8153,18.8512 C20.8713,18.6722 20.9303,18.5142 20.9933,18.3512 C21.0203,18.2852 21.2113,17.8712 21.2113,17.8622 C21.2113,17.8562 20.8823,17.0812 20.8403,16.9492 C20.7303,16.6282 20.6133,16.2852 20.5573,15.9152 C20.5063,15.5742 20.4243,15.1972 20.3673,14.7992 C20.3163,14.4092 20.2933,13.9702 20.2933,13.5302 L20.2933,13.1622 L19.5703,13.2352 L19.5703,13.4062 Z" id="Fill-274" fill="#F8DF42"></path>
                    <path d="M23.1885,13.7304 C23.1885,14.3944 23.1525,15.1754 23.0515,15.7694 C22.9985,16.0934 22.9705,16.4384 22.9285,16.7354 C22.8975,16.9554 22.7835,17.5574 22.7875,17.6794 C22.7875,17.6794 22.9355,18.5234 22.9515,18.5674 C23.0075,18.7474 23.0425,19.2764 23.0705,19.5154 C23.1415,20.1674 23.2115,20.7994 23.2115,21.5424 L23.2115,22.4534 L23.9135,22.3824 C23.9135,20.8344 23.5355,18.5994 23.0195,17.6554 C23.5215,16.6374 23.8865,14.3104 23.8865,12.7994 L23.1885,12.8694 L23.1885,13.7304 Z" id="Fill-276" fill="#F8DF42"></path>
                    <path d="M21.4038,17.8188 C20.8898,18.8628 20.5118,21.1868 20.5118,22.7238 L21.2108,22.6538 L21.2108,21.5738 C21.2108,20.9068 21.3088,20.2698 21.3548,19.6668 C21.3808,19.2988 21.5188,18.1518 21.6118,17.8628 C21.6538,17.7418 21.4228,16.4038 21.3848,16.1418 C21.3058,15.6258 21.2328,14.8348 21.2328,14.2718 L21.2328,13.0668 L20.5358,13.1368 C20.5358,14.6358 20.9048,16.9068 21.4038,17.8188" id="Fill-278" fill="#F8DF42"></path>
                    <path d="M17.6172,14.0454 C17.6172,14.8904 18.0442,15.9674 18.3572,16.4864 C18.5542,16.8124 18.7912,17.1034 19.0582,17.3474 C19.2202,17.4954 19.7702,17.9244 19.9802,17.9604 C19.9532,18.0014 19.5712,18.2984 19.4882,18.3694 C19.3182,18.5164 19.1792,18.6494 19.0342,18.8124 C18.7582,19.1214 18.4942,19.5004 18.3002,19.8854 C17.9102,20.6474 17.5932,21.5904 17.5932,22.6994 L17.5932,23.0194 L18.3422,22.9434 L18.3422,22.5514 C18.3422,21.6724 18.6532,20.5514 18.9442,19.9344 C19.2122,19.3634 19.8182,18.3124 20.2712,17.9574 C20.1742,17.8214 20.0052,17.7244 19.8902,17.5964 C19.7632,17.4544 19.6612,17.3264 19.5392,17.1774 C19.3092,16.8954 19.1372,16.5704 18.9592,16.2294 C18.6482,15.6274 18.3652,14.6164 18.3652,13.6764 L18.3652,13.3564 L17.6172,13.4324 L17.6172,14.0454 Z" id="Fill-280" fill="#F8DF42"></path>
                    <path d="M22.3027,17.8017 L22.2967,22.5447 L23.0217,22.4717 C23.0217,20.9537 22.9297,19.1637 22.6527,17.9427 C22.5637,17.5577 22.6447,17.3477 22.7277,16.9197 C22.7967,16.5697 22.8187,16.1517 22.8707,15.7977 C22.9177,15.4617 22.9297,14.9867 22.9477,14.6377 C22.9617,14.2517 22.9947,13.8507 22.9947,13.4317 L22.9947,12.8887 L22.2657,12.9627 L22.3027,17.8017 Z" id="Fill-282" fill="#F8DF42"></path>
                    <path d="M24.1289,13.1928 C24.1289,13.5708 24.1099,14.0918 24.0569,14.4288 C24.0249,14.6288 24.0039,14.8148 23.9829,15.0238 C23.9629,15.1868 23.8859,15.4328 23.8649,15.5808 C23.8119,15.9408 23.6949,16.3288 23.5879,16.6548 C23.5409,16.8018 23.2119,17.6148 23.2119,17.6358 C23.2119,17.6438 23.5619,18.4138 23.6069,18.5708 C23.7139,18.9298 23.8029,19.2278 23.9029,19.6158 C24.0659,20.2468 24.1529,21.2918 24.1529,22.0888 L24.1529,22.3578 L24.8519,22.2878 L24.8519,22.0178 C24.8519,21.0338 24.6449,20.2908 24.4329,19.5388 C24.2089,18.7428 23.8439,18.2328 23.5029,17.6068 C23.6709,17.2618 23.8569,16.9428 24.0339,16.5708 C24.1979,16.2158 24.3299,15.8078 24.4479,15.4018 C24.6729,14.6358 24.8519,13.6778 24.8519,12.7018 L24.1289,12.7748 L24.1289,13.1928 Z" id="Fill-284" fill="#F8DF42"></path>
                    <path d="M25.0454,12.7568 C25.0454,13.7618 24.8934,14.6498 24.6744,15.4638 C24.5774,15.8208 24.3984,16.2888 24.2504,16.5978 C24.1754,16.7568 24.0684,16.9518 23.9754,17.1078 C23.9324,17.1738 23.6464,17.5768 23.6464,17.5908 C23.6464,17.6338 23.9194,17.9418 23.9604,18.0028 C24.0664,18.1548 24.1494,18.2958 24.2394,18.4748 C24.3994,18.7818 24.5984,19.1768 24.6864,19.5458 C24.9074,20.4258 25.0704,21.1068 25.0704,22.2658 L25.8404,22.1888 L25.8404,21.7718 C25.8404,20.7368 25.5174,20.0148 25.2354,19.3028 C25.1144,18.9958 24.8484,18.6318 24.6654,18.3688 C24.4524,18.0688 24.1364,17.8148 23.9604,17.5598 C24.3344,17.2688 25.0454,16.0248 25.2544,15.5058 C25.5934,14.6548 25.8174,13.9088 25.8174,12.7538 L25.8174,12.7278 C25.8174,12.6618 25.8064,12.6608 25.7924,12.6078 L25.0454,12.6828 L25.0454,12.7568 Z" id="Fill-286" fill="#F8DF42"></path>
                    <path d="M26.0586,12.9253 C26.0586,13.8503 25.7696,14.9203 25.4646,15.5743 C25.2846,15.9513 25.1136,16.3113 24.8836,16.6383 C24.7636,16.8083 24.6626,16.9463 24.5446,17.1133 C24.4276,17.2763 24.2536,17.4013 24.1526,17.5653 C24.6036,17.8293 25.2106,18.7593 25.4796,19.2773 C25.7736,19.8443 26.0816,20.8993 26.0816,21.7953 L26.0816,22.1633 L26.8326,22.0873 L26.8326,21.6213 C26.8326,20.5913 26.4526,19.6993 26.1006,19.0503 C25.9346,18.7493 25.6166,18.3813 25.3776,18.1603 C25.2076,18.0073 24.4736,17.5523 24.4446,17.5123 C24.6646,17.4293 25.2216,16.8723 25.3896,16.6863 C25.6956,16.3433 25.8686,16.0483 26.1006,15.6453 C26.4666,15.0133 26.8056,13.8423 26.8056,12.8743 L26.8056,12.5063 L26.0586,12.5803 L26.0586,12.9253 Z" id="Fill-288" fill="#F8DF42"></path>
                    <path d="M23.6694,24.0781 C23.6694,23.8021 24.1024,23.8221 24.2974,23.6951 C24.2974,24.0631 24.2334,24.2181 23.8634,24.2551 C23.7644,24.2651 23.6694,24.1801 23.6694,24.0781 M23.2604,23.4801 L23.7194,23.4341 C23.7304,23.2801 23.8234,23.2021 23.9854,23.1851 L24.1054,23.1741 C24.1914,23.1651 24.2974,23.2231 24.2974,23.3031 L24.2974,23.3511 C24.2974,23.5921 23.2114,23.4421 23.2114,24.1001 L23.2114,24.1981 C23.2114,24.4621 23.4714,24.6141 23.7194,24.5891 L23.8394,24.5771 C24.0404,24.5571 24.2284,24.3421 24.3164,24.3091 L24.3444,24.4781 L24.8774,24.4241 C24.8644,24.2941 24.7554,24.3361 24.7554,23.9191 L24.7554,23.2821 C24.7584,22.8531 24.4364,22.7721 24.0324,22.8121 C23.5884,22.8571 23.2944,23.0571 23.2604,23.4801" id="Fill-290" fill="#196BB5"></path>
                    <path d="M18.1235,24.6362 C18.1235,24.3502 18.5405,24.3772 18.7485,24.2542 C18.7485,24.6072 18.6475,24.7812 18.3175,24.8142 C18.2195,24.8242 18.1235,24.7532 18.1235,24.6362 M17.7135,23.9672 L17.7135,24.0392 L18.1715,23.9932 C18.1735,23.8532 18.2525,23.7632 18.3895,23.7502 L18.5585,23.7332 C18.6615,23.7222 18.7485,23.7892 18.7485,23.8862 C18.7485,24.1722 17.6405,24.0002 17.6405,24.6612 C17.6405,25.0082 17.8575,25.1792 18.1945,25.1452 L18.2185,25.1432 C18.5505,25.1102 18.6155,24.9262 18.7675,24.8692 L18.7985,25.0362 L19.3035,24.9862 C19.2915,24.8402 19.2385,24.9202 19.2105,24.7942 C19.1995,24.7342 19.2095,24.5532 19.2095,24.4782 C19.2095,24.2652 19.2065,24.0532 19.2095,23.8402 C19.2105,23.4362 18.8925,23.3302 18.5095,23.3692 C18.1275,23.4072 17.7135,23.6042 17.7135,23.9672" id="Fill-292" fill="#196BB5"></path>
                    <path d="M25.624,22.9228 L25.624,22.7018 L25.165,22.7478 L25.165,24.3938 L25.649,24.3448 L25.649,23.4368 C25.649,23.2288 25.744,23.0338 25.937,23.0138 L26.082,22.9998 C26.213,22.9858 26.3,23.0648 26.3,23.1998 L26.3,24.2798 L26.782,24.2308 L26.782,23.1008 C26.782,22.7488 26.517,22.5638 26.178,22.5978 C25.825,22.6328 25.807,22.7788 25.624,22.9228" id="Fill-294" fill="#196BB5"></path>
                    <path d="M19.5703,23.7783 L19.5703,23.8753 C19.5703,24.3903 20.6553,24.1503 20.6553,24.3813 L20.6553,24.4073 C20.6553,24.5273 20.4903,24.5703 20.3653,24.5823 L20.2933,24.5903 C19.9443,24.6253 20.0543,24.3693 19.9313,24.3813 L19.4963,24.4253 C19.4963,24.8533 19.9423,24.9693 20.3653,24.9263 C20.7723,24.8853 21.1383,24.6803 21.1383,24.2593 L21.1383,24.2343 C21.1383,23.7113 20.0283,23.9543 20.0283,23.7083 C20.0283,23.6063 20.1593,23.5473 20.2693,23.5353 L20.3923,23.5233 C20.5193,23.5103 20.6053,23.5883 20.6093,23.7233 L21.0903,23.6743 C20.9923,23.2553 20.7853,23.1403 20.2693,23.1923 C19.9353,23.2253 19.5703,23.4453 19.5703,23.7783" id="Fill-296" fill="#196BB5"></path>
                    <path d="M21.813,23.748 C21.85,23.582 21.935,23.393 22.126,23.373 L22.174,23.369 C22.387,23.347 22.521,23.486 22.538,23.675 L21.813,23.748 Z M21.332,23.969 L21.332,24.019 C21.332,24.512 21.683,24.794 22.174,24.745 L22.2,24.742 C22.598,24.702 22.92,24.461 22.997,24.122 L22.561,24.165 C22.474,24.174 22.468,24.347 22.273,24.366 L22.174,24.376 C21.957,24.398 21.819,24.264 21.813,24.044 L23.019,23.923 L23.019,23.849 C23.019,23.265 22.741,22.943 22.174,22.999 C21.642,23.053 21.332,23.419 21.332,23.969 L21.332,23.969 Z" id="Fill-298" fill="#196BB5"></path>
                    <g id="Group-302">
                        <mask id="mask-6" fill="white">
                            <use xlink:href="#path-5"></use>
                        </mask>
                        <g id="Clip-301"></g>
                        <path d="M1.6948,5.353 C0.7588,5.353 -0.0002,6.111 -0.0002,7.047 L-0.0002,33.87 C-0.0002,34.802 0.7538,35.557 1.6838,35.563 C23.8848,35.399 45.3458,28.051 45.3188254,31.638 L45.3188254,1.427 C45.3238,0.724 44.5048,0.440999843 43.0198,0.440999843 C36.9178,0.44 19.5478,5.219 1.6948,5.353" id="Fill-300" fill="url(#linearGradient-7)" opacity="0.151901972" mask="url(#mask-6)"></path>
                    </g>
                </g>
            </g>
        </g>
    </g>
</svg>