<?xml version="1.0" encoding="UTF-8"?>
<svg width="22px" height="22px" viewBox="0 0 22 22" version="1.1" xmlns="http://www.w3.org/2000/svg" xmlns:xlink="http://www.w3.org/1999/xlink">
    <!-- Generator: Sketch 61.2 (89653) - https://sketch.com -->
    <title>icon_fb</title>
    <desc>Created with Sketch.</desc>
    <defs>
        <polygon id="path-1" points="0.0001 0.0003 21.448 0.0003 21.448 21.448 0.0001 21.448"></polygon>
    </defs>
    <g id="Page-1" stroke="none" stroke-width="1" fill="none" fill-rule="evenodd">
        <g id="Artboard-Copy" transform="translate(-502.000000, -244.000000)">
            <g id="icon_fb" transform="translate(502.000000, 244.000000)">
                <mask id="mask-2" fill="white">
                    <use xlink:href="#path-1"></use>
                </mask>
                <g id="Clip-2"></g>
                <path d="M10.7241,0 C16.6461,0 21.4481,4.801 21.4481,10.724 C21.4481,16.647 16.6461,21.448 10.7241,21.448 C4.8011,21.448 0.0001,16.647 0.0001,10.724 C0.0001,4.801 4.8011,0 10.7241,0 M8.0381,11.095 L9.2831,11.095 L9.2831,16.219 C9.2831,16.321 9.3651,16.402 9.4661,16.402 L11.5771,16.402 C11.6781,16.402 11.7601,16.321 11.7601,16.219 L11.7601,11.119 L13.1911,11.119 C13.2841,11.119 13.3621,11.049 13.3731,10.957 L13.5911,9.07 C13.5971,9.018 13.5801,8.967 13.5451,8.927 C13.5101,8.888 13.4601,8.866 13.4091,8.866 L11.7601,8.866 L11.7601,7.683 C11.7601,7.327 11.9521,7.146 12.3301,7.146 L13.4091,7.146 C13.5101,7.146 13.5911,7.065 13.5911,6.963 L13.5911,5.231 C13.5911,5.13 13.5101,5.048 13.4091,5.048 L11.9231,5.048 C11.9131,5.048 11.8901,5.047 11.8551,5.047 C11.5971,5.047 10.7031,5.098 9.9941,5.748 C9.2091,6.469 9.3201,7.334 9.3451,7.483 L9.3451,8.866 L8.0381,8.866 C7.9361,8.866 7.8551,8.948 7.8551,9.049 L7.8551,10.912 C7.8551,11.013 7.9361,11.095 8.0381,11.095" id="Fill-1" fill="#233C87" mask="url(#mask-2)"></path>
            </g>
        </g>
    </g>
</svg>