<?xml version="1.0" encoding="UTF-8"?>
<svg width="22px" height="22px" viewBox="0 0 22 22" version="1.1" xmlns="http://www.w3.org/2000/svg" xmlns:xlink="http://www.w3.org/1999/xlink">
    <!-- Generator: Sketch 61.2 (89653) - https://sketch.com -->
    <title>icon_ig</title>
    <desc>Created with Sketch.</desc>
    <defs>
        <polygon id="path-1" points="0 0.0003 21.4479 0.0003 21.4479 21.448 0 21.448"></polygon>
    </defs>
    <g id="Page-1" stroke="none" stroke-width="1" fill="none" fill-rule="evenodd">
        <g id="Artboard-Copy" transform="translate(-528.000000, -244.000000)">
            <g id="icon_ig" transform="translate(528.000000, 244.000000)">
                <mask id="mask-2" fill="white">
                    <use xlink:href="#path-1"></use>
                </mask>
                <g id="Clip-2"></g>
                <path d="M10.7239,0 C16.6469,0 21.4479,4.801 21.4479,10.724 C21.4479,16.647 16.6469,21.448 10.7239,21.448 C4.8019,21.448 -0.0001,16.647 -0.0001,10.724 C-0.0001,4.801 4.8019,0 10.7239,0 M14.1809,8.047 C13.7449,8.047 13.3889,7.688 13.3889,7.248 C13.3889,6.808 13.7449,6.45 14.1809,6.45 C14.6189,6.45 14.9739,6.808 14.9739,7.248 C14.9739,7.688 14.6189,8.047 14.1809,8.047 M10.7229,14.1 C8.8749,14.1 7.3729,12.586 7.3729,10.724 C7.3729,8.864 8.8749,7.349 10.7229,7.349 C12.5709,7.349 14.0739,8.864 14.0739,10.724 C14.0739,12.586 12.5709,14.1 10.7229,14.1 M13.9469,5.598 L7.4999,5.598 C6.4709,5.598 5.6349,6.442 5.6349,7.478 L5.6349,13.972 C5.6349,15.008 6.4709,15.851 7.4999,15.851 L13.9469,15.851 C14.9749,15.851 15.8129,15.008 15.8129,13.972 L15.8129,7.478 C15.8129,6.442 14.9749,5.598 13.9469,5.598 M10.7229,8.775 C9.6569,8.775 8.7879,9.65 8.7879,10.724 C8.7879,11.799 9.6569,12.674 10.7229,12.674 C11.7899,12.674 12.6569,11.799 12.6569,10.724 C12.6569,9.65 11.7899,8.775 10.7229,8.775" id="Fill-1" fill="#233C87" mask="url(#mask-2)"></path>
            </g>
        </g>
    </g>
</svg>