<?xml version="1.0" encoding="UTF-8"?>
<svg width="22px" height="22px" viewBox="0 0 22 22" version="1.1" xmlns="http://www.w3.org/2000/svg" xmlns:xlink="http://www.w3.org/1999/xlink">
    <!-- Generator: Sketch 61.2 (89653) - https://sketch.com -->
    <title>icon_twitter</title>
    <desc>Created with Sketch.</desc>
    <defs>
        <polygon id="path-1" points="0 0.0003 21.448 0.0003 21.448 21.448 0 21.448"></polygon>
    </defs>
    <g id="Page-1" stroke="none" stroke-width="1" fill="none" fill-rule="evenodd">
        <g id="Artboard-Copy" transform="translate(-475.000000, -244.000000)">
            <g id="icon_twitter" transform="translate(475.000000, 244.000000)">
                <mask id="mask-2" fill="white">
                    <use xlink:href="#path-1"></use>
                </mask>
                <g id="Clip-2"></g>
                <path d="M10.7245,0 C16.6465,0 21.4485,4.801 21.4485,10.724 C21.4485,16.647 16.6465,21.448 10.7245,21.448 C4.8015,21.448 -0.0005,16.647 -0.0005,10.724 C-0.0005,4.801 4.8015,0 10.7245,0 M15.3455,7.463 C15.1925,7.535 15.0365,7.595 14.8775,7.646 C15.0655,7.417 15.2105,7.147 15.2975,6.854 C15.3175,6.787 15.2975,6.714 15.2465,6.671 C15.1965,6.628 15.1255,6.623 15.0695,6.658 C14.7305,6.874 14.3645,7.028 13.9805,7.119 C13.5945,6.714 13.0695,6.484 12.5265,6.484 C11.3805,6.484 10.4475,7.482 10.4475,8.708 C10.4475,8.804 10.4535,8.9 10.4645,8.996 C9.0425,8.861 7.7205,8.114 6.8125,6.922 C6.7795,6.88 6.7305,6.857 6.6795,6.862 C6.6285,6.866 6.5815,6.896 6.5565,6.944 C6.3725,7.282 6.2755,7.668 6.2755,8.062 C6.2755,8.597 6.4545,9.105 6.7695,9.503 C6.6735,9.468 6.5805,9.422 6.4915,9.37 C6.4435,9.342 6.3855,9.342 6.3385,9.372 C6.2905,9.399 6.2605,9.454 6.2595,9.512 L6.2595,9.542 C6.2595,10.341 6.6625,11.061 7.2765,11.453 C7.2235,11.448 7.1715,11.44 7.1185,11.429 C7.0645,11.418 7.0095,11.438 6.9725,11.483 C6.9355,11.526 6.9235,11.588 6.9415,11.644 C7.1685,12.404 7.7545,12.963 8.4625,13.134 C7.8755,13.528 7.2035,13.734 6.4975,13.734 C6.3505,13.734 6.2025,13.726 6.0575,13.707 C5.9855,13.698 5.9165,13.744 5.8925,13.816 C5.8685,13.89 5.8935,13.971 5.9545,14.013 C6.8615,14.635 7.9095,14.964 8.9865,14.964 C11.1015,14.964 12.4255,13.896 13.1635,13 C14.0835,11.884 14.6115,10.407 14.6115,8.946 C14.6115,8.885 14.6105,8.823 14.6075,8.762 C14.9725,8.469 15.2845,8.115 15.5375,7.708 C15.5775,7.647 15.5715,7.565 15.5275,7.508 C15.4825,7.451 15.4095,7.433 15.3455,7.463" id="Fill-1" fill="#233C87" mask="url(#mask-2)"></path>
            </g>
        </g>
    </g>
</svg>