<?xml version="1.0" encoding="UTF-8"?>
<svg width="360px" height="127px" viewBox="0 0 360 127" version="1.1" xmlns="http://www.w3.org/2000/svg" xmlns:xlink="http://www.w3.org/1999/xlink">
    <!-- Generator: Sketch 61.2 (89653) - https://sketch.com -->
    <title>img_pattern_honeycomb</title>
    <desc>Created with Sketch.</desc>
    <defs>
        <path d="M333.958,-1.42108547e-14 L333.773,0.112 C329.461,2.686 325.149,5.261 320.838,7.836 L320.838,7.836 C316.466,5.224 312.092,2.613 307.719,-1.42108547e-14 L307.719,-1.42108547e-14 L307.534,0.112 C303.221,2.686 298.909,5.261 294.599,7.836 L294.599,7.836 C290.226,5.224 285.852,2.613 281.479,-1.42108547e-14 L281.479,-1.42108547e-14 L281.293,0.112 C276.981,2.686 272.669,5.261 268.358,7.836 L268.358,7.836 C263.986,5.224 259.612,2.613 255.239,-1.42108547e-14 L255.239,-1.42108547e-14 L255.053,0.112 C250.742,2.686 246.43,5.261 242.119,7.836 L242.119,7.836 C237.746,5.224 233.372,2.613 228.999,-1.42108547e-14 L228.999,-1.42108547e-14 L228.813,0.112 C224.501,2.686 220.189,5.261 215.879,7.836 L215.879,7.836 C211.505,5.224 207.132,2.613 202.759,-1.42108547e-14 L202.759,-1.42108547e-14 L202.573,0.112 C198.262,2.686 193.95,5.261 189.638,7.836 L189.638,7.836 L176.519,-1.42108547e-14 L176.333,0.112 C172.021,2.686 167.71,5.261 163.399,7.836 L163.399,7.836 C159.025,5.224 154.652,2.613 150.278,-1.42108547e-14 L150.278,-1.42108547e-14 L150.093,0.112 C145.782,2.686 141.469,5.261 137.158,7.836 L137.158,7.836 C132.786,5.224 128.412,2.613 124.039,-1.42108547e-14 L124.039,-1.42108547e-14 L123.854,0.112 C119.542,2.686 115.23,5.261 110.919,7.836 L110.919,7.836 C106.546,5.224 102.173,2.613 97.799,-1.42108547e-14 L97.799,-1.42108547e-14 L97.613,0.112 C93.301,2.686 88.989,5.26 84.679,7.836 L84.679,7.836 C80.306,5.224 75.932,2.613 71.559,-1.42108547e-14 L71.559,-1.42108547e-14 L71.374,0.112 L71.181,0.226 L71.181,0.12 L58.35,7.783 C54.006,5.189 49.663,2.595 45.32,-1.42108547e-14 L45.32,-1.42108547e-14 L45.23,0.054 L45.139,-1.42108547e-14 L44.954,0.112 L32.109,7.783 L19.079,-1.42108547e-14 L18.99,0.054 L18.9,-1.42108547e-14 L18.715,0.112 C14.432,2.669 10.15,5.226 5.87,7.783 L5.87,7.783 L0,4.277 L0,4.384 L0,5.12 L0,5.226 L5.417,8.462 L5.417,23.724 L0,26.961 L0,27.068 L0,27.835 L0,27.943 L5.87,24.437 L18.537,32.003 L18.537,47.265 L5.87,54.831 L0,51.325 L0,51.432 L0,52.171 L0,52.278 L5.417,55.514 L5.417,70.777 L0,74.012 L0,74.119 L0,74.887 L0,74.994 L5.87,71.489 L18.537,79.055 L18.537,94.318 L5.87,101.883 L0,98.377 L0,98.484 L0,99.259 L0,99.366 L5.417,102.602 L5.417,117.864 L0,121.1 L0,121.207 L0,121.941 L0,122.048 L5.87,118.543 L18.9,126.326 L18.99,126.273 L19.079,126.326 L32.109,118.543 L45.139,126.326 L45.23,126.273 L45.32,126.326 L58.35,118.543 L71.181,126.207 L71.181,126.101 L71.559,126.326 C75.931,123.713 80.305,121.101 84.678,118.489 L84.678,118.489 L97.799,126.326 C102.172,123.713 106.545,121.101 110.919,118.49 L110.919,118.49 L124.039,126.326 C128.411,123.713 132.785,121.101 137.158,118.489 L137.158,118.489 L150.278,126.326 L163.399,118.489 L176.519,126.326 C180.891,123.713 185.265,121.101 189.638,118.489 L189.638,118.489 L202.759,126.326 C207.131,123.713 211.505,121.101 215.878,118.489 L215.878,118.489 L228.999,126.326 C233.371,123.713 237.745,121.101 242.119,118.489 L242.119,118.489 L255.239,126.326 C259.61,123.713 263.984,121.101 268.358,118.489 L268.358,118.489 L281.479,126.326 C285.851,123.713 290.226,121.101 294.599,118.489 L294.599,118.489 L307.719,126.326 C312.091,123.713 316.464,121.101 320.838,118.489 L320.838,118.489 L333.958,126.326 L347.079,118.489 L360,126.207 L360,125.365 L347.44,117.864 L347.44,102.602 L353.824,98.789 L360,95.101 L360,78.277 L347.44,70.777 L347.44,55.514 L353.824,51.702 L360,48.013 L360,31.226 L347.44,23.724 L347.44,8.462 L353.824,4.65 L360,0.961 L360,0.12 L347.079,7.836 C342.706,5.224 338.332,2.612 333.958,-1.42108547e-14 Z M321.202,23.724 L321.202,8.462 L327.585,4.65 L333.958,0.844 L346.715,8.462 L346.715,23.724 L333.958,31.344 L321.202,23.724 Z M294.961,23.724 L294.961,8.462 L301.344,4.65 L307.719,0.844 L320.475,8.462 L320.475,23.724 L307.719,31.344 L294.961,23.724 Z M268.721,23.724 L268.721,8.462 L275.104,4.65 L281.479,0.844 L294.235,8.462 L294.235,23.724 L281.479,31.344 L268.721,23.724 Z M242.481,23.724 L242.481,8.462 L248.864,4.65 L255.238,0.844 L267.996,8.462 L267.996,23.724 L255.238,31.344 L242.481,23.724 Z M216.241,23.724 L216.241,8.462 L222.624,4.65 L228.999,0.844 L241.755,8.462 L241.755,23.724 L228.999,31.344 L216.241,23.724 Z M190.002,23.724 L190.002,21.37 L190.002,9.31 L190.002,8.556 L190.002,8.462 L196.384,4.65 L202.759,0.844 L215.516,8.462 L215.516,23.724 L202.759,31.344 L190.002,23.724 Z M163.761,23.724 L163.761,8.462 L170.144,4.65 L176.519,0.844 L189.275,8.462 L189.275,23.724 L176.519,31.344 L163.761,23.724 Z M137.522,23.724 L137.522,8.462 L143.904,4.65 L150.278,0.844 L163.036,8.462 L163.036,23.724 L150.278,31.344 L137.522,23.724 Z M111.281,23.724 L111.281,8.462 L117.664,4.65 L124.039,0.844 L136.796,8.462 L136.796,23.724 L124.039,31.344 L111.281,23.724 Z M85.042,23.724 L85.042,8.462 L91.425,4.65 L97.799,0.844 L110.555,8.462 L110.555,23.724 L97.799,31.344 L85.042,23.724 Z M58.802,23.724 L58.802,8.462 L65.185,4.65 L71.559,0.844 L84.316,8.462 C84.315,12.849 84.316,17.236 84.316,21.622 L84.316,21.622 L84.316,23.724 L71.559,31.344 L58.802,23.724 Z M32.562,23.724 L32.562,8.462 L38.945,4.65 L45.23,0.897 L57.897,8.462 L57.897,23.724 L45.23,31.29 L32.562,23.724 Z M6.322,23.724 L6.322,8.462 L12.704,4.65 L18.99,0.897 L31.657,8.462 L31.657,23.724 L18.99,31.291 L6.322,23.724 Z M334.321,47.265 L334.321,32.003 L340.704,28.191 L347.08,24.384 L359.836,32.003 L359.836,47.265 L347.08,54.885 L334.321,47.265 Z M308.082,47.265 L308.082,32.003 L314.464,28.191 L320.839,24.384 L333.596,32.003 L333.596,47.265 L320.839,54.885 L308.082,47.265 Z M281.842,47.265 L281.842,32.003 L288.225,28.191 L294.599,24.384 L307.355,32.003 L307.355,47.265 L294.599,54.885 L281.842,47.265 Z M255.602,47.265 L255.602,32.003 L261.985,28.191 L268.359,24.384 L281.116,32.003 L281.116,47.265 L268.359,54.885 L255.602,47.265 Z M229.361,47.265 L229.361,32.003 L235.744,28.191 L242.119,24.384 L254.876,32.003 L254.876,47.265 L242.119,54.885 L229.361,47.265 Z M203.122,47.265 L203.122,32.003 L209.506,28.191 L215.879,24.384 L228.637,32.003 L228.637,47.265 L215.879,54.885 L203.122,47.265 Z M176.882,47.265 L176.882,44.976 L176.882,33.197 L176.882,32.46 L176.882,32.002 L183.265,28.191 L189.64,24.384 L202.396,32.003 L202.396,47.265 L189.64,54.885 L176.882,47.265 Z M150.642,47.265 L150.642,32.003 L157.025,28.191 L163.399,24.384 L176.156,32.003 L176.156,47.265 L163.399,54.885 L150.642,47.265 Z M124.402,47.265 L124.402,32.003 L130.784,28.191 L137.159,24.384 L149.917,32.003 L149.917,47.265 L137.159,54.885 L124.402,47.265 Z M98.162,47.265 L98.162,32.003 L104.545,28.191 L110.92,24.384 L123.676,32.003 L123.676,47.265 L110.92,54.885 L98.162,47.265 Z M71.923,47.265 L71.923,32.003 L78.305,28.191 L84.679,24.384 L97.437,32.003 L97.437,47.265 L84.679,54.885 L71.923,47.265 Z M45.682,47.265 L45.682,32.003 L52.065,28.191 L58.35,24.437 L71.017,32.003 L71.017,47.265 L58.35,54.831 L45.682,47.265 Z M19.442,47.265 L19.442,32.003 L25.825,28.191 L32.11,24.437 L44.777,32.003 L44.777,47.265 L32.11,54.831 L19.442,47.265 Z M71.181,31.994 L71.195,32.003 C71.195,36.39 71.195,40.776 71.196,45.162 L71.196,45.162 L71.196,47.265 L71.181,47.275 L71.181,31.994 Z M321.202,70.777 L321.202,55.514 L327.585,51.702 L333.958,47.895 L346.715,55.514 L346.715,70.777 L333.958,78.396 L321.202,70.777 Z M294.961,70.777 L294.961,55.514 L301.344,51.702 L307.719,47.895 L320.475,55.514 L320.475,70.777 L307.719,78.396 L294.961,70.777 Z M268.721,70.777 L268.721,55.514 L275.104,51.702 L281.479,47.895 L294.235,55.514 L294.235,70.777 L281.479,78.396 L268.721,70.777 Z M242.481,70.777 L242.481,55.514 L248.864,51.702 L255.238,47.895 L267.996,55.514 L267.996,70.777 L255.238,78.396 L242.481,70.777 Z M216.241,70.777 L216.241,55.514 L222.624,51.702 L228.999,47.895 L241.755,55.514 L241.755,70.777 L228.999,78.396 L216.241,70.777 Z M190.002,70.777 L190.002,67.92 L190.002,56.613 L190.002,55.608 L190.002,55.514 L196.384,51.702 L202.759,47.895 L215.516,55.514 L215.516,70.777 L202.759,78.396 L190.002,70.777 Z M163.761,70.777 L163.761,55.514 L170.144,51.702 L176.519,47.895 L189.275,55.514 L189.275,70.777 L176.519,78.396 L163.761,70.777 Z M137.522,70.777 L137.522,55.514 L143.904,51.702 L150.278,47.895 L163.036,55.514 L163.036,70.777 L150.278,78.396 L137.522,70.777 Z M111.281,70.777 L111.281,55.514 L117.664,51.702 L124.039,47.895 L136.796,55.514 L136.796,70.777 L124.039,78.396 L111.281,70.777 Z M85.042,70.777 L85.042,55.514 L91.425,51.702 L97.799,47.895 L110.555,55.514 L110.555,70.777 L97.799,78.396 L85.042,70.777 Z M58.802,70.777 L58.802,55.514 L65.185,51.702 L71.559,47.895 L84.316,55.514 C84.314,59.901 84.316,64.286 84.316,68.673 L84.316,68.673 L84.316,70.777 L71.559,78.396 L58.802,70.777 Z M32.562,70.777 L32.562,55.514 L38.945,51.702 L45.23,47.948 L57.897,55.514 L57.897,70.777 L45.23,78.342 L32.562,70.777 Z M6.322,70.777 L6.322,55.514 L12.704,51.702 L18.99,47.948 L31.657,55.514 L31.657,70.777 L18.99,78.342 L6.322,70.777 Z M334.321,94.318 L334.321,79.055 L340.704,75.242 L347.08,71.435 L359.836,79.055 L359.836,94.318 L347.08,101.937 L334.321,94.318 Z M308.082,94.318 L308.082,79.055 L314.464,75.242 L320.839,71.435 L333.596,79.055 L333.596,94.318 L320.839,101.937 L308.082,94.318 Z M281.842,94.318 L281.842,79.055 L288.225,75.242 L294.599,71.435 L307.355,79.055 L307.355,94.318 L294.599,101.937 L281.842,94.318 Z M255.602,94.318 L255.602,79.055 L261.985,75.242 L268.359,71.435 L281.116,79.055 L281.116,94.318 L268.359,101.937 L255.602,94.318 Z M229.361,94.318 L229.361,79.055 L235.744,75.242 L242.119,71.435 L254.876,79.055 L254.876,94.318 L242.119,101.937 L229.361,94.318 Z M203.122,94.318 L203.122,79.055 L209.506,75.242 L215.879,71.435 L228.637,79.055 L228.637,94.318 L215.879,101.937 L203.122,94.318 Z M176.882,94.318 L176.882,91.721 L176.882,80.219 L176.882,79.501 L176.882,79.054 L183.265,75.242 L189.64,71.435 L202.396,79.055 L202.396,94.318 L189.64,101.937 L176.882,94.318 Z M150.642,94.318 L150.642,79.055 L157.025,75.242 L163.399,71.435 L176.156,79.055 L176.156,94.318 L163.399,101.937 L150.642,94.318 Z M124.402,94.318 L124.402,79.055 L130.784,75.242 L137.159,71.435 L149.917,79.055 L149.917,94.318 L137.159,101.937 L124.402,94.318 Z M98.162,94.318 L98.162,79.055 L104.545,75.242 L110.92,71.435 L123.676,79.055 L123.676,94.318 L110.92,101.937 L98.162,94.318 Z M71.923,94.318 L71.923,79.055 L78.305,75.242 L84.679,71.435 L97.437,79.055 L97.437,94.318 L84.679,101.937 L71.923,94.318 Z M45.682,94.318 L45.682,79.055 L52.065,75.242 L58.35,71.489 L71.017,79.055 L71.017,94.318 L58.35,101.883 L45.682,94.318 Z M19.442,94.318 L19.442,79.055 L25.825,75.242 L32.11,71.489 L44.777,79.055 L44.777,94.318 L32.11,101.883 L19.442,94.318 Z M71.181,79.045 L71.196,79.055 C71.195,83.441 71.195,87.828 71.196,92.213 L71.196,92.213 L71.196,94.318 L71.181,94.327 L71.181,79.045 Z M321.202,117.864 L321.202,102.602 L327.585,98.789 L333.958,94.983 L346.715,102.602 L346.715,117.864 L333.958,125.484 L321.202,117.864 Z M294.961,117.864 L294.961,102.602 L301.344,98.789 L307.719,94.983 L320.475,102.602 L320.475,117.864 L307.719,125.484 L294.961,117.864 Z M268.721,117.864 L268.721,102.602 L275.104,98.789 L281.479,94.983 L294.235,102.602 L294.235,117.864 L281.479,125.484 L268.721,117.864 Z M242.481,117.864 L242.481,102.602 L248.864,98.789 L255.238,94.983 L267.996,102.602 L267.996,117.864 L255.238,125.484 L242.481,117.864 Z M216.241,117.864 L216.241,102.602 L222.624,98.789 L228.999,94.983 L241.755,102.602 L241.755,117.864 L228.999,125.484 L216.241,117.864 Z M190.002,117.864 L190.002,115.006 L190.002,103.7 L190.002,102.695 L190.002,102.602 L196.384,98.789 L202.759,94.983 L215.516,102.602 L215.516,117.864 L202.759,125.484 L190.002,117.864 Z M163.761,117.864 L163.761,102.602 L170.144,98.789 L176.519,94.983 L189.275,102.602 L189.275,117.864 L176.519,125.484 L163.761,117.864 Z M137.522,117.864 L137.522,102.602 L143.904,98.789 L150.278,94.983 L163.036,102.602 L163.036,117.864 L150.278,125.484 L137.522,117.864 Z M111.281,117.864 L111.281,102.602 L117.664,98.789 L124.039,94.983 L136.796,102.602 L136.796,117.864 L124.039,125.484 L111.281,117.864 Z M85.042,117.864 L85.042,102.602 L91.425,98.789 L97.799,94.983 L110.555,102.602 L110.555,117.864 L97.799,125.484 L85.042,117.864 Z M58.802,117.864 L58.802,102.602 L65.185,98.789 L71.559,94.983 L84.316,102.602 C84.314,106.988 84.316,111.374 84.316,115.761 L84.316,115.761 L84.316,117.864 L71.559,125.484 L58.802,117.864 Z M32.562,117.864 L32.562,102.602 L38.945,98.789 L45.23,95.036 L57.897,102.602 L57.897,117.864 L45.23,125.43 L32.562,117.864 Z M6.322,117.864 L6.322,102.602 L12.704,98.789 L18.99,95.036 L31.657,102.602 L31.657,117.864 L18.99,125.43 L6.322,117.864 Z" id="path-1"></path>
    </defs>
    <g id="Page-1" stroke="none" stroke-width="1" fill="none" fill-rule="evenodd">
        <g id="Artboard-Copy" transform="translate(-58.000000, -25.000000)">
            <g id="img_pattern_honeycomb" transform="translate(58.000000, 25.000000)">
                <mask id="mask-2" fill="white">
                    <use xlink:href="#path-1"></use>
                </mask>
                <g id="Clip-2"></g>
                <polygon id="Fill-1" fill="#015EA4" mask="url(#mask-2)" points="0 126.326 2.675 126.326 2.675 -1.42108547e-14 0 -1.42108547e-14"></polygon>
                <polygon id="Fill-3" fill="#075EA4" mask="url(#mask-2)" points="1.447 126.326 5.131 126.326 5.131 -1.42108547e-14 1.447 -1.42108547e-14"></polygon>
                <polygon id="Fill-4" fill="#055FA4" mask="url(#mask-2)" points="3.903 126.326 7.587 126.326 7.587 -1.42108547e-14 3.903 -1.42108547e-14"></polygon>
                <polygon id="Fill-5" fill="#055FA4" mask="url(#mask-2)" points="6.359 126.326 10.043 126.326 10.043 -1.42108547e-14 6.359 -1.42108547e-14"></polygon>
                <polygon id="Fill-6" fill="#025FA5" mask="url(#mask-2)" points="8.815 126.326 12.499 126.326 12.499 -1.42108547e-14 8.815 -1.42108547e-14"></polygon>
                <polygon id="Fill-7" fill="#025FA5" mask="url(#mask-2)" points="11.271 126.326 14.955 126.326 14.955 -1.42108547e-14 11.271 -1.42108547e-14"></polygon>
                <polygon id="Fill-8" fill="#0660A5" mask="url(#mask-2)" points="13.727 126.326 17.411 126.326 17.411 -1.42108547e-14 13.727 -1.42108547e-14"></polygon>
                <polygon id="Fill-9" fill="#0660A5" mask="url(#mask-2)" points="16.183 126.326 19.867 126.326 19.867 -1.42108547e-14 16.183 -1.42108547e-14"></polygon>
                <polygon id="Fill-10" fill="#0461A5" mask="url(#mask-2)" points="18.639 126.326 22.323 126.326 22.323 -1.42108547e-14 18.639 -1.42108547e-14"></polygon>
                <polygon id="Fill-11" fill="#0261A6" mask="url(#mask-2)" points="21.095 126.326 24.779 126.326 24.779 -1.42108547e-14 21.095 -1.42108547e-14"></polygon>
                <polygon id="Fill-12" fill="#0261A6" mask="url(#mask-2)" points="23.551 126.326 27.235 126.326 27.235 -1.42108547e-14 23.551 -1.42108547e-14"></polygon>
                <polygon id="Fill-13" fill="#0562A6" mask="url(#mask-2)" points="26.007 126.326 29.691 126.326 29.691 -1.42108547e-14 26.007 -1.42108547e-14"></polygon>
                <polygon id="Fill-14" fill="#0562A6" mask="url(#mask-2)" points="28.463 126.326 32.147 126.326 32.147 -1.42108547e-14 28.463 -1.42108547e-14"></polygon>
                <polygon id="Fill-15" fill="#0362A7" mask="url(#mask-2)" points="30.919 126.326 34.603 126.326 34.603 -1.42108547e-14 30.919 -1.42108547e-14"></polygon>
                <polygon id="Fill-16" fill="#0362A7" mask="url(#mask-2)" points="33.375 126.326 37.059 126.326 37.059 -1.42108547e-14 33.375 -1.42108547e-14"></polygon>
                <polygon id="Fill-17" fill="#0063A8" mask="url(#mask-2)" points="35.831 126.326 39.515 126.326 39.515 -1.42108547e-14 35.831 -1.42108547e-14"></polygon>
                <polygon id="Fill-18" fill="#0663A8" mask="url(#mask-2)" points="38.287 126.326 41.971 126.326 41.971 -1.42108547e-14 38.287 -1.42108547e-14"></polygon>
                <polygon id="Fill-19" fill="#0464A8" mask="url(#mask-2)" points="40.743 126.326 44.427 126.326 44.427 -1.42108547e-14 40.743 -1.42108547e-14"></polygon>
                <polygon id="Fill-20" fill="#0264A9" mask="url(#mask-2)" points="43.199 126.326 46.883 126.326 46.883 -1.42108547e-14 43.199 -1.42108547e-14"></polygon>
                <polygon id="Fill-21" fill="#0264A9" mask="url(#mask-2)" points="45.655 126.326 49.34 126.326 49.34 -1.42108547e-14 45.655 -1.42108547e-14"></polygon>
                <polygon id="Fill-22" fill="#0065A9" mask="url(#mask-2)" points="48.111 126.326 51.795 126.326 51.795 -1.42108547e-14 48.111 -1.42108547e-14"></polygon>
                <polygon id="Fill-23" fill="#0665A9" mask="url(#mask-2)" points="50.567 126.326 54.251 126.326 54.251 -1.42108547e-14 50.567 -1.42108547e-14"></polygon>
                <polygon id="Fill-24" fill="#0365AA" mask="url(#mask-2)" points="53.023 126.326 56.707 126.326 56.707 -1.42108547e-14 53.023 -1.42108547e-14"></polygon>
                <polygon id="Fill-25" fill="#0365AA" mask="url(#mask-2)" points="55.479 126.326 59.163 126.326 59.163 -1.42108547e-14 55.479 -1.42108547e-14"></polygon>
                <polygon id="Fill-26" fill="#0166AA" mask="url(#mask-2)" points="57.935 126.326 61.619 126.326 61.619 -1.42108547e-14 57.935 -1.42108547e-14"></polygon>
                <polygon id="Fill-27" fill="#0166AA" mask="url(#mask-2)" points="60.391 126.326 64.075 126.326 64.075 -1.42108547e-14 60.391 -1.42108547e-14"></polygon>
                <polygon id="Fill-28" fill="#0567AA" mask="url(#mask-2)" points="62.847 126.326 66.531 126.326 66.531 -1.42108547e-14 62.847 -1.42108547e-14"></polygon>
                <polygon id="Fill-29" fill="#0267AB" mask="url(#mask-2)" points="65.303 126.326 68.987 126.326 68.987 -1.42108547e-14 65.303 -1.42108547e-14"></polygon>
                <polygon id="Fill-30" fill="#0267AB" mask="url(#mask-2)" points="67.759 126.326 71.444 126.326 71.444 -1.42108547e-14 67.759 -1.42108547e-14"></polygon>
                <polygon id="Fill-31" fill="#0068AC" mask="url(#mask-2)" points="70.215 126.326 73.899 126.326 73.899 -1.42108547e-14 70.215 -1.42108547e-14"></polygon>
                <polygon id="Fill-32" fill="#0068AC" mask="url(#mask-2)" points="72.671 126.326 76.355 126.326 76.355 -1.42108547e-14 72.671 -1.42108547e-14"></polygon>
                <polygon id="Fill-33" fill="#0369AD" mask="url(#mask-2)" points="75.127 126.326 78.811 126.326 78.811 -1.42108547e-14 75.127 -1.42108547e-14"></polygon>
                <polygon id="Fill-34" fill="#0369AD" mask="url(#mask-2)" points="77.583 126.326 81.267 126.326 81.267 -1.42108547e-14 77.583 -1.42108547e-14"></polygon>
                <polygon id="Fill-35" fill="#0169AD" mask="url(#mask-2)" points="80.039 126.326 83.723 126.326 83.723 -1.42108547e-14 80.039 -1.42108547e-14"></polygon>
                <polygon id="Fill-36" fill="#0169AD" mask="url(#mask-2)" points="82.495 126.326 86.179 126.326 86.179 -1.42108547e-14 82.495 -1.42108547e-14"></polygon>
                <polygon id="Fill-37" fill="#006AAE" mask="url(#mask-2)" points="84.951 126.326 88.635 126.326 88.635 -1.42108547e-14 84.951 -1.42108547e-14"></polygon>
                <polygon id="Fill-38" fill="#036BAE" mask="url(#mask-2)" points="87.407 126.326 91.091 126.326 91.091 -1.42108547e-14 87.407 -1.42108547e-14"></polygon>
                <polygon id="Fill-39" fill="#036BAE" mask="url(#mask-2)" points="89.863 126.326 93.548 126.326 93.548 -1.42108547e-14 89.863 -1.42108547e-14"></polygon>
                <polygon id="Fill-40" fill="#006BAE" mask="url(#mask-2)" points="92.319 126.326 96.003 126.326 96.003 -1.42108547e-14 92.319 -1.42108547e-14"></polygon>
                <polygon id="Fill-41" fill="#006BAE" mask="url(#mask-2)" points="94.775 126.326 98.459 126.326 98.459 -1.42108547e-14 94.775 -1.42108547e-14"></polygon>
                <polygon id="Fill-42" fill="#006CAF" mask="url(#mask-2)" points="97.231 126.326 100.915 126.326 100.915 -1.42108547e-14 97.231 -1.42108547e-14"></polygon>
                <polygon id="Fill-43" fill="#046CAF" mask="url(#mask-2)" points="99.687 126.326 103.371 126.326 103.371 -1.42108547e-14 99.687 -1.42108547e-14"></polygon>
                <polygon id="Fill-44" fill="#026CAF" mask="url(#mask-2)" points="102.143 126.326 105.827 126.326 105.827 -1.42108547e-14 102.143 -1.42108547e-14"></polygon>
                <polygon id="Fill-45" fill="#026CAF" mask="url(#mask-2)" points="104.599 126.326 108.283 126.326 108.283 -1.42108547e-14 104.599 -1.42108547e-14"></polygon>
                <polygon id="Fill-46" fill="#006DB0" mask="url(#mask-2)" points="107.055 126.326 110.739 126.326 110.739 -1.42108547e-14 107.055 -1.42108547e-14"></polygon>
                <polygon id="Fill-47" fill="#006EB1" mask="url(#mask-2)" points="109.511 126.326 113.195 126.326 113.195 -1.42108547e-14 109.511 -1.42108547e-14"></polygon>
                <polygon id="Fill-48" fill="#046EB1" mask="url(#mask-2)" points="111.967 126.326 115.652 126.326 115.652 -1.42108547e-14 111.967 -1.42108547e-14"></polygon>
                <polygon id="Fill-49" fill="#016EB1" mask="url(#mask-2)" points="114.423 126.326 118.107 126.326 118.107 -1.42108547e-14 114.423 -1.42108547e-14"></polygon>
                <polygon id="Fill-50" fill="#016EB1" mask="url(#mask-2)" points="116.879 126.326 120.563 126.326 120.563 -1.42108547e-14 116.879 -1.42108547e-14"></polygon>
                <polygon id="Fill-51" fill="#006FB2" mask="url(#mask-2)" points="119.335 126.326 123.019 126.326 123.019 -1.42108547e-14 119.335 -1.42108547e-14"></polygon>
                <polygon id="Fill-52" fill="#006FB2" mask="url(#mask-2)" points="121.791 126.326 125.475 126.326 125.475 -1.42108547e-14 121.791 -1.42108547e-14"></polygon>
                <polygon id="Fill-53" fill="#0370B2" mask="url(#mask-2)" points="124.247 126.326 127.931 126.326 127.931 -1.42108547e-14 124.247 -1.42108547e-14"></polygon>
                <polygon id="Fill-54" fill="#0370B2" mask="url(#mask-2)" points="126.703 126.326 130.387 126.326 130.387 -1.42108547e-14 126.703 -1.42108547e-14"></polygon>
                <polygon id="Fill-55" fill="#0170B2" mask="url(#mask-2)" points="129.159 126.326 132.843 126.326 132.843 -1.42108547e-14 129.159 -1.42108547e-14"></polygon>
                <polygon id="Fill-56" fill="#0071B3" mask="url(#mask-2)" points="131.615 126.326 135.3 126.326 135.3 -1.42108547e-14 131.615 -1.42108547e-14"></polygon>
                <polygon id="Fill-57" fill="#0071B3" mask="url(#mask-2)" points="134.071 126.326 137.755 126.326 137.755 -1.42108547e-14 134.071 -1.42108547e-14"></polygon>
                <polygon id="Fill-58" fill="#0371B3" mask="url(#mask-2)" points="136.527 126.326 140.211 126.326 140.211 -1.42108547e-14 136.527 -1.42108547e-14"></polygon>
                <polygon id="Fill-59" fill="#0371B3" mask="url(#mask-2)" points="138.983 126.326 142.667 126.326 142.667 -1.42108547e-14 138.983 -1.42108547e-14"></polygon>
                <polygon id="Fill-60" fill="#0072B4" mask="url(#mask-2)" points="141.439 126.326 145.123 126.326 145.123 -1.42108547e-14 141.439 -1.42108547e-14"></polygon>
                <polygon id="Fill-61" fill="#0072B4" mask="url(#mask-2)" points="143.895 126.326 147.579 126.326 147.579 -1.42108547e-14 143.895 -1.42108547e-14"></polygon>
                <polygon id="Fill-62" fill="#0072B5" mask="url(#mask-2)" points="146.351 126.326 150.035 126.326 150.035 -1.42108547e-14 146.351 -1.42108547e-14"></polygon>
                <polygon id="Fill-63" fill="#0473B5" mask="url(#mask-2)" points="148.807 126.326 152.491 126.326 152.491 -1.42108547e-14 148.807 -1.42108547e-14"></polygon>
                <polygon id="Fill-64" fill="#0273B5" mask="url(#mask-2)" points="151.263 126.326 154.947 126.326 154.947 -1.42108547e-14 151.263 -1.42108547e-14"></polygon>
                <polygon id="Fill-65" fill="#0074B6" mask="url(#mask-2)" points="153.719 126.326 157.404 126.326 157.404 -1.42108547e-14 153.719 -1.42108547e-14"></polygon>
                <polygon id="Fill-66" fill="#0074B6" mask="url(#mask-2)" points="156.175 126.326 159.859 126.326 159.859 -1.42108547e-14 156.175 -1.42108547e-14"></polygon>
                <polygon id="Fill-67" fill="#0074B6" mask="url(#mask-2)" points="158.631 126.326 162.315 126.326 162.315 -1.42108547e-14 158.631 -1.42108547e-14"></polygon>
                <polygon id="Fill-68" fill="#0474B6" mask="url(#mask-2)" points="161.087 126.326 164.771 126.326 164.771 -1.42108547e-14 161.087 -1.42108547e-14"></polygon>
                <polygon id="Fill-69" fill="#0175B6" mask="url(#mask-2)" points="163.543 126.326 167.227 126.326 167.227 -1.42108547e-14 163.543 -1.42108547e-14"></polygon>
                <polygon id="Fill-70" fill="#0175B6" mask="url(#mask-2)" points="165.999 126.326 169.683 126.326 169.683 -1.42108547e-14 165.999 -1.42108547e-14"></polygon>
                <polygon id="Fill-71" fill="#0474B6" mask="url(#mask-2)" points="168.455 126.326 172.139 126.326 172.139 -1.42108547e-14 168.455 -1.42108547e-14"></polygon>
                <polygon id="Fill-72" fill="#0474B6" mask="url(#mask-2)" points="170.911 126.326 174.595 126.326 174.595 -1.42108547e-14 170.911 -1.42108547e-14"></polygon>
                <polygon id="Fill-73" fill="#0074B6" mask="url(#mask-2)" points="173.367 126.326 177.051 126.326 177.051 -1.42108547e-14 173.367 -1.42108547e-14"></polygon>
                <polygon id="Fill-74" fill="#0074B6" mask="url(#mask-2)" points="175.823 126.326 179.507 126.326 179.507 -1.42108547e-14 175.823 -1.42108547e-14"></polygon>
                <polygon id="Fill-75" fill="#0273B5" mask="url(#mask-2)" points="178.279 126.326 181.963 126.326 181.963 -1.42108547e-14 178.279 -1.42108547e-14"></polygon>
                <polygon id="Fill-76" fill="#0273B5" mask="url(#mask-2)" points="180.735 126.326 184.419 126.326 184.419 -1.42108547e-14 180.735 -1.42108547e-14"></polygon>
                <polygon id="Fill-77" fill="#0473B5" mask="url(#mask-2)" points="183.191 126.326 186.875 126.326 186.875 -1.42108547e-14 183.191 -1.42108547e-14"></polygon>
                <polygon id="Fill-78" fill="#0072B4" mask="url(#mask-2)" points="185.647 126.326 189.331 126.326 189.331 -1.42108547e-14 185.647 -1.42108547e-14"></polygon>
                <polygon id="Fill-79" fill="#0072B4" mask="url(#mask-2)" points="188.103 126.326 191.787 126.326 191.787 -1.42108547e-14 188.103 -1.42108547e-14"></polygon>
                <polygon id="Fill-80" fill="#0371B3" mask="url(#mask-2)" points="190.559 126.326 194.243 126.326 194.243 -1.42108547e-14 190.559 -1.42108547e-14"></polygon>
                <polygon id="Fill-81" fill="#0371B3" mask="url(#mask-2)" points="193.015 126.326 196.699 126.326 196.699 -1.42108547e-14 193.015 -1.42108547e-14"></polygon>
                <polygon id="Fill-82" fill="#0571B3" mask="url(#mask-2)" points="195.471 126.326 199.155 126.326 199.155 -1.42108547e-14 195.471 -1.42108547e-14"></polygon>
                <polygon id="Fill-83" fill="#0071B3" mask="url(#mask-2)" points="197.927 126.326 201.611 126.326 201.611 -1.42108547e-14 197.927 -1.42108547e-14"></polygon>
                <polygon id="Fill-84" fill="#0170B2" mask="url(#mask-2)" points="200.383 126.326 204.067 126.326 204.067 -1.42108547e-14 200.383 -1.42108547e-14"></polygon>
                <polygon id="Fill-85" fill="#0170B2" mask="url(#mask-2)" points="202.839 126.326 206.523 126.326 206.523 -1.42108547e-14 202.839 -1.42108547e-14"></polygon>
                <polygon id="Fill-86" fill="#0370B2" mask="url(#mask-2)" points="205.295 126.326 208.98 126.326 208.98 -1.42108547e-14 205.295 -1.42108547e-14"></polygon>
                <polygon id="Fill-87" fill="#0370B2" mask="url(#mask-2)" points="207.751 126.326 211.435 126.326 211.435 -1.42108547e-14 207.751 -1.42108547e-14"></polygon>
                <polygon id="Fill-88" fill="#006FB2" mask="url(#mask-2)" points="210.207 126.326 213.891 126.326 213.891 -1.42108547e-14 210.207 -1.42108547e-14"></polygon>
                <polygon id="Fill-89" fill="#006FB2" mask="url(#mask-2)" points="212.663 126.326 216.347 126.326 216.347 -1.42108547e-14 212.663 -1.42108547e-14"></polygon>
                <polygon id="Fill-90" fill="#016EB1" mask="url(#mask-2)" points="215.119 126.326 218.803 126.326 218.803 -1.42108547e-14 215.119 -1.42108547e-14"></polygon>
                <polygon id="Fill-91" fill="#016EB1" mask="url(#mask-2)" points="217.575 126.326 221.259 126.326 221.259 -1.42108547e-14 217.575 -1.42108547e-14"></polygon>
                <polygon id="Fill-92" fill="#046EB1" mask="url(#mask-2)" points="220.031 126.326 223.715 126.326 223.715 -1.42108547e-14 220.031 -1.42108547e-14"></polygon>
                <polygon id="Fill-93" fill="#046EB1" mask="url(#mask-2)" points="222.487 126.326 226.171 126.326 226.171 -1.42108547e-14 222.487 -1.42108547e-14"></polygon>
                <polygon id="Fill-94" fill="#006DB0" mask="url(#mask-2)" points="224.943 126.326 228.627 126.326 228.627 -1.42108547e-14 224.943 -1.42108547e-14"></polygon>
                <polygon id="Fill-95" fill="#006DB0" mask="url(#mask-2)" points="227.399 126.326 231.084 126.326 231.084 -1.42108547e-14 227.399 -1.42108547e-14"></polygon>
                <polygon id="Fill-96" fill="#026CAF" mask="url(#mask-2)" points="229.855 126.326 233.539 126.326 233.539 -1.42108547e-14 229.855 -1.42108547e-14"></polygon>
                <polygon id="Fill-97" fill="#046CAF" mask="url(#mask-2)" points="232.311 126.326 235.995 126.326 235.995 -1.42108547e-14 232.311 -1.42108547e-14"></polygon>
                <polygon id="Fill-98" fill="#046CAF" mask="url(#mask-2)" points="234.767 126.326 238.451 126.326 238.451 -1.42108547e-14 234.767 -1.42108547e-14"></polygon>
                <polygon id="Fill-99" fill="#006BAE" mask="url(#mask-2)" points="237.223 126.326 240.907 126.326 240.907 -1.42108547e-14 237.223 -1.42108547e-14"></polygon>
                <polygon id="Fill-100" fill="#006BAE" mask="url(#mask-2)" points="239.679 126.326 243.363 126.326 243.363 -1.42108547e-14 239.679 -1.42108547e-14"></polygon>
                <polygon id="Fill-101" fill="#036BAE" mask="url(#mask-2)" points="242.135 126.326 245.819 126.326 245.819 -1.42108547e-14 242.135 -1.42108547e-14"></polygon>
                <polygon id="Fill-102" fill="#036BAE" mask="url(#mask-2)" points="244.591 126.326 248.275 126.326 248.275 -1.42108547e-14 244.591 -1.42108547e-14"></polygon>
                <polygon id="Fill-103" fill="#056AAE" mask="url(#mask-2)" points="247.047 126.326 250.731 126.326 250.731 -1.42108547e-14 247.047 -1.42108547e-14"></polygon>
                <polygon id="Fill-104" fill="#006AAE" mask="url(#mask-2)" points="249.503 126.326 253.187 126.326 253.187 -1.42108547e-14 249.503 -1.42108547e-14"></polygon>
                <polygon id="Fill-105" fill="#0169AD" mask="url(#mask-2)" points="251.959 126.326 255.643 126.326 255.643 -1.42108547e-14 251.959 -1.42108547e-14"></polygon>
                <polygon id="Fill-106" fill="#0169AD" mask="url(#mask-2)" points="254.415 126.326 258.099 126.326 258.099 -1.42108547e-14 254.415 -1.42108547e-14"></polygon>
                <polygon id="Fill-107" fill="#0369AD" mask="url(#mask-2)" points="256.871 126.326 260.555 126.326 260.555 -1.42108547e-14 256.871 -1.42108547e-14"></polygon>
                <polygon id="Fill-108" fill="#0369AD" mask="url(#mask-2)" points="259.327 126.326 263.011 126.326 263.011 -1.42108547e-14 259.327 -1.42108547e-14"></polygon>
                <polygon id="Fill-109" fill="#0068AC" mask="url(#mask-2)" points="261.783 126.326 265.467 126.326 265.467 -1.42108547e-14 261.783 -1.42108547e-14"></polygon>
                <polygon id="Fill-110" fill="#0068AC" mask="url(#mask-2)" points="264.239 126.326 267.923 126.326 267.923 -1.42108547e-14 264.239 -1.42108547e-14"></polygon>
                <polygon id="Fill-111" fill="#0267AB" mask="url(#mask-2)" points="266.695 126.326 270.379 126.326 270.379 -1.42108547e-14 266.695 -1.42108547e-14"></polygon>
                <polygon id="Fill-112" fill="#0267AB" mask="url(#mask-2)" points="269.151 126.326 272.836 126.326 272.836 -1.42108547e-14 269.151 -1.42108547e-14"></polygon>
                <polygon id="Fill-113" fill="#0567AA" mask="url(#mask-2)" points="271.607 126.326 275.292 126.326 275.292 -1.42108547e-14 271.607 -1.42108547e-14"></polygon>
                <polygon id="Fill-114" fill="#0067AA" mask="url(#mask-2)" points="274.063 126.326 277.747 126.326 277.747 -1.42108547e-14 274.063 -1.42108547e-14"></polygon>
                <polygon id="Fill-115" fill="#0166AA" mask="url(#mask-2)" points="276.519 126.326 280.203 126.326 280.203 -1.42108547e-14 276.519 -1.42108547e-14"></polygon>
                <polygon id="Fill-116" fill="#0365AA" mask="url(#mask-2)" points="278.975 126.326 282.659 126.326 282.659 -1.42108547e-14 278.975 -1.42108547e-14"></polygon>
                <polygon id="Fill-117" fill="#0365AA" mask="url(#mask-2)" points="281.431 126.326 285.115 126.326 285.115 -1.42108547e-14 281.431 -1.42108547e-14"></polygon>
                <polygon id="Fill-118" fill="#0665A9" mask="url(#mask-2)" points="283.887 126.326 287.571 126.326 287.571 -1.42108547e-14 283.887 -1.42108547e-14"></polygon>
                <polygon id="Fill-119" fill="#0665A9" mask="url(#mask-2)" points="286.343 126.326 290.027 126.326 290.027 -1.42108547e-14 286.343 -1.42108547e-14"></polygon>
                <polygon id="Fill-120" fill="#0264A9" mask="url(#mask-2)" points="288.799 126.326 292.483 126.326 292.483 -1.42108547e-14 288.799 -1.42108547e-14"></polygon>
                <polygon id="Fill-121" fill="#0264A9" mask="url(#mask-2)" points="291.255 126.326 294.939 126.326 294.939 -1.42108547e-14 291.255 -1.42108547e-14"></polygon>
                <polygon id="Fill-122" fill="#0464A8" mask="url(#mask-2)" points="293.711 126.326 297.396 126.326 297.396 -1.42108547e-14 293.711 -1.42108547e-14"></polygon>
                <polygon id="Fill-123" fill="#0464A8" mask="url(#mask-2)" points="296.167 126.326 299.851 126.326 299.851 -1.42108547e-14 296.167 -1.42108547e-14"></polygon>
                <polygon id="Fill-124" fill="#0663A8" mask="url(#mask-2)" points="298.623 126.326 302.307 126.326 302.307 -1.42108547e-14 298.623 -1.42108547e-14"></polygon>
                <polygon id="Fill-125" fill="#0063A8" mask="url(#mask-2)" points="301.079 126.326 304.764 126.326 304.764 -1.42108547e-14 301.079 -1.42108547e-14"></polygon>
                <polygon id="Fill-126" fill="#0362A7" mask="url(#mask-2)" points="303.535 126.326 307.219 126.326 307.219 -1.42108547e-14 303.535 -1.42108547e-14"></polygon>
                <polygon id="Fill-127" fill="#0362A7" mask="url(#mask-2)" points="305.991 126.326 309.675 126.326 309.675 -1.42108547e-14 305.991 -1.42108547e-14"></polygon>
                <polygon id="Fill-128" fill="#0562A6" mask="url(#mask-2)" points="308.448 126.326 312.132 126.326 312.132 -1.42108547e-14 308.448 -1.42108547e-14"></polygon>
                <polygon id="Fill-129" fill="#0562A6" mask="url(#mask-2)" points="310.903 126.326 314.588 126.326 314.588 -1.42108547e-14 310.903 -1.42108547e-14"></polygon>
                <polygon id="Fill-130" fill="#0261A6" mask="url(#mask-2)" points="313.359 126.326 317.044 126.326 317.044 -1.42108547e-14 313.359 -1.42108547e-14"></polygon>
                <polygon id="Fill-131" fill="#0261A6" mask="url(#mask-2)" points="315.816 126.326 319.5 126.326 319.5 -1.42108547e-14 315.816 -1.42108547e-14"></polygon>
                <polygon id="Fill-132" fill="#0461A5" mask="url(#mask-2)" points="318.271 126.326 321.956 126.326 321.956 -1.42108547e-14 318.271 -1.42108547e-14"></polygon>
                <polygon id="Fill-133" fill="#0461A5" mask="url(#mask-2)" points="320.727 126.326 324.412 126.326 324.412 -1.42108547e-14 320.727 -1.42108547e-14"></polygon>
                <polygon id="Fill-134" fill="#0660A5" mask="url(#mask-2)" points="323.183 126.326 326.868 126.326 326.868 -1.42108547e-14 323.183 -1.42108547e-14"></polygon>
                <polygon id="Fill-135" fill="#025FA5" mask="url(#mask-2)" points="325.639 126.326 329.324 126.326 329.324 -1.42108547e-14 325.639 -1.42108547e-14"></polygon>
                <polygon id="Fill-136" fill="#025FA5" mask="url(#mask-2)" points="328.095 126.326 331.779 126.326 331.779 -1.42108547e-14 328.095 -1.42108547e-14"></polygon>
                <polygon id="Fill-137" fill="#055FA4" mask="url(#mask-2)" points="330.551 126.326 334.235 126.326 334.235 -1.42108547e-14 330.551 -1.42108547e-14"></polygon>
                <polygon id="Fill-138" fill="#055FA4" mask="url(#mask-2)" points="333.007 126.326 336.692 126.326 336.692 -1.42108547e-14 333.007 -1.42108547e-14"></polygon>
                <polygon id="Fill-139" fill="#075EA4" mask="url(#mask-2)" points="335.463 126.326 339.147 126.326 339.147 -1.42108547e-14 335.463 -1.42108547e-14"></polygon>
                <polygon id="Fill-140" fill="#075EA4" mask="url(#mask-2)" points="337.919 126.326 341.603 126.326 341.603 -1.42108547e-14 337.919 -1.42108547e-14"></polygon>
                <polygon id="Fill-141" fill="#045DA3" mask="url(#mask-2)" points="340.375 126.326 344.059 126.326 344.059 -1.42108547e-14 340.375 -1.42108547e-14"></polygon>
                <polygon id="Fill-142" fill="#045DA3" mask="url(#mask-2)" points="342.831 126.326 346.515 126.326 346.515 -1.42108547e-14 342.831 -1.42108547e-14"></polygon>
                <polygon id="Fill-143" fill="#065DA3" mask="url(#mask-2)" points="345.287 126.326 348.971 126.326 348.971 -1.42108547e-14 345.287 -1.42108547e-14"></polygon>
                <polygon id="Fill-144" fill="#065DA2" mask="url(#mask-2)" points="347.743 126.326 351.427 126.326 351.427 -1.42108547e-14 347.743 -1.42108547e-14"></polygon>
                <polygon id="Fill-145" fill="#085CA2" mask="url(#mask-2)" points="350.2 126.326 353.884 126.326 353.884 -1.42108547e-14 350.2 -1.42108547e-14"></polygon>
                <polygon id="Fill-146" fill="#035CA2" mask="url(#mask-2)" points="352.656 126.326 356.34 126.326 356.34 -1.42108547e-14 352.656 -1.42108547e-14"></polygon>
                <polygon id="Fill-147" fill="#055BA1" mask="url(#mask-2)" points="355.111 126.326 358.796 126.326 358.796 -1.42108547e-14 355.111 -1.42108547e-14"></polygon>
                <polygon id="Fill-148" fill="#055BA1" mask="url(#mask-2)" points="357.567 126.326 361.252 126.326 361.252 -1.42108547e-14 357.567 -1.42108547e-14"></polygon>
                <polygon id="Fill-149" fill="#075BA1" mask="url(#mask-2)" points="360.001 126.326 360.024 126.326 360.024 -1.42108547e-14 360.001 -1.42108547e-14"></polygon>
            </g>
        </g>
    </g>
</svg>