<?xml version="1.0" encoding="UTF-8"?>
<svg width="208px" height="411px" viewBox="0 0 208 411" version="1.1" xmlns="http://www.w3.org/2000/svg" xmlns:xlink="http://www.w3.org/1999/xlink">
    <!-- Generator: Sketch 61.2 (89653) - https://sketch.com -->
    <title>Artboard</title>
    <desc>Created with Sketch.</desc>
    <defs>
        <path d="M41.9182316,0.39 C64.9522412,0.452311814 83.605,19.1454226 83.605,42.194 L83.605,42.194 L83.6010051,42.7779066 C83.337629,62.0154045 70.07945,78.11424 52.205,82.692 L52.205,82.692 L52.205,110.188 L52.7452284,110.330267 C70.5255655,115.140852 83.605,131.38496 83.605,150.686 L83.605,150.686 L83.6010051,151.269936 C83.337629,170.508385 70.07945,186.60624 52.205,191.184 L52.205,191.184 L52.205,219.419 L52.7452284,219.561238 C70.5255655,224.370892 83.605,240.61695 83.605,259.917 L83.605,259.917 L83.6010051,260.500906 C83.337629,279.738385 70.07945,295.83624 52.205,300.414 L52.205,300.414 L52.205,328.833 L52.7452284,328.975238 C70.5255655,333.784872 83.605,350.02996 83.605,369.331 L83.605,369.331 L83.6010051,369.914907 C83.337629,389.152404 70.07945,405.25123 52.205,409.828 L52.205,409.828 L51.6222698,409.95673 C42.3427901,411.948897 35.1875714,410.723367 30.511,409.589 L30.511,409.589 L29.9843858,409.437829 C12.6531109,404.338558 0.001,388.31326 0.001,369.331 L0.001,369.331 L0.004864483,368.756693 C0.2596492,349.834963 13.08601,333.94974 30.511,329.073 L30.511,329.073 L30.511,300.175 L29.9843858,300.023829 C12.6531109,294.924558 0.001,278.89926 0.001,259.917 L0.001,259.917 L0.004864483,259.342693 C0.2596492,240.420983 13.08601,224.53672 30.511,219.658 L30.511,219.658 L30.511,190.945 L29.9843858,190.793799 C12.6531109,185.693538 0.001,169.66727 0.001,150.686 L0.001,150.686 L0.004864483,150.111693 C0.2596492,131.189983 13.08601,115.30573 30.511,110.428 L30.511,110.428 L30.511,82.452 L29.9843858,82.3008289 C12.6531109,77.2015385 0.001,61.17527 0.001,42.194 L0.001,42.194 L0.006600157,41.5027153 C0.3757372,18.7345317 18.94687,0.39 41.803,0.39 L41.688,0.39 L41.9182316,0.39 Z" id="path-1"></path>
        <linearGradient x1="-19.4848626%" y1="49.9999619%" x2="86.5490292%" y2="49.9999619%" id="linearGradient-3">
            <stop stop-color="#4BB6E8" offset="0%"></stop>
            <stop stop-color="#DBEBF9" offset="100%"></stop>
        </linearGradient>
        <linearGradient x1="49.9987728%" y1="2.05200587%" x2="50.0012252%" y2="97.6541846%" id="linearGradient-4">
            <stop stop-color="#50B8E9" offset="0%"></stop>
            <stop stop-color="#80CAF0" offset="100%"></stop>
        </linearGradient>
        <path d="M34.825,0.281 C31.845,0.281 28.816,0.666 25.801,1.474 L25.801,1.474 C7.244,6.447 -3.767,25.518 1.204,44.075 L1.204,44.075 C6.177,62.63 25.25,73.641 43.805,68.67 L43.805,68.67 C62.361,63.697 73.373,44.625 68.401,26.069 L68.401,26.069 C64.237,10.53 50.183,0.281 34.827,0.281 L34.827,0.281 C34.826,0.281 34.826,0.281 34.825,0.281" id="path-5"></path>
        <linearGradient x1="73.9617606%" y1="87.901406%" x2="15.5798786%" y2="-4.44547102%" id="linearGradient-7">
            <stop stop-color="#0070BA" offset="0%"></stop>
            <stop stop-color="#90D8F7" offset="100%"></stop>
        </linearGradient>
        <path d="M0.02,35.194 C0.02,54.404 15.592,69.976 34.803,69.976 L34.803,69.976 C54.013,69.976 69.585,54.404 69.585,35.194 L69.585,35.194 C69.585,15.983 54.013,0.41 34.803,0.41 L34.803,0.41 C15.592,0.41 0.02,15.983 0.02,35.194" id="path-8"></path>
        <linearGradient x1="73.9610717%" y1="87.9033942%" x2="15.5808682%" y2="-4.44832718%" id="linearGradient-10">
            <stop stop-color="#0070BA" offset="0%"></stop>
            <stop stop-color="#90D8F7" offset="100%"></stop>
        </linearGradient>
        <path d="M0.02,35.133 C0.02,54.343 15.592,69.915 34.802,69.915 L34.802,69.915 C54.013,69.915 69.585,54.343 69.585,35.133 L69.585,35.133 C69.585,15.923 54.013,0.35 34.802,0.35 L34.802,0.35 C15.592,0.35 0.02,15.923 0.02,35.133" id="path-11"></path>
        <linearGradient x1="73.9617606%" y1="87.9033942%" x2="15.5798786%" y2="-4.44832718%" id="linearGradient-13">
            <stop stop-color="#0070BA" offset="0%"></stop>
            <stop stop-color="#90D8F7" offset="100%"></stop>
        </linearGradient>
        <path d="M0.02,35.012 C0.02,54.222 15.592,69.794 34.803,69.794 L34.803,69.794 C54.013,69.794 69.585,54.222 69.585,35.012 L69.585,35.012 C69.585,15.801 54.013,0.228 34.803,0.228 L34.803,0.228 C15.592,0.228 0.02,15.801 0.02,35.012" id="path-14"></path>
    </defs>
    <g id="Artboard" stroke="none" stroke-width="1" fill="none" fill-rule="evenodd">
        <g id="Group-52" transform="translate(0.000000, -1.000000)">
            <g id="Group-3" opacity="0.55" transform="translate(0.000000, 0.609000)">
                <mask id="mask-2" fill="white">
                    <use xlink:href="#path-1"></use>
                </mask>
                <g id="Clip-2"></g>
                <polygon id="Fill-1" fill="url(#linearGradient-3)" mask="url(#mask-2)" points="0 412 83.605 412 83.605 0.391 0 0.391"></polygon>
            </g>
            <polygon id="Fill-4" fill="url(#linearGradient-4)" points="39.284 374.579 44.321 374.579 44.321 74.021 39.284 74.021"></polygon>
            <g id="Group-8" transform="translate(7.000000, 225.609000)">
                <mask id="mask-6" fill="white">
                    <use xlink:href="#path-5"></use>
                </mask>
                <g id="Clip-7"></g>
                <path d="M34.825,0.281 C31.845,0.281 28.816,0.666 25.801,1.474 L25.801,1.474 C7.244,6.447 -3.767,25.518 1.204,44.075 L1.204,44.075 C6.177,62.63 25.25,73.641 43.805,68.67 L43.805,68.67 C62.361,63.697 73.373,44.625 68.401,26.069 L68.401,26.069 C64.237,10.53 50.183,0.281 34.827,0.281 L34.827,0.281 C34.826,0.281 34.826,0.281 34.825,0.281" id="Fill-6" fill="url(#linearGradient-7)" mask="url(#mask-6)"></path>
            </g>
            <path d="M33.476,276.8703 C35.406,271.0213 38.348,265.8543 42.671,261.4573 C43.223,260.8973 43.214,259.9943 42.654,259.4433 C42.094,258.8913 41.192,258.9003 40.641,259.4603 C38.271,261.8703 36.217,264.5843 34.529,267.5123 C34.359,267.8063 34.193,268.1023 34.031,268.4003 L33.82,268.7873 L33.584,268.4143 C33.211,267.8223 32.914,267.1863 32.729,266.5093 C32.093,264.1953 32.837,261.9373 34.002,259.9263 C36.65,255.3553 42.128,252.3583 47.027,250.7743 L47.3,250.6863 L47.36,250.9663 C48.444,255.9993 48.567,262.2063 45.918,266.7783 C44.664,268.9463 43.017,270.8943 40.352,271.0403 C39.568,271.0823 38.964,271.7543 39.007,272.5383 C39.049,273.3233 39.721,273.9273 40.505,273.8843 C41.077,273.8523 41.642,273.7653 42.195,273.6173 C43.377,273.3003 44.445,272.7213 45.384,271.9383 C46.618,270.9133 47.584,269.5863 48.384,268.2053 C51.585,262.6783 51.472,254.6723 49.708,248.5983 C49.532,247.8353 48.769,247.3573 48.004,247.5323 C41.912,248.9303 34.714,253.0153 31.538,258.4983 C29.98,261.1863 29.14,264.1983 29.983,267.2643 C30.426,268.8773 31.258,270.2403 32.34,271.4983 L32.446,271.6223 L32.38,271.7713 C31.886,272.9003 31.436,274.0493 31.03,275.2133 L30.913,275.5503 L30.628,275.3343 C27.374,272.8573 25.054,269.4033 23.995,265.4523 C21.364,255.6333 27.212,245.5043 37.032,242.8723 C46.85,240.2423 56.98,246.0903 59.611,255.9093 C60.557,259.4413 60.415,263.1413 59.241,266.6013 C58.988,267.3463 59.386,268.1553 60.129,268.4083 C60.874,268.6613 61.684,268.2633 61.937,267.5183 C63.295,263.5213 63.455,259.2493 62.362,255.1723 C60.891,249.6813 57.369,245.0903 52.445,242.2473 C47.522,239.4053 41.786,238.6503 36.294,240.1213 C30.803,241.5933 26.212,245.1153 23.37,250.0383 C20.527,254.9623 19.772,260.6983 21.244,266.1893 C22.715,271.6813 26.237,276.2713 31.161,279.1143 C36.084,281.9563 41.82,282.7113 47.312,281.2403 C51.061,280.2353 54.468,278.2293 57.156,275.4273 C57.698,274.8613 57.679,273.9563 57.114,273.4133 C56.547,272.8713 55.642,272.8903 55.1,273.4553 C52.773,275.8813 49.822,277.6193 46.575,278.4883 C42.223,279.6543 37.639,279.1893 33.606,277.1833 L33.406,277.0833 L33.476,276.8703 Z" id="Fill-9" fill="#FFFFFF"></path>
            <g id="Group-13" transform="translate(7.000000, 7.609000)">
                <mask id="mask-9" fill="white">
                    <use xlink:href="#path-8"></use>
                </mask>
                <g id="Clip-12"></g>
                <path d="M0.02,35.194 C0.02,54.404 15.592,69.976 34.803,69.976 L34.803,69.976 C54.013,69.976 69.585,54.404 69.585,35.194 L69.585,35.194 C69.585,15.983 54.013,0.41 34.803,0.41 L34.803,0.41 C15.592,0.41 0.02,15.983 0.02,35.194" id="Fill-11" fill="url(#linearGradient-10)" mask="url(#mask-9)"></path>
            </g>
            <path d="M41.8032,63.3913 L42.1582,63.2573 C47.2082,61.3513 51.5202,58.0173 54.6022,53.5843 C57.6842,49.1513 59.3092,43.9513 59.3092,38.5523 L59.3092,27.8433 L41.8032,22.2143 L24.2962,27.8433 L24.2962,38.5523 C24.2962,43.9513 25.9212,49.1513 29.0032,53.5843 C32.0852,58.0163 36.3962,61.3523 41.4472,63.2573 L41.8032,63.3913 Z M53.4402,48.2603 L53.4402,40.9953 L49.5202,40.9953 L49.4972,40.8733 C49.0902,38.7173 47.6262,36.8943 45.6172,36.0223 L45.4452,35.9473 L45.5572,35.7963 C46.1572,34.9863 46.4802,34.0133 46.4802,33.0043 C46.4812,30.4153 44.3752,28.3093 41.7862,28.3093 C39.1982,28.3093 37.0922,30.4153 37.0922,33.0043 C37.0922,34.0153 37.4152,34.9903 38.0192,35.8013 L38.1312,35.9523 L37.9592,36.0273 C35.9562,36.9023 34.4972,38.7223 34.0922,40.8733 L34.0692,40.9953 L30.1662,40.9953 L30.1662,48.2603 L33.9492,48.2603 L33.9492,56.2553 L33.6952,56.0093 C32.5722,54.9173 31.5562,53.7183 30.6612,52.4313 C27.8162,48.3383 26.3162,43.5373 26.3162,38.5523 L26.3162,29.4033 L41.8032,24.2183 L57.2892,29.4033 L57.2892,38.5523 C57.2892,43.5373 55.7892,48.3383 52.9442,52.4313 C52.0382,53.7333 51.0102,54.9463 49.8702,56.0483 L49.6162,56.2933 L49.6162,48.2603 L53.4402,48.2603 Z M36.1702,58.1123 L36.1702,48.2603 L47.3952,48.2603 L47.3952,58.1423 L47.3332,58.1873 C45.6452,59.4243 43.8032,60.4373 41.8582,61.2083 L41.8022,61.2303 L41.7472,61.2083 C39.7862,60.4313 37.9312,59.4073 36.2312,58.1573 L36.1702,58.1123 Z M41.7862,30.5323 C43.1492,30.5323 44.2582,31.6413 44.2582,33.0033 C44.2582,34.3673 43.1502,35.4763 41.7862,35.4763 C40.4232,35.4763 39.3142,34.3673 39.3142,33.0033 C39.3142,31.6413 40.4232,30.5323 41.7862,30.5323 L41.7862,30.5323 Z M40.6032,37.6983 L42.9862,37.6983 C44.9162,37.6983 46.6242,38.9623 47.1952,40.8023 L47.2552,40.9953 L36.3342,40.9953 L36.3942,40.8023 C36.9632,38.9623 38.6722,37.6983 40.6032,37.6983 L40.6032,37.6983 Z M32.3892,46.0383 L51.2172,46.0383 L51.2172,43.2183 L32.3892,43.2183 L32.3892,46.0383 Z" id="Fill-14" fill="#FFFFFF"></path>
            <g id="Group-18" transform="translate(7.000000, 116.609000)">
                <mask id="mask-12" fill="white">
                    <use xlink:href="#path-11"></use>
                </mask>
                <g id="Clip-17"></g>
                <path d="M0.02,35.133 C0.02,54.343 15.592,69.915 34.802,69.915 L34.802,69.915 C54.013,69.915 69.585,54.343 69.585,35.133 L69.585,35.133 C69.585,15.923 54.013,0.35 34.802,0.35 L34.802,0.35 C15.592,0.35 0.02,15.923 0.02,35.133" id="Fill-16" fill="url(#linearGradient-13)" mask="url(#mask-12)"></path>
            </g>
            <path d="M59.2173,157.6901 C58.0723,161.1041 55.9593,164.1181 53.1463,166.3661 C49.8213,169.0231 45.7273,170.4481 41.4733,170.4481 C38.3543,170.4481 35.2963,169.6841 32.5543,168.1941 C30.4973,167.0771 28.6633,165.5781 27.1553,163.7881 L26.9983,163.6021 L29.6303,163.6021 C30.2323,163.6021 30.7193,163.1141 30.7193,162.5131 C30.7193,161.9121 30.2313,161.4241 29.6303,161.4241 L24.8623,161.4241 C24.2613,161.4241 23.7743,161.9121 23.7743,162.5131 L23.7743,167.2811 C23.7743,167.8821 24.2613,168.3701 24.8623,168.3701 C25.4633,168.3701 25.9503,167.8821 25.9503,167.2811 L25.9503,165.7111 L26.1473,165.9231 C27.6963,167.5961 29.5133,169.0111 31.5183,170.0991 C34.5783,171.7621 37.9893,172.6251 41.4733,172.6251 C46.2213,172.6251 50.7893,171.0241 54.4983,168.0601 C58.1783,165.1181 60.7743,161.0151 61.8283,156.4111 C62.0743,155.6361 61.4583,154.7841 60.5803,155.0191 L56.1003,156.2851 L54.5723,150.6901 C54.3003,149.7271 54.0303,148.7631 53.7653,147.7961 C53.5293,146.9331 53.1943,145.9811 53.0583,145.1051 L53.0413,144.9951 L53.1513,144.9761 C53.4893,144.9161 53.8163,144.7951 54.1463,144.7041 L58.4003,143.5291 C59.0573,143.3471 59.6263,142.9171 59.3143,142.1691 C59.2143,141.9311 59.0763,141.6901 58.8413,141.5651 C58.4303,141.3481 57.7673,141.5631 57.3513,141.6861 C56.3413,141.9861 55.3413,142.3111 54.3203,142.5671 C53.6433,142.7371 52.9743,142.9331 52.3023,143.1211 C51.6173,143.3121 50.9073,143.3441 50.7833,144.1851 L50.7663,144.3071 L50.6463,144.2781 C49.0443,143.9031 47.4463,143.5091 45.8423,143.1471 C44.3133,142.8021 42.1553,142.1991 40.6173,142.1991 C39.2303,142.1991 37.7363,142.8231 36.7193,143.7611 C36.2453,144.1971 35.2103,144.1441 34.5963,144.2111 C33.8283,144.2971 33.0633,144.4211 32.2873,144.4411 L32.1833,144.4441 L32.1723,144.3401 C32.0513,143.1971 30.8623,143.1531 29.9763,142.9281 C28.5813,142.5741 27.2073,142.1461 25.8213,141.7571 L25.6743,141.7151 L25.7573,141.5861 C27.3423,139.1391 29.4853,137.0841 31.9983,135.6061 C34.8763,133.9121 38.1363,133.0361 41.4733,133.0361 C44.0053,133.0361 46.5083,133.5401 48.8373,134.5381 C50.2193,135.1301 51.5273,135.8891 52.7273,136.7941 L52.9973,136.9981 L51.0353,136.9981 C50.4353,136.9981 49.9473,137.4851 49.9473,138.0861 C49.9473,138.6871 50.4353,139.1751 51.0353,139.1751 L55.8043,139.1751 C56.4043,139.1751 56.8933,138.6871 56.8933,138.0861 L56.8933,133.3181 C56.8933,132.7171 56.4043,132.2301 55.8043,132.2301 C55.2023,132.2301 54.7153,132.7171 54.7153,133.3181 L54.7153,135.5951 L54.5313,135.4471 C53.0573,134.2651 51.4253,133.2841 49.6883,132.5391 C47.0903,131.4261 44.2993,130.8581 41.4733,130.8581 C37.7483,130.8581 34.1123,131.8441 30.9013,133.7331 C27.6903,135.6221 25.0273,138.3501 23.2153,141.6051 C23.1963,141.6411 23.1783,141.6791 23.1523,141.7351 C23.1093,141.8021 23.0773,141.8751 23.0573,141.9521 C22.8213,142.8311 23.3213,143.1101 24.0993,143.2981 C25.9783,143.7531 27.8923,144.7441 29.7913,144.9821 L29.9063,144.9961 L29.8903,145.1101 C29.7603,145.9761 29.3903,146.8881 29.1663,147.7421 C28.4273,150.5581 27.5423,153.3351 26.8693,156.1681 L26.8413,156.2831 L23.6083,155.3451 C22.9243,155.1471 22.0213,154.8751 21.7733,155.7991 C21.5393,156.6701 22.1453,157.0701 22.8983,157.2841 C24.1483,157.6371 25.4013,157.9771 26.6503,158.3331 C27.3403,158.5291 27.9463,158.6661 28.4073,157.9841 L28.4713,157.8911 L28.5653,157.9551 C31.4163,159.8931 34.0023,162.2041 36.7553,164.2761 C38.0163,165.2231 38.6873,166.1781 40.4043,166.1781 C41.3573,166.1781 42.3743,165.3651 42.6993,164.4891 L42.7383,164.3851 L42.8433,164.4211 C43.2633,164.5671 43.5713,164.7661 44.0333,164.8301 C44.9673,164.9611 45.7303,164.5401 46.3513,163.8721 C46.6373,163.5631 46.7713,163.2181 46.9523,162.8491 L46.9893,162.7731 L47.0723,162.7871 C48.6103,163.0411 50.2083,161.9341 50.3523,160.3521 L50.3603,160.2731 L50.4373,160.2531 C51.8083,159.9021 52.5073,159.3251 52.8773,157.9361 L52.9013,157.8461 L52.9943,157.8521 C53.4453,157.8811 53.8673,157.8721 54.2983,157.7231 L54.4143,157.6831 L54.4453,157.8031 C54.7583,159.0351 56.5093,158.2281 57.3063,158.0251 C57.9003,157.8741 58.4893,157.7141 59.0783,157.5451 L59.2853,157.4851 L59.2173,157.6901 Z M53.7383,155.7601 C52.3483,156.1911 50.7303,154.3661 49.7333,153.6051 C48.4123,152.5971 40.2893,146.0821 39.6553,145.9411 C39.0333,145.9411 38.5723,146.2601 38.5723,146.9181 C38.5723,147.4591 38.8733,147.8931 39.3613,148.1161 L39.4783,148.1691 L39.4103,148.2781 C38.5523,149.6601 36.8603,150.4871 35.2963,149.7871 L35.1963,149.7421 L35.2383,149.6411 C35.6623,148.6011 36.5553,147.3921 37.1453,146.3971 C38.7763,143.6431 40.9443,144.1371 43.6273,144.7471 L51.1263,146.4511 C51.5753,146.6081 51.4633,146.9711 51.5613,147.3311 L53.8423,155.7281 L53.7383,155.7601 Z M29.0943,155.7551 C29.2313,154.5481 29.8063,152.9601 30.1403,151.7501 C30.5073,150.4121 30.8833,149.0771 31.2623,147.7431 C31.3623,147.3901 31.4913,147.0551 31.5303,146.6871 L31.5393,146.5971 L34.9223,146.2101 L34.7933,146.4111 C34.4593,146.9321 32.7983,149.5641 32.7983,150.0191 C32.7983,151.0911 34.7473,151.8381 35.6133,151.9881 C37.6393,152.3361 39.4703,151.4741 40.7123,149.8781 C40.8093,149.7551 40.9123,149.6391 41.0103,149.5181 L41.0773,149.4361 L41.1633,149.4961 C41.9553,150.0501 42.6733,150.6991 43.4483,151.2781 L48.5193,155.1841 C48.9463,155.5131 50.7293,156.7941 50.8733,157.2141 C50.8683,157.7011 50.7303,158.2381 50.1343,158.2381 C49.7203,158.2381 48.9033,157.4991 48.5723,157.2301 C47.8233,156.6171 47.0363,156.0531 46.2653,155.4681 C45.6293,154.9851 44.4223,153.7481 43.6123,153.7481 C43.0803,153.7481 42.6363,154.1921 42.6363,154.7231 C42.6363,155.5471 46.3663,158.0441 47.0883,158.6411 C47.4183,158.9141 48.4093,159.5091 48.4093,159.9621 C48.4093,160.1801 48.2283,160.5111 48.0613,160.6481 C47.6423,160.9911 47.0723,160.6351 46.7273,160.3601 L44.3743,158.5401 C43.8793,158.1701 41.4193,156.1001 41.0453,156.1001 C39.8723,156.1001 39.3773,157.1911 40.3063,157.9371 L44.5863,161.2571 C44.8053,161.4321 45.0953,161.5551 45.0953,161.8881 C45.0953,162.3261 44.7203,162.8371 44.2493,162.8371 C43.3783,162.8071 39.1723,158.4521 37.9453,158.4521 C37.6633,158.4521 37.2843,158.6691 37.1163,158.8911 C36.6483,159.5071 37.3423,160.1901 37.8093,160.5481 C38.5613,161.1261 40.3773,162.3321 40.8703,163.0071 C41.2183,163.4821 40.6193,164.7011 39.5583,163.8871 C36.4113,161.4771 33.2763,159.0531 30.1503,156.6151 C29.8203,156.3571 29.5123,156.0791 29.1493,155.8661 L29.0853,155.8291 L29.0943,155.7551 Z" id="Fill-19" fill="#FFFFFF"></path>
            <g id="Group-23" transform="translate(7.000000, 334.609000)">
                <mask id="mask-15" fill="white">
                    <use xlink:href="#path-14"></use>
                </mask>
                <g id="Clip-22"></g>
                <path d="M0.02,35.012 C0.02,54.222 15.592,69.794 34.803,69.794 L34.803,69.794 C54.013,69.794 69.585,54.222 69.585,35.012 L69.585,35.012 C69.585,15.801 54.013,0.228 34.803,0.228 L34.803,0.228 C15.592,0.228 0.02,15.801 0.02,35.012" id="Fill-21" fill="url(#linearGradient-10)" mask="url(#mask-15)"></path>
            </g>
            <g id="Group-51" transform="translate(21.000000, 30.609000)">
                <path d="M4.7778,333.0689 L0.6388,328.9299 C0.2078,328.4989 0.2088,327.7979 0.6388,327.3659 C1.0708,326.9339 1.7728,326.9349 2.2038,327.3659 L6.6668,331.8289 C6.8748,332.0379 6.9908,332.3189 6.98980641,332.6129 L6.9888,333.8609 C6.9878,334.4719 6.4918,334.9659 5.8808,334.964902 C5.2698,334.9639 4.7758,334.4679 4.7758,333.8579 L4.7778,333.0689 Z M14.5328,355.4319 L11.1908,358.8459 C10.9838,359.0569 10.7028,359.1709 10.4078,359.1709 C10.1138,359.1709 9.8338,359.0549 9.6258,358.8459 C9.1948,358.4149 9.1998,357.7179 9.6258,357.2839 L13.2908,353.5449 C13.4968,353.3349 13.7828,353.2199 14.0768,353.2199 L16.1708,353.2229 C18.6618,353.2259 20.9988,352.2609 22.7588,350.4999 L31.1028,342.1559 C31.2958,341.9639 31.4008,341.7079 31.4008,341.4359 C31.4008,341.1639 31.2958,340.9089 31.1028,340.7169 C30.7418,340.3549 30.1618,340.3169 29.7658,340.6289 L26.7458,343.6449 C26.5378,343.8539 26.2578,343.9689 25.9648,343.9689 C25.6708,343.9689 25.3898,343.8529 25.1818,343.6449 C24.7508,343.2129 24.7508,342.5129 25.1818,342.0809 L29.6738,337.5889 C29.8668,337.3979 29.9728,337.1409 29.9728,336.8699 C29.9728,336.5979 29.8668,336.3419 29.6738,336.1499 C29.3128,335.7879 28.7328,335.7519 28.3378,336.0619 L23.7488,340.6479 C23.5408,340.8559 23.2608,340.9719 22.9668,340.9719 C22.6728,340.9719 22.3928,340.8559 22.1848,340.6479 C21.7528,340.2159 21.7528,339.5149 22.1838,339.0839 L28.0948,333.1739 C28.4918,332.7769 28.4918,332.1309 28.0948,331.7349 C27.6988,331.3379 27.0528,331.3379 26.6558,331.7339 L20.7518,337.6499 C20.3198,338.0819 19.6188,338.0819 19.1868,337.6509 C18.7558,337.2169 18.7558,336.5179 19.1868,336.0859 L23.7468,331.5159 C23.8958,331.3289 23.9768,331.1139 23.9768,330.8749 C23.9768,330.6029 23.8718,330.3469 23.6798,330.1549 C23.2818,329.7579 22.6368,329.7579 22.2408,330.1549 L14.5208,337.8739 C14.0068,338.3869 13.2148,338.4359 12.6418,337.9869 C12.0698,337.5379 11.9268,336.7579 12.3038,336.1349 L13.5548,334.0729 C13.8428,333.5989 13.7098,332.9669 13.2568,332.6489 C13.0208,332.4839 12.7328,332.4229 12.4498,332.4749 C12.1668,332.5269 11.9228,332.6889 11.7608,332.9279 L8.5608,337.7009 C7.5288,339.2399 6.9818,341.0389 6.9848,342.8929 L6.9898,346.1349 C6.9908,346.4289 6.8748,346.7099 6.6668,346.9179 L2.2328,351.3519 C2.0248,351.5599 1.7448,351.6759 1.4508,351.6759 C1.1568,351.6759 0.8768,351.5599 0.6688,351.3519 C0.2368,350.9199 0.2368,350.2189 0.6688,349.7879 L4.7778,345.6789 L4.7728,342.8959 C4.7688,340.5999 5.4458,338.3759 6.7238,336.4689 L9.9238,331.6959 C10.4198,330.9589 11.1728,330.4629 12.0448,330.2989 C12.9138,330.1369 13.7998,330.3299 14.5248,330.8369 C15.3148,331.3889 15.8138,332.2599 15.9048,333.2179 L15.9178,333.3509 L20.6768,328.5909 C21.9358,327.3329 23.9848,327.3329 25.2438,328.5909 C25.5108,328.8589 25.7298,329.1719 25.8898,329.5149 L25.9178,329.5719 L25.9738,329.5449 C27.2048,328.9559 28.6938,329.2059 29.6598,330.1709 C30.6278,331.1389 30.8748,332.6229 30.2838,333.8569 L30.2568,333.9139 L30.3148,333.9409 C30.6588,334.0989 30.9708,334.3189 31.2388,334.5869 C31.8488,335.1969 32.1838,336.0069 32.1838,336.8699 C32.1838,337.4239 32.0438,337.9639 31.7728,338.4469 L31.7408,338.5059 L31.7998,338.5349 C32.1218,338.6909 32.4148,338.8999 32.6678,339.1519 C33.9248,340.4119 33.9248,342.4609 32.6678,343.7189 L24.3228,352.0629 C22.1498,354.2359 19.2588,355.4399 16.1838,355.4349 L14.5328,355.4319 Z M27.1408,355.4329 L25.4488,355.4359 C24.8378,355.4369 24.3407985,354.9429 24.3407985,354.3319 C24.3398,353.7219 24.8358,353.2259 25.4458,353.2249 L27.5978,353.2199 C27.8908,353.2199 28.1738,353.3379 28.3808,353.5449 L32.0708,357.2339 C32.5038,357.6659 32.5028,358.3659 32.0708,358.7979 C31.8628,359.0059 31.5838,359.1219 31.2898,359.1219 C30.9948,359.1219 30.7148,359.0059 30.5068,358.7979 L27.1408,355.4329 Z M36.8958,345.6789 L40.2598,349.0439 C40.6918,349.4759 40.6918,350.1759 40.2598,350.6079 C40.0518,350.8159 39.7718,350.9319 39.4778,350.9319 C39.1838,350.9319 38.9048,350.8159 38.6968,350.6079 L35.0068,346.9179 C34.7988,346.7109 34.6818,346.4279 34.6818,346.1349 L34.6848,344.0389 C34.6858,342.9359 34.7148,342.5109 34.4948,341.3779 C34.3848,340.8169 34.5268,340.1949 35.0998,339.9579 C35.6598,339.7269 36.3138,339.9969 36.5468,340.5569 C37.1268,341.9569 36.8978,342.6099 36.8968,344.0429 L36.8958,345.6789 Z M36.8958,333.0679 L36.8998,335.8519 C36.8998,336.4639 36.4048,336.9589 35.7938,336.9589 C35.1828,336.9589 34.6878,336.4649 34.6868,335.8549 L34.6818,332.6129 C34.6818,332.3209 34.8008,332.0379 35.0068,331.8299 L39.4028,327.3639 C39.8308,326.9289 40.5358,326.9329 40.9668,327.3629 C41.3998,327.7959 41.3948,328.4919 40.9668,328.9269 L36.8958,333.0679 Z M27.1418,323.3149 L30.6098,319.9209 C31.0438,319.4969 31.7418,319.4919 32.1728,319.9219 C32.6038,320.3529 32.6078,321.0589 32.1718,321.4869 L28.3798,325.2039 C28.1698,325.4099 27.8908,325.5279 27.5968,325.5269 L25.5018,325.5249 C23.0098,325.5219 20.6738,326.4859 18.9128,328.2479 L18.3878,328.7729 C18.1798,328.9819 17.8998,329.0969 17.6048,329.0969 C17.3118,329.0969 17.0318,328.9809 16.8248,328.7739 C16.3918,328.3409 16.3928,327.6419 16.8238,327.2099 L17.3488,326.6849 C19.5218,324.5099 22.4148,323.3099 25.4888,323.3129 L27.1418,323.3149 Z M14.5318,323.3149 L16.1498,323.3129 C16.7608,323.3129 17.2568,323.8059 17.2568,324.4169 C17.2568,325.0269 16.7638,325.5239 16.1528,325.5249 L14.0748,325.526906 C13.7818,325.5279 13.4988,325.4099 13.2918,325.2029 L8.8298,320.7399 C8.3978,320.3089 8.3978,319.6069 8.8298,319.1749 C9.2608,318.7439 9.9618,318.7439 10.3928,319.1749 L14.5318,323.3149 Z" id="Fill-24" fill="#FFFFFF"></path>
                <g id="Group" transform="translate(84.204400, 0.142300)" fill="#0D3183">
                    <path d="M38.0353,4.2298 L38.0353,4.2088 C38.0353,1.9858 39.7343,0.2428 42.0443,0.2428 C43.6023,0.2428 44.6043,0.8968 45.2803,1.8218 L43.6893,3.0538 C43.2543,2.5198 42.7533,2.1598 42.0223,2.1598 C40.9553,2.1598 40.2033,3.0748 40.2033,4.1868 L40.2033,4.2088 C40.2033,5.3518 40.9553,6.2458 42.0223,6.2458 C42.8173,6.2458 43.2863,5.8748 43.7443,5.3188 L45.3353,6.4528 C44.6153,7.4438 43.6453,8.1738 41.9683,8.1738 C39.7893,8.1738 38.0353,6.5068 38.0353,4.2298 L38.0353,4.2298 Z M34.7793,8.0208 L36.8923,8.0208 L36.8923,0.3948 L34.7793,0.3948 L34.7793,8.0208 Z M29.4003,2.2468 L27.1233,2.2468 L27.1233,0.3948 L33.8023,0.3948 L33.8023,2.2468 L31.5143,2.2468 L31.5143,8.0218 L29.4003,8.0218 L29.4003,2.2468 Z M24.0303,8.0208 L26.1443,8.0208 L26.1443,0.3948 L24.0303,0.3948 L24.0303,8.0208 Z M17.2573,0.3948 L19.3713,0.3948 L19.3713,6.1688 L23.0633,6.1688 L23.0633,8.0218 L17.2573,8.0218 L17.2573,0.3948 Z M14.0043,4.2298 L14.0043,4.2088 C14.0043,3.0968 13.2193,2.1488 12.0543,2.1488 C10.8883,2.1488 10.1143,3.0858 10.1143,4.1868 L10.1143,4.2088 C10.1143,5.3088 10.9093,6.2678 12.0753,6.2678 C13.2293,6.2678 14.0043,5.3308 14.0043,4.2298 L14.0043,4.2298 Z M7.9573,4.2298 L7.9573,4.2088 C7.9573,2.0188 9.7223,0.2428 12.0753,0.2428 C14.4293,0.2428 16.1723,1.9968 16.1723,4.1868 L16.1723,4.2088 C16.1723,6.3978 14.4063,8.1738 12.0543,8.1738 C9.7003,8.1738 7.9573,6.4198 7.9573,4.2298 L7.9573,4.2298 Z M4.0053,4.1868 C4.7463,4.1868 5.2153,3.7828 5.2153,3.1838 L5.2153,3.1628 C5.2153,2.5088 4.7463,2.1708 3.9943,2.1708 L2.9923,2.1708 L2.9923,4.1868 L4.0053,4.1868 Z M0.8793,0.3948 L4.1583,0.3948 C6.0753,0.3948 7.3173,1.3868 7.3173,3.0638 L7.3173,3.0858 C7.3173,4.8948 5.9333,5.8428 4.0493,5.8428 L2.9923,5.8428 L2.9923,8.0218 L0.8793,8.0218 L0.8793,0.3948 Z" id="Fill-26"></path>
                    <path d="M83.8957,2.2581 L83.8957,6.1471 L84.7557,6.1471 C86.0317,6.1471 86.8707,5.4501 86.8707,4.2191 L86.8707,4.1971 C86.8707,2.9771 86.0317,2.2581 84.7557,2.2581 L83.8957,2.2581 Z M81.7827,0.3951 L84.7347,0.3951 C87.4477,0.3951 89.0277,1.9641 89.0277,4.1641 L89.0277,4.1861 C89.0277,6.3871 87.4257,8.0211 84.6917,8.0211 L81.7827,8.0211 L81.7827,0.3951 Z M73.2337,0.3951 L75.2057,0.3951 L78.3427,4.4261 L78.3427,0.3951 L80.4347,0.3951 L80.4347,8.0211 L78.5937,8.0211 L75.3257,3.8381 L75.3257,8.0211 L73.2337,8.0211 L73.2337,0.3951 Z M69.0647,5.0031 L68.2147,2.8461 L67.3547,5.0031 L69.0647,5.0031 Z M67.2117,0.3411 L69.2497,0.3411 L72.4967,8.0211 L70.2307,8.0211 L69.6857,6.6491 L66.7337,6.6491 L66.1887,8.0211 L63.9767,8.0211 L67.2117,0.3411 Z M54.8397,0.3951 L56.9547,0.3951 L56.9547,6.1691 L60.6477,6.1691 L60.6477,8.0211 L54.8397,8.0211 L54.8397,0.3951 Z M50.6707,5.0031 L49.8217,2.8461 L48.9607,5.0031 L50.6707,5.0031 Z M48.8197,0.3411 L50.8567,0.3411 L54.1037,8.0211 L51.8367,8.0211 L51.2917,6.6491 L48.3397,6.6491 L47.7947,8.0211 L45.5827,8.0211 L48.8197,0.3411 Z" id="Fill-28"></path>
                    <path d="M7.9787,16.077 L14.1127,16.077 L14.1127,17.864 L10.0707,17.864 L10.0707,19.03 L13.7317,19.03 L13.7317,20.697 L10.0707,20.697 L10.0707,21.906 L14.1667,21.906 L14.1667,23.703 L7.9787,23.703 L7.9787,16.077 Z M0.3007,22.57 L1.4777,21.165 C2.2407,21.764 3.0687,22.08 3.9517,22.08 C4.5287,22.08 4.8327,21.884 4.8327,21.557 L4.8327,21.535 C4.8327,21.208 4.5827,21.045 3.5377,20.795 C1.9137,20.424 0.6607,19.967 0.6607,18.409 L0.6607,18.387 C0.6607,16.971 1.7837,15.946 3.6137,15.946 C4.9097,15.946 5.9227,16.295 6.7507,16.96 L5.6947,18.452 C4.9977,17.951 4.2347,17.701 3.5587,17.701 C3.0467,17.701 2.7957,17.908 2.7957,18.191 L2.7957,18.213 C2.7957,18.561 3.0577,18.714 4.1247,18.953 C5.8687,19.335 6.9577,19.901 6.9577,21.328 L6.9577,21.35 C6.9577,22.908 5.7267,23.834 3.8747,23.834 C2.5237,23.834 1.2497,23.41 0.3007,22.57 L0.3007,22.57 Z" id="Fill-30"></path>
                    <path d="M52.2043,20.8489 L49.2953,16.0769 L51.7033,16.0769 L53.2713,18.8549 L54.8513,16.0769 L57.2163,16.0769 L54.3173,20.8159 L54.3173,23.7029 L52.2043,23.7029 L52.2043,20.8489 Z M44.6683,17.9289 L42.3913,17.9289 L42.3913,16.0769 L49.0693,16.0769 L49.0693,17.9289 L46.7813,17.9289 L46.7813,23.7029 L44.6683,23.7029 L44.6683,17.9289 Z M39.2993,23.7029 L41.4123,23.7029 L41.4123,16.0769 L39.2993,16.0769 L39.2993,23.7029 Z M34.9333,19.7379 C35.6423,19.7379 36.0663,19.3889 36.0663,18.8329 L36.0663,18.8119 C36.0663,18.2019 35.6203,17.8959 34.9223,17.8959 L33.5283,17.8959 L33.5283,19.7379 L34.9333,19.7379 Z M31.4143,16.0769 L35.0203,16.0769 C36.1863,16.0769 36.9923,16.3819 37.5053,16.8939 C37.9513,17.3409 38.1803,17.9179 38.1803,18.6699 L38.1803,18.6919 C38.1803,19.8689 37.5583,20.6419 36.6113,21.0449 L38.4313,23.7029 L36.0013,23.7029 L34.4653,21.3939 L33.5283,21.3939 L33.5283,23.7029 L31.4143,23.7029 L31.4143,16.0769 Z M23.0723,20.3589 L23.0723,16.0769 L25.2083,16.0769 L25.2083,20.3149 C25.2083,21.4149 25.7643,21.9379 26.6133,21.9379 C27.4743,21.9379 28.0293,21.4369 28.0293,20.3699 L28.0293,16.0769 L30.1653,16.0769 L30.1653,20.3049 C30.1653,22.7559 28.7603,23.8449 26.5923,23.8449 C24.4343,23.8449 23.0723,22.7449 23.0723,20.3589 L23.0723,20.3589 Z M14.9483,19.9119 L14.9483,19.8909 C14.9483,17.6679 16.6483,15.9249 18.9583,15.9249 C20.5163,15.9249 21.5173,16.5779 22.1933,17.5039 L20.6023,18.7349 C20.1673,18.2019 19.6663,17.8419 18.9353,17.8419 C17.8683,17.8419 17.1163,18.7569 17.1163,19.8689 L17.1163,19.8909 C17.1163,21.0339 17.8683,21.9279 18.9353,21.9279 C19.7313,21.9279 20.2003,21.5569 20.6573,21.0019 L22.2483,22.1349 C21.5293,23.1259 20.5593,23.8559 18.8823,23.8559 C16.7023,23.8559 14.9483,22.1889 14.9483,19.9119 L14.9483,19.9119 Z" id="Fill-32"></path>
                    <polygon id="Fill-34" points="0.8791 117.1756 7.0131 117.1756 7.0131 118.9626 2.9711 118.9626 2.9711 120.1286 6.6311 120.1286 6.6311 121.7956 2.9711 121.7956 2.9711 123.0046 7.0661 123.0046 7.0661 124.8016 0.8791 124.8016"></polygon>
                    <path d="M7.8478,121.0106 L7.8478,120.9896 C7.8478,118.7666 9.5478,117.0236 11.8578,117.0236 C13.4148,117.0236 14.4178,117.6776 15.0928,118.6026 L13.5018,119.8336 C13.0668,119.3006 12.5658,118.9406 11.8348,118.9406 C10.7678,118.9406 10.0158,119.8556 10.0158,120.9676 L10.0158,120.9896 C10.0158,122.1326 10.7678,123.0266 11.8348,123.0266 C12.6308,123.0266 13.0998,122.6556 13.5568,122.1006 L15.1478,123.2336 C14.4288,124.2246 13.4588,124.9546 11.7818,124.9546 C9.6018,124.9546 7.8478,123.2876 7.8478,121.0106" id="Fill-36"></path>
                    <path d="M55.2521,121.0106 L55.2521,120.9896 C55.2521,118.7666 56.9511,117.0236 59.2621,117.0236 C60.8191,117.0236 61.8211,117.6776 62.4971,118.6026 L60.9061,119.8336 C60.4711,119.3006 59.9701,118.9406 59.2391,118.9406 C58.1721,118.9406 57.4201,119.8556 57.4201,120.9676 L57.4201,120.9896 C57.4201,122.1326 58.1721,123.0266 59.2391,123.0266 C60.0351,123.0266 60.5031,122.6556 60.9611,122.1006 L62.5521,123.2336 C61.8321,124.2246 60.8621,124.9546 59.1851,124.9546 C57.0061,124.9546 55.2521,123.2876 55.2521,121.0106 L55.2521,121.0106 Z M51.9961,124.8016 L54.1091,124.8016 L54.1091,117.1756 L51.9961,117.1756 L51.9961,124.8016 Z M42.4891,117.1756 L44.7231,117.1756 L46.5421,120.1286 L48.3611,117.1756 L50.5951,117.1756 L50.5951,124.8026 L48.4921,124.8026 L48.4921,120.4226 L46.5421,123.4076 L46.4981,123.4076 L44.5601,120.4336 L44.5601,124.8026 L42.4891,124.8026 L42.4891,117.1756 Z M39.2351,121.0106 L39.2351,120.9896 C39.2351,119.8776 38.4511,118.9296 37.2851,118.9296 C36.1201,118.9296 35.3461,119.8666 35.3461,120.9676 L35.3461,120.9896 C35.3461,122.0896 36.1421,123.0486 37.3081,123.0486 C38.4621,123.0486 39.2351,122.1116 39.2351,121.0106 L39.2351,121.0106 Z M33.1891,121.0106 L33.1891,120.9896 C33.1891,118.7996 34.9541,117.0236 37.3081,117.0236 C39.6601,117.0236 41.4031,118.7776 41.4031,120.9676 L41.4031,120.9896 C41.4031,123.1786 39.6391,124.9546 37.2851,124.9546 C34.9331,124.9546 33.1891,123.2006 33.1891,121.0106 L33.1891,121.0106 Z M24.8911,117.1756 L26.8631,117.1756 L30.0011,121.2066 L30.0011,117.1756 L32.0931,117.1756 L32.0931,124.8026 L30.2511,124.8026 L26.9821,120.6186 L26.9821,124.8026 L24.8911,124.8026 L24.8911,117.1756 Z M21.6381,121.0106 L21.6381,120.9896 C21.6381,119.8776 20.8531,118.9296 19.6881,118.9296 C18.5221,118.9296 17.7481,119.8666 17.7481,120.9676 L17.7481,120.9896 C17.7481,122.0896 18.5431,123.0486 19.7091,123.0486 C20.8641,123.0486 21.6381,122.1116 21.6381,121.0106 L21.6381,121.0106 Z M15.5911,121.0106 L15.5911,120.9896 C15.5911,118.7996 17.3561,117.0236 19.7091,117.0236 C22.0631,117.0236 23.8061,118.7776 23.8061,120.9676 L23.8061,120.9896 C23.8061,123.1786 22.0401,124.9546 19.6881,124.9546 C17.3341,124.9546 15.5911,123.2006 15.5911,121.0106 L15.5911,121.0106 Z" id="Fill-38"></path>
                    <path d="M56.799,218.2737 L58.771,218.2737 L61.908,222.3047 L61.908,218.2737 L64,218.2737 L64,225.8997 L62.159,225.8997 L58.891,221.7167 L58.891,225.8997 L56.799,225.8997 L56.799,218.2737 Z M52.63,222.8817 L51.78,220.7257 L50.919,222.8817 L52.63,222.8817 Z M50.778,218.2197 L52.816,218.2197 L56.062,225.8997 L53.796,225.8997 L53.251,224.5277 L50.298,224.5277 L49.754,225.8997 L47.542,225.8997 L50.778,218.2197 Z M40.866,218.2737 L47,218.2737 L47,220.0607 L42.958,220.0607 L42.958,221.2267 L46.619,221.2267 L46.619,222.8937 L42.958,222.8937 L42.958,224.1027 L47.055,224.1027 L47.055,225.8997 L40.866,225.8997 L40.866,218.2737 Z M36.664,222.0657 C37.405,222.0657 37.874,221.6617 37.874,221.0627 L37.874,221.0417 C37.874,220.3877 37.405,220.0497 36.653,220.0497 L35.652,220.0497 L35.652,222.0657 L36.664,222.0657 Z M33.537,218.2737 L36.817,218.2737 C38.735,218.2737 39.977,219.2657 39.977,220.9427 L39.977,220.9647 C39.977,222.7737 38.593,223.7217 36.708,223.7217 L35.652,223.7217 L35.652,225.8997 L33.537,225.8997 L33.537,218.2737 Z M30.284,222.1087 L30.284,222.0867 C30.284,220.9757 29.5,220.0277 28.334,220.0277 C27.168,220.0277 26.395,220.9647 26.395,222.0657 L26.395,222.0867 C26.395,223.1877 27.191,224.1467 28.356,224.1467 C29.511,224.1467 30.284,223.2097 30.284,222.1087 L30.284,222.1087 Z M24.237,222.1087 L24.237,222.0867 C24.237,219.8977 26.002,218.1217 28.356,218.1217 C30.709,218.1217 32.452,219.8757 32.452,222.0657 L32.452,222.0867 C32.452,224.2767 30.688,226.0527 28.334,226.0527 C25.981,226.0527 24.237,224.2987 24.237,222.1087 L24.237,222.1087 Z M20.177,221.9347 C20.886,221.9347 21.311,221.5857 21.311,221.0297 L21.311,221.0087 C21.311,220.3987 20.863,220.0927 20.166,220.0927 L18.772,220.0927 L18.772,221.9347 L20.177,221.9347 Z M16.658,218.2737 L20.265,218.2737 C21.43,218.2737 22.236,218.5787 22.748,219.0907 C23.195,219.5377 23.424,220.1147 23.424,220.8667 L23.424,220.8887 C23.424,222.0657 22.803,222.8387 21.855,223.2417 L23.675,225.8997 L21.245,225.8997 L19.709,223.5907 L18.772,223.5907 L18.772,225.8997 L16.658,225.8997 L16.658,218.2737 Z M8.317,222.5557 L8.317,218.2737 L10.452,218.2737 L10.452,222.5117 C10.452,223.6117 11.008,224.1347 11.858,224.1347 C12.718,224.1347 13.274,223.6337 13.274,222.5657 L13.274,218.2737 L15.409,218.2737 L15.409,222.5007 C15.409,224.9527 14.004,226.0417 11.835,226.0417 C9.679,226.0417 8.317,224.9407 8.317,222.5557 L8.317,222.5557 Z M1.129,218.2737 L7.263,218.2737 L7.263,220.0607 L3.221,220.0607 L3.221,221.2267 L6.882,221.2267 L6.882,222.8937 L3.221,222.8937 L3.221,224.1027 L7.318,224.1027 L7.318,225.8997 L1.129,225.8997 L1.129,218.2737 Z" id="Fill-40"></path>
                    <path d="M67.7218,233.9564 L69.8348,233.9564 L69.8348,239.7304 L73.5288,239.7304 L73.5288,241.5824 L67.7218,241.5824 L67.7218,233.9564 Z M63.5528,238.5644 L62.7028,236.4084 L61.8418,238.5644 L63.5528,238.5644 Z M61.7008,233.9024 L63.7378,233.9024 L66.9848,241.5824 L64.7178,241.5824 L64.1738,240.2104 L61.2208,240.2104 L60.6758,241.5824 L58.4648,241.5824 L61.7008,233.9024 Z M51.7888,233.9564 L57.9228,233.9564 L57.9228,235.7434 L53.8808,235.7434 L53.8808,236.9094 L57.5418,236.9094 L57.5418,238.5764 L53.8808,238.5764 L53.8808,239.7854 L57.9778,239.7854 L57.9778,241.5824 L51.7888,241.5824 L51.7888,233.9564 Z M45.5618,235.8194 L45.5618,239.7084 L46.4218,239.7084 C47.6968,239.7084 48.5348,239.0114 48.5348,237.7804 L48.5348,237.7584 C48.5348,236.5384 47.6968,235.8194 46.4218,235.8194 L45.5618,235.8194 Z M43.4478,233.9564 L46.4008,233.9564 C49.1128,233.9564 50.6928,235.5254 50.6928,237.7264 L50.6928,237.7484 C50.6928,239.9484 49.0908,241.5824 46.3568,241.5824 L43.4478,241.5824 L43.4478,233.9564 Z M31.8828,233.9564 L33.8548,233.9564 L36.9928,237.9874 L36.9928,233.9564 L39.0838,233.9564 L39.0838,241.5824 L37.2428,241.5824 L33.9748,237.3994 L33.9748,241.5824 L31.8828,241.5824 L31.8828,233.9564 Z M24.6078,233.9564 L30.7418,233.9564 L30.7418,235.7434 L26.6998,235.7434 L26.6998,236.9094 L30.3608,236.9094 L30.3608,238.5764 L26.6998,238.5764 L26.6998,239.7854 L30.7958,239.7854 L30.7958,241.5824 L24.6078,241.5824 L24.6078,233.9564 Z M17.3328,233.9564 L23.4668,233.9564 L23.4668,235.7434 L19.4248,235.7434 L19.4248,236.9094 L23.0858,236.9094 L23.0858,238.5764 L19.4248,238.5764 L19.4248,239.7854 L23.5218,239.7854 L23.5218,241.5824 L17.3328,241.5824 L17.3328,233.9564 Z M13.0228,237.6174 C13.7308,237.6174 14.1558,237.2684 14.1558,236.7124 L14.1558,236.6914 C14.1558,236.0814 13.7088,235.7754 13.0118,235.7754 L11.6178,235.7754 L11.6178,237.6174 L13.0228,237.6174 Z M9.5038,233.9564 L13.1098,233.9564 C14.2758,233.9564 15.0818,234.2614 15.5938,234.7734 C16.0398,235.2204 16.2698,235.7974 16.2698,236.5494 L16.2698,236.5714 C16.2698,237.7484 15.6488,238.5214 14.7008,238.9244 L16.5198,241.5824 L14.0898,241.5824 L12.5538,239.2734 L11.6178,239.2734 L11.6178,241.5824 L9.5038,241.5824 L9.5038,233.9564 Z M0.8788,237.7914 L0.8788,237.7694 C0.8788,235.5474 2.6218,233.8044 4.9748,233.8044 C6.3158,233.8044 7.2628,234.2064 8.0698,234.9044 L6.8268,236.4084 C6.2828,235.9504 5.7478,235.6884 4.9868,235.6884 C3.8858,235.6884 3.0358,236.6034 3.0358,237.7694 L3.0358,237.7914 C3.0358,239.0334 3.8968,239.9154 5.1058,239.9154 C5.6288,239.9154 6.0208,239.8074 6.3258,239.6004 L6.3258,238.6744 L4.8328,238.6744 L4.8328,237.1264 L8.3298,237.1264 L8.3298,240.5474 C7.5248,241.2234 6.4128,241.7354 5.0188,241.7354 C2.6438,241.7354 0.8788,240.1014 0.8788,237.7914 L0.8788,237.7914 Z" id="Fill-42"></path>
                    <path d="M58.8351,335.054 L60.9481,335.054 L60.9481,340.828 L64.6421,340.828 L64.6421,342.68 L58.8351,342.68 L58.8351,335.054 Z M50.4931,339.336 L50.4931,335.054 L52.6291,335.054 L52.6291,339.292 C52.6291,340.392 53.1841,340.915 54.0341,340.915 C54.8951,340.915 55.4501,340.414 55.4501,339.346 L55.4501,335.054 L57.5861,335.054 L57.5861,339.281 C57.5861,341.733 56.1801,342.822 54.0121,342.822 C51.8551,342.822 50.4931,341.721 50.4931,339.336 L50.4931,339.336 Z M42.3691,338.889 L42.3691,338.867 C42.3691,336.645 44.0681,334.902 46.3781,334.902 C47.9371,334.902 48.9391,335.555 49.6141,336.481 L48.0231,337.713 C47.5881,337.179 47.0871,336.819 46.3561,336.819 C45.2891,336.819 44.5371,337.734 44.5371,338.846 L44.5371,338.867 C44.5371,340.011 45.2891,340.905 46.3561,340.905 C47.1511,340.905 47.6201,340.534 48.0781,339.978 L49.6691,341.112 C48.9491,342.103 47.9801,342.833 46.3021,342.833 C44.1231,342.833 42.3691,341.166 42.3691,338.889 L42.3691,338.889 Z M37.9371,340.175 L41.5101,340.175 L41.5101,338.366 L37.9371,338.366 L37.9371,340.175 Z M34.9231,338.889 L34.9231,338.867 C34.9231,337.756 34.1391,336.808 32.9731,336.808 C31.8071,336.808 31.0331,337.745 31.0331,338.846 L31.0331,338.867 C31.0331,339.968 31.8291,340.927 32.9941,340.927 C34.1491,340.927 34.9231,339.99 34.9231,338.889 L34.9231,338.889 Z M28.8761,338.889 L28.8761,338.867 C28.8761,336.678 30.6421,334.902 32.9941,334.902 C35.3481,334.902 37.0911,336.656 37.0911,338.846 L37.0911,338.867 C37.0911,341.057 35.3261,342.833 32.9731,342.833 C30.6191,342.833 28.8761,341.079 28.8761,338.889 L28.8761,338.889 Z M25.6201,342.68 L27.7341,342.68 L27.7341,335.054 L25.6201,335.054 L25.6201,342.68 Z M17.3551,338.889 L17.3551,338.867 C17.3551,336.645 19.0551,334.902 21.3641,334.902 C22.9221,334.902 23.9241,335.555 24.6001,336.481 L23.0091,337.713 C22.5731,337.179 22.0721,336.819 21.3421,336.819 C20.2741,336.819 19.5221,337.734 19.5221,338.846 L19.5221,338.867 C19.5221,340.011 20.2741,340.905 21.3421,340.905 C22.1381,340.905 22.6061,340.534 23.0641,339.978 L24.6541,341.112 C23.9361,342.103 22.9661,342.833 21.2881,342.833 C19.1081,342.833 17.3551,341.166 17.3551,338.889 L17.3551,338.889 Z M14.3521,338.889 L14.3521,338.867 C14.3521,337.756 13.5671,336.808 12.4011,336.808 C11.2361,336.808 10.4621,337.745 10.4621,338.846 L10.4621,338.867 C10.4621,339.968 11.2581,340.927 12.4241,340.927 C13.5781,340.927 14.3521,339.99 14.3521,338.889 L14.3521,338.889 Z M8.3051,338.889 L8.3051,338.867 C8.3051,336.678 10.0701,334.902 12.4241,334.902 C14.7761,334.902 16.5201,336.656 16.5201,338.846 L16.5201,338.867 C16.5201,341.057 14.7551,342.833 12.4011,342.833 C10.0491,342.833 8.3051,341.079 8.3051,338.889 L8.3051,338.889 Z M0.8781,341.548 L2.0551,340.142 C2.8171,340.741 3.6461,341.057 4.5281,341.057 C5.1061,341.057 5.4101,340.861 5.4101,340.534 L5.4101,340.512 C5.4101,340.185 5.1601,340.022 4.1141,339.772 C2.4901,339.401 1.2371,338.944 1.2371,337.386 L1.2371,337.364 C1.2371,335.948 2.3591,334.924 4.1901,334.924 C5.4861,334.924 6.5001,335.272 7.3281,335.937 L6.2721,337.429 C5.5741,336.928 4.8121,336.678 4.1361,336.678 C3.6241,336.678 3.3731,336.885 3.3731,337.168 L3.3731,337.189 C3.3731,337.538 3.6351,337.691 4.7021,337.93 C6.4451,338.312 7.5351,338.878 7.5351,340.305 L7.5351,340.327 C7.5351,341.885 6.3041,342.811 4.4511,342.811 C3.1011,342.811 1.8261,342.387 0.8781,341.548 L0.8781,341.548 Z" id="Fill-44"></path>
                    <path d="M83.4289,338.7147 C84.1369,338.7147 84.5619,338.3657 84.5619,337.8107 L84.5619,337.7887 C84.5619,337.1787 84.1159,336.8737 83.4179,336.8737 L82.0239,336.8737 L82.0239,338.7147 L83.4289,338.7147 Z M79.9089,335.0537 L83.5159,335.0537 C84.6819,335.0537 85.4879,335.3597 85.9999,335.8717 C86.4469,336.3187 86.6749,336.8957 86.6749,337.6477 L86.6749,337.6687 C86.6749,338.8457 86.0539,339.6187 85.1069,340.0227 L86.9259,342.6807 L84.4959,342.6807 L82.9599,340.3707 L82.0239,340.3707 L82.0239,342.6807 L79.9089,342.6807 L79.9089,335.0537 Z M71.5679,339.3357 L71.5679,335.0537 L73.7029,335.0537 L73.7029,339.2927 C73.7029,340.3927 74.2589,340.9157 75.1089,340.9157 C75.9699,340.9157 76.5249,340.4147 76.5249,339.3467 L76.5249,335.0537 L78.6599,335.0537 L78.6599,339.2807 C78.6599,341.7327 77.2549,342.8217 75.0869,342.8217 C72.9299,342.8217 71.5679,341.7217 71.5679,339.3357 L71.5679,339.3357 Z M66.3299,336.9057 L64.0539,336.9057 L64.0539,335.0537 L70.7329,335.0537 L70.7329,336.9057 L68.4449,336.9057 L68.4449,342.6807 L66.3299,342.6807 L66.3299,336.9057 Z" id="Fill-46"></path>
                    <path d="M96.257,335.054 L98.37,335.054 L98.37,340.828 L102.064,340.828 L102.064,342.68 L96.257,342.68 L96.257,335.054 Z M92.088,339.662 L91.238,337.506 L90.377,339.662 L92.088,339.662 Z M90.236,335 L92.273,335 L95.52,342.68 L93.254,342.68 L92.709,341.308 L89.756,341.308 L89.212,342.68 L87,342.68 L90.236,335 Z" id="Fill-48"></path>
                </g>
                <g id="Group-50" transform="translate(171.000000, 335.000000)"></g>
            </g>
        </g>
    </g>
</svg>