<?xml version="1.0" encoding="UTF-8"?>
<svg width="117px" height="115px" viewBox="0 0 117 115" version="1.1" xmlns="http://www.w3.org/2000/svg" xmlns:xlink="http://www.w3.org/1999/xlink">
    <!-- Generator: Sketch 61.2 (89653) - https://sketch.com -->
    <title>qwewqe</title>
    <desc>Created with Sketch.</desc>
    <defs>
        <path d="M0,3.435 C0,3.9765 0.379,4.4155 0.8465,4.416 L0.8465,4.416 C11.944,4.5 22.6455,4.1515 22.659,2.319 L22.659,2.319 C22.659,0.857 20.7475,0.3375 18.036,0.3375 L18.036,0.3375 C11.4095,0.3375 0,3.435 0,3.435 M22.485,2.3655 C22.485,3.9 11.9365,4.427 0.847,4.352 L0.847,4.352 C0.8165,4.352 0.7875,4.35 0.7585,4.347 L0.7585,4.347 C0.4185,4.3085 0.139,4.0525 0.0395,3.7095 L0.0395,3.7095 C0.148,4.078 0.4675,4.3455 0.8455,4.3465 L0.8455,4.3465 C11.936,4.277 22.485,0.862 22.485,2.3655" id="path-1"></path>
        <path d="M0.848,2.6765 C0.3795,2.6765 0,3.0555 0,3.524 L0,3.524 L0,16.935 C0,17.401 0.3765,17.7785 0.8425,17.7815 L0.8425,17.7815 C11.9425,17.6995 22.673,14.025 22.6590164,15.819 L22.6590164,15.819 L22.6590164,0.713 C22.662,0.3625 22.2525,0.220499922 21.51,0.220499922 L21.51,0.220499922 C18.4585,0.22 9.774,2.6095 0.848,2.6765 L0.848,2.6765 Z" id="path-3"></path>
        <path d="M1.018,0.882 C0.776,0.9235 0.6545,0.944 0.4125,0.9855 L0.4125,0.9855 C0.6085,1.0945 0.706,1.149 0.902,1.258 L0.902,1.258 C0.8275,1.5015 0.79,1.623 0.7155,1.8665 L0.7155,1.8665 C0.9115,1.691 1.0095,1.602 1.2055,1.426 L1.2055,1.426 C1.4015,1.5345 1.4995,1.59 1.696,1.698 L1.696,1.698 C1.621,1.48 1.5835,1.3715 1.509,1.1535 L1.509,1.1535 C1.7045,0.9775 1.8025,0.888 1.9985,0.712 L1.9985,0.712 C1.756,0.754 1.635,0.7755 1.3925,0.818 L1.3925,0.818 C1.3175,0.6 1.2805,0.4905 1.2055,0.2725 L1.2055,0.2725 C1.131,0.516 1.0935,0.638 1.018,0.882 L1.018,0.882 Z" id="path-5"></path>
        <path d="M0.685,1.0325 C0.443,1.0725 0.3215,1.093 0.079,1.132 L0.079,1.132 C0.275,1.243 0.373,1.298 0.5695,1.408 L0.5695,1.408 C0.494,1.651 0.4565,1.772 0.3815,2.0155 L0.3815,2.0155 C0.5785,1.8405 0.676,1.7535 0.8715,1.5785 L0.8715,1.5785 C1.0675,1.6875 1.1645,1.7415 1.3605,1.851 L1.3605,1.851 C1.2855,1.633 1.2485,1.524 1.173,1.3065 L1.173,1.3065 C1.369,1.1295 1.4675,1.042 1.6635,0.8655 L1.6635,0.8655 C1.4205,0.9075 1.2995,0.928 1.0585,0.9705 L1.0585,0.9705 C0.9835,0.7515 0.9465,0.6435 0.8715,0.4255 L0.8715,0.4255 C0.797,0.6685 0.7595,0.7895 0.685,1.0325 L0.685,1.0325 Z" id="path-7"></path>
        <path d="M0.674,1.099 C0.4325,1.136 0.311,1.154 0.0685,1.188 L0.0685,1.188 C0.2645,1.3035 0.363,1.3595 0.559,1.473 L0.559,1.473 C0.484,1.715 0.4465,1.8365 0.3705,2.078 L0.3705,2.078 C0.5675,1.9065 0.665,1.82 0.8605,1.647 L0.8605,1.647 C1.0565,1.759 1.155,1.8155 1.3515,1.928 L1.3515,1.928 C1.2765,1.7085 1.239,1.599 1.1635,1.38 L1.1635,1.38 C1.36,1.207 1.4585,1.121 1.655,0.9485 L1.655,0.9485 C1.412,0.9855 1.291,1.004 1.0485,1.042 L1.0485,1.042 C0.973,0.8225 0.9355,0.713 0.8605,0.4935 L0.8605,0.4935 C0.786,0.7365 0.7485,0.8575 0.674,1.099 L0.674,1.099 Z" id="path-9"></path>
        <path d="M0.6605,0.7645 C0.4175,0.794 0.296,0.8085 0.054,0.836 L0.054,0.836 C0.25,0.9565 0.348,1.016 0.5445,1.1345 L0.5445,1.1345 C0.47,1.3745 0.432,1.494 0.3575,1.734 L0.3575,1.734 C0.5535,1.5685 0.6515,1.485 0.8485,1.3175 L0.8485,1.3175 C1.0445,1.436 1.143,1.4945 1.34,1.6125 L1.34,1.6125 C1.265,1.391 1.2275,1.281 1.1525,1.0595 L1.1525,1.0595 C1.349,0.8925 1.448,0.809 1.6445,0.641 L1.6445,0.641 C1.401,0.673 1.279,0.6875 1.036,0.718 L1.036,0.718 C0.961,0.497 0.9235,0.386 0.8485,0.164 L0.8485,0.164 C0.773,0.404 0.7355,0.5245 0.6605,0.7645 L0.6605,0.7645 Z" id="path-11"></path>
        <path d="M0.82,0.631 C0.577,0.6555 0.4545,0.6665 0.211,0.6895 L0.211,0.6895 C0.408,0.814 0.5065,0.8745 0.7035,0.998 L0.7035,0.998 C0.6285,1.2365 0.5905,1.3555 0.516,1.5935 L0.516,1.5935 C0.7125,1.432 0.811,1.3505 1.008,1.1885 L1.008,1.1885 C1.205,1.311 1.303,1.3725 1.5,1.494 L1.5,1.494 C1.4255,1.2705 1.3875,1.16 1.312,0.9365 L1.312,0.9365 C1.509,0.774 1.607,0.691 1.804,0.527 L1.804,0.527 C1.561,0.554 1.4395,0.5675 1.196,0.593 L1.196,0.593 C1.121,0.3695 1.0835,0.2585 1.008,0.0355 L1.008,0.0355 C0.9325,0.2735 0.895,0.3925 0.82,0.631 L0.82,0.631 Z" id="path-13"></path>
        <path d="M0.645,0.6865 C0.4015,0.7085 0.2805,0.72 0.037,0.741 L0.037,0.741 C0.2335,0.8665 0.332,0.9285 0.5285,1.053 L0.5285,1.053 C0.4535,1.2905 0.416,1.41 0.341,1.647 L0.341,1.647 C0.5375,1.4865 0.636,1.406 0.8335,1.245 L0.8335,1.245 C1.0305,1.369 1.1285,1.431 1.3255,1.554 L1.3255,1.554 C1.2505,1.3305 1.213,1.2185 1.1375,0.996 L1.1375,0.996 C1.3345,0.834 1.4325,0.7535 1.63,0.5905 L1.63,0.5905 C1.3865,0.615 1.265,0.6275 1.021,0.6505 L1.021,0.6505 C0.9465,0.4275 0.909,0.3155 0.8335,0.092 L0.8335,0.092 C0.7575,0.33 0.7205,0.449 0.645,0.6865 L0.645,0.6865 Z" id="path-15"></path>
        <path d="M0.8205,0.6125 C0.577,0.637 0.4545,0.6485 0.211,0.671 L0.211,0.671 C0.408,0.795 0.5065,0.857 0.7035,0.98 L0.7035,0.98 C0.6285,1.218 0.591,1.337 0.516,1.575 L0.516,1.575 C0.713,1.413 0.811,1.3325 1.008,1.17 L1.008,1.17 C1.2055,1.293 1.304,1.3535 1.5,1.475 L1.5,1.475 C1.4255,1.252 1.3875,1.141 1.3125,0.918 L1.3125,0.918 C1.5095,0.755 1.608,0.674 1.8045,0.5095 L1.8045,0.5095 C1.562,0.5365 1.44,0.5495 1.197,0.575 L1.197,0.575 C1.1215,0.352 1.0835,0.24 1.0085,0.017 L1.0085,0.017 C0.933,0.2555 0.8955,0.3745 0.8205,0.6125 L0.8205,0.6125 Z" id="path-17"></path>
        <path d="M0.6605,1.0725 C0.4175,1.1015 0.2975,1.1165 0.0545,1.1445 L0.0545,1.1445 C0.251,1.2645 0.348,1.3235 0.5445,1.4425 L0.5445,1.4425 C0.4695,1.683 0.4325,1.8025 0.358,2.042 L0.358,2.042 C0.5535,1.876 0.6515,1.7935 0.8485,1.626 L0.8485,1.626 C1.045,1.7445 1.1435,1.803 1.3405,1.921 L1.3405,1.921 C1.2655,1.6995 1.228,1.59 1.1525,1.3685 L1.1525,1.3685 C1.35,1.2015 1.4485,1.117 1.646,0.949 L1.646,0.949 C1.4025,0.98 1.28,0.9955 1.0365,1.026 L1.0365,1.026 C0.9615,0.8045 0.9235,0.694 0.8485,0.4725 L0.8485,0.4725 C0.773,0.712 0.7355,0.8325 0.6605,1.0725 L0.6605,1.0725 Z" id="path-19"></path>
        <path d="M0.676,1.063 C0.4345,1.0995 0.3145,1.1165 0.0715,1.1515 L0.0715,1.1515 C0.2675,1.266 0.3655,1.3235 0.5605,1.4365 L0.5605,1.4365 C0.486,1.6785 0.4485,1.799 0.3735,2.041 L0.3735,2.041 C0.569,1.8695 0.6665,1.7835 0.8605,1.611 L0.8605,1.611 C1.055,1.7235 1.155,1.779 1.352,1.891 L1.352,1.891 C1.277,1.672 1.239,1.563 1.164,1.344 L1.164,1.344 C1.3605,1.171 1.4595,1.0845 1.6565,0.9115 L1.6565,0.9115 C1.4125,0.949 1.291,0.9675 1.0485,1.0055 L1.0485,1.0055 C0.973,0.7865 0.935,0.6775 0.8605,0.4585 L0.8605,0.4585 C0.787,0.7005 0.7495,0.8215 0.676,1.063 L0.676,1.063 Z" id="path-21"></path>
        <path d="M0.6875,0.8405 C0.446,0.8805 0.3245,0.9 0.0815,0.9385 L0.0815,0.9385 C0.278,1.0505 0.376,1.1055 0.572,1.216 L0.572,1.216 C0.497,1.459 0.4595,1.5805 0.3845,1.8235 L0.3845,1.8235 C0.5805,1.6485 0.6785,1.5615 0.874,1.386 L0.874,1.386 C1.0685,1.496 1.1645,1.5505 1.3605,1.659 L1.3605,1.659 C1.285,1.4415 1.248,1.3335 1.173,1.115 L1.173,1.115 C1.3675,0.9385 1.4675,0.8495 1.6635,0.674 L1.6635,0.674 C1.4205,0.715 1.299,0.7365 1.0595,0.7775 L1.0595,0.7775 C0.9845,0.56 0.948,0.4505 0.874,0.2325 L0.874,0.2325 C0.799,0.4755 0.762,0.5975 0.6875,0.8405 L0.6875,0.8405 Z" id="path-23"></path>
        <path d="M1.0185,0.864 C0.7765,0.9055 0.6545,0.9265 0.4125,0.9685 L0.4125,0.9685 C0.6085,1.077 0.7065,1.131 0.9025,1.2395 L0.9025,1.2395 C0.8275,1.483 0.79,1.605 0.7155,1.8485 L0.7155,1.8485 C0.9115,1.672 1.0095,1.5845 1.2055,1.4085 L1.2055,1.4085 C1.402,1.5175 1.5,1.5715 1.696,1.6805 L1.696,1.6805 C1.6215,1.4625 1.584,1.353 1.509,1.1355 L1.509,1.1355 C1.705,0.9595 1.803,0.871 1.999,0.6945 L1.999,0.6945 C1.7565,0.7365 1.6355,0.757 1.3925,0.799 L1.3925,0.799 C1.318,0.5815 1.2805,0.473 1.2055,0.2545 L1.2055,0.2545 C1.131,0.4985 1.094,0.62 1.0185,0.864 L1.0185,0.864 Z" id="path-25"></path>
        <path d="M0.69,0.7575 C0.4475,0.7995 0.327,0.819 0.085,0.861 L0.085,0.861 C0.2805,0.97 0.3785,1.025 0.575,1.133 L0.575,1.133 C0.5,1.377 0.4625,1.4985 0.3875,1.7415 L0.3875,1.7415 C0.5835,1.5655 0.681,1.477 0.8775,1.3 L0.8775,1.3 C1.073,1.409 1.171,1.4635 1.367,1.571 L1.367,1.571 C1.292,1.354 1.2545,1.2455 1.1795,1.0275 L1.1795,1.0275 C1.375,0.85 1.473,0.762 1.6685,0.5845 L1.6685,0.5845 C1.4265,0.6275 1.306,0.649 1.0645,0.6915 L1.0645,0.6915 C0.9895,0.474 0.952,0.365 0.8775,0.1475 L0.8775,0.1475 C0.8025,0.391 0.765,0.5135 0.69,0.7575 L0.69,0.7575 Z" id="path-27"></path>
        <linearGradient x1="95.430589%" y1="49.6606648%" x2="33.8378841%" y2="50%" id="linearGradient-29">
            <stop stop-color="#FFFFFF" stop-opacity="0.347465035" offset="0%"></stop>
            <stop stop-color="#000000" stop-opacity="0.474759615" offset="9.05035895%"></stop>
            <stop stop-color="#FFFFFF" stop-opacity="0" offset="100%"></stop>
        </linearGradient>
        <path d="M0,3.435 C0,3.9765 0.379,4.4155 0.846,4.416 L0.846,4.416 C11.91,4.4995 22.58,4.1535 22.659,2.3355 L22.659,2.3355 L22.659,2.281 C22.626,0.8475 20.7245,0.3375 18.036,0.3375 L18.036,0.3375 C11.4095,0.3375 0,3.435 0,3.435 M22.485,2.3655 C22.485,3.9 11.9365,4.427 0.847,4.352 L0.847,4.352 C0.8165,4.352 0.787,4.35 0.758,4.347 L0.758,4.347 C0.4185,4.3085 0.139,4.052 0.0395,3.7095 L0.0395,3.7095 C0.148,4.078 0.4675,4.3455 0.8455,4.3465 L0.8455,4.3465 C11.936,4.277 22.485,0.8615 22.485,2.3655" id="path-30"></path>
        <path d="M0.8475,2.6765 C0.3795,2.6765 0,3.0555 0,3.5235 L0,3.5235 L0,16.935 C0,17.401 0.3765,17.7785 0.842,17.7815 L0.842,17.7815 C11.9425,17.6995 22.673,14.025 22.6595127,15.819 L22.6595127,15.819 L22.6595127,0.713 C22.662,0.3625 22.2525,0.220499922 21.5095,0.220499922 L21.5095,0.220499922 C18.4585,0.22 9.774,2.6095 0.8475,2.6765 L0.8475,2.6765 Z" id="path-32"></path>
        <linearGradient x1="95.430589%" y1="49.6606798%" x2="33.8378841%" y2="50%" id="linearGradient-34">
            <stop stop-color="#FFFFFF" stop-opacity="0.347465035" offset="0%"></stop>
            <stop stop-color="#000000" stop-opacity="0.474759615" offset="9.05035895%"></stop>
            <stop stop-color="#FFFFFF" stop-opacity="0" offset="100%"></stop>
        </linearGradient>
    </defs>
    <g id="qwewqe" stroke="none" stroke-width="1" fill="none" fill-rule="evenodd">
        <g id="Group-48" transform="translate(1.000000, 0.000000)">
            <polygon id="Fill-1" fill="#FFFFFF" points="0 113.423 114.75 113.423 114.75 1 0 1"></polygon>
            <g id="Group-47" transform="translate(0.000000, 0.423000)">
                <polygon id="Stroke-2" stroke="#5DA9DD" stroke-width="2" points="0 113 114.75 113 114.75 0.577 0 0.577"></polygon>
                <path d="M19.4273,66.9298 L19.4273,72.4258 L20.4303,72.4258 C21.8113,72.4258 22.7523,71.4598 22.7523,69.7158 L22.7523,69.6528 C22.7523,67.9088 21.8113,66.9298 20.4303,66.9298 L19.4273,66.9298 Z M17.6073,65.2858 L20.4443,65.2858 C22.9903,65.2858 24.6343,67.0428 24.6343,69.6158 L24.6343,69.7288 C24.6343,72.3008 22.9903,74.0698 20.4443,74.0698 L17.6073,74.0698 L17.6073,65.2858 Z" id="Fill-4" fill="#00AEEF"></path>
                <polygon id="Fill-5" fill="#00AEEF" points="25.6002 65.2862 31.2592 65.2862 31.2592 66.9302 27.4072 66.9302 27.4072 68.8252 30.7952 68.8252 30.7952 70.4682 27.4072 70.4682 27.4072 72.4262 31.3092 72.4262 31.3092 74.0692 25.6002 74.0692"></polygon>
                <polygon id="Fill-6" fill="#00AEEF" points="31.6099 65.2862 33.5799 65.2862 35.4369 71.3342 37.2939 65.2862 39.2139 65.2862 36.2529 74.1202 34.5709 74.1202"></polygon>
                <polygon id="Fill-7" fill="#00AEEF" points="39.8404 65.2862 45.4994 65.2862 45.4994 66.9302 41.6474 66.9302 41.6474 68.8252 45.0354 68.8252 45.0354 70.4682 41.6474 70.4682 41.6474 72.4262 45.5494 72.4262 45.5494 74.0692 39.8404 74.0692"></polygon>
                <polygon id="Fill-8" fill="#00AEEF" points="46.5152 65.2862 48.3352 65.2862 48.3352 72.4002 51.8862 72.4002 51.8862 74.0692 46.5152 74.0692"></polygon>
                <path d="M57.9337,69.7281 L57.9337,69.6401 C57.9337,67.9081 57.0557,66.8171 55.8377,66.8171 C54.6087,66.8171 53.7427,67.8961 53.7427,69.6281 L53.7427,69.7161 C53.7427,71.4471 54.6337,72.5391 55.8507,72.5391 C57.0677,72.5391 57.9337,71.4601 57.9337,69.7281 M51.8727,69.7651 L51.8727,69.6151 C51.8727,66.9801 53.5297,65.1351 55.8507,65.1351 C58.1847,65.1351 59.8167,66.9681 59.8167,69.5891 L59.8167,69.7401 C59.8167,72.3631 58.1607,74.2211 55.8377,74.2211 C53.5037,74.2211 51.8727,72.3881 51.8727,69.7651" id="Fill-9" fill="#00AEEF"></path>
                <path d="M63.6295,69.7652 C64.5705,69.7652 65.0985,69.1762 65.0985,68.3602 L65.0985,68.3482 C65.0985,67.4322 64.5705,66.9302 63.6045,66.9302 L62.6135,66.9302 L62.6135,69.7652 L63.6295,69.7652 Z M60.7935,65.2862 L63.7175,65.2862 C65.6875,65.2862 66.9295,66.4282 66.9295,68.2972 L66.9295,68.3222 C66.9295,70.3432 65.4865,71.3592 63.6425,71.3972 L62.6135,71.3972 L62.6135,74.0702 L60.7935,74.0702 L60.7935,65.2862 Z" id="Fill-10" fill="#00AEEF"></path>
                <polygon id="Fill-11" fill="#00AEEF" points="67.6568 65.2862 69.5648 65.2862 71.5218 68.8492 73.4538 65.2862 75.3738 65.2862 75.3738 74.0692 73.5918 74.0692 73.5918 68.4602 71.5218 72.0862 71.4838 72.0862 69.4268 68.4852 69.4268 74.0692 67.6568 74.0692"></polygon>
                <polygon id="Fill-12" fill="#00AEEF" points="76.6656 65.2862 82.3246 65.2862 82.3246 66.9302 78.4726 66.9302 78.4726 68.8252 81.8606 68.8252 81.8606 70.4682 78.4726 70.4682 78.4726 72.4262 82.3746 72.4262 82.3746 74.0692 76.6656 74.0692"></polygon>
                <polygon id="Fill-13" fill="#00AEEF" points="83.3404 65.2862 85.0084 65.2862 88.3724 70.4052 88.3724 65.2862 90.1534 65.2862 90.1534 74.0692 88.5984 74.0692 85.1214 68.7622 85.1214 74.0692 83.3404 74.0692"></polygon>
                <polygon id="Fill-14" fill="#00AEEF" points="93.127 66.9674 90.919 66.9674 90.919 65.2864 97.143 65.2864 97.143 66.9674 94.934 66.9674 94.934 74.0694 93.127 74.0694"></polygon>
                <path d="M17.2505,61.1441 L18.4335,59.6721 C19.0805,60.2351 19.8655,60.7581 20.8285,60.7581 C21.5995,60.7581 22.0665,60.3731 22.0665,59.8091 L22.0665,59.7951 C22.0665,59.3131 21.7915,59.0111 20.4155,58.4871 C18.7085,57.8271 17.6495,57.1811 17.6495,55.5291 L17.6495,55.5011 C17.6495,53.8231 18.9425,52.6801 20.8005,52.6801 C21.9285,52.6801 23.0305,53.0661 23.9105,53.8641 L22.7965,55.3771 C22.1905,54.8821 21.4895,54.4831 20.7455,54.4831 C20.0575,54.4831 19.6315,54.8271 19.6315,55.3231 L19.6315,55.3361 C19.6315,55.8871 19.9615,56.1481 21.4615,56.7681 C23.1405,57.4281 24.0485,58.1441 24.0485,59.6441 L24.0485,59.6721 C24.0485,61.4601 22.6865,62.5611 20.8145,62.5611 C19.5905,62.5611 18.3095,62.1351 17.2505,61.1441" id="Fill-15" fill="#00AEEF"></path>
                <path d="M24.8873,58.694 L24.8873,52.804 L26.8823,52.804 L26.8823,58.708 C26.8823,60.07 27.5293,60.745 28.5613,60.745 C29.5943,60.745 30.2403,60.084 30.2403,58.749 L30.2403,52.804 L32.2223,52.804 L32.2223,58.653 C32.2223,61.309 30.7623,62.589 28.5333,62.589 C26.3183,62.589 24.8873,61.296 24.8873,58.694" id="Fill-16" fill="#00AEEF"></path>
                <path d="M32.813,61.1441 L33.996,59.6721 C34.644,60.2351 35.428,60.7581 36.391,60.7581 C37.162,60.7581 37.629,60.3731 37.629,59.8091 L37.629,59.7951 C37.629,59.3131 37.354,59.0111 35.979,58.4871 C34.271,57.8271 33.212,57.1811 33.212,55.5291 L33.212,55.5011 C33.212,53.8231 34.506,52.6801 36.364,52.6801 C37.491,52.6801 38.593,53.0661 39.474,53.8641 L38.359,55.3771 C37.753,54.8821 37.052,54.4831 36.309,54.4831 C35.62,54.4831 35.194,54.8271 35.194,55.3231 L35.194,55.3361 C35.194,55.8871 35.524,56.1481 37.024,56.7681 C38.703,57.4281 39.611,58.1441 39.611,59.6441 L39.611,59.6721 C39.611,61.4601 38.249,62.5611 36.377,62.5611 C35.152,62.5611 33.873,62.1351 32.813,61.1441" id="Fill-17" fill="#00AEEF"></path>
                <polygon id="Fill-18" fill="#00AEEF" points="42.211 54.6481 39.789 54.6481 39.789 52.8051 46.615 52.8051 46.615 54.6481 44.192 54.6481 44.192 62.4371 42.211 62.4371"></polygon>
                <path d="M51.1558,58.5841 L50.1098,55.4461 L49.0508,58.5841 L51.1558,58.5841 Z M49.1878,52.7491 L51.0868,52.7491 L54.5408,62.4371 L52.4758,62.4371 L51.7608,60.3451 L48.4448,60.3451 L47.7428,62.4371 L45.7338,62.4371 L49.1878,52.7491 Z" id="Fill-19" fill="#00AEEF"></path>
                <polygon id="Fill-20" fill="#00AEEF" points="55.297 62.437 57.292 62.437 57.292 52.804 55.297 52.804"></polygon>
                <polygon id="Fill-21" fill="#00AEEF" points="58.7779 52.8043 60.6079 52.8043 64.2969 58.4193 64.2969 52.8043 66.2509 52.8043 66.2509 62.4373 64.5439 62.4373 60.7319 56.6163 60.7319 62.4373 58.7779 62.4373"></polygon>
                <path d="M72.3599,58.5841 L71.3139,55.4461 L70.2549,58.5841 L72.3599,58.5841 Z M70.3919,52.7491 L72.2909,52.7491 L75.7449,62.4371 L73.6809,62.4371 L72.9649,60.3451 L69.6489,60.3451 L68.9479,62.4371 L66.9389,62.4371 L70.3919,52.7491 Z" id="Fill-22" fill="#00AEEF"></path>
                <path d="M80.1202,58.4191 L78.3722,58.4191 L78.3722,60.6751 L80.1622,60.6751 C81.0562,60.6751 81.6202,60.2911 81.6202,59.5471 L81.6202,59.5331 C81.6202,58.8451 81.1112,58.4191 80.1202,58.4191 L80.1202,58.4191 Z M81.2072,55.6391 C81.2072,54.9381 80.7122,54.5651 79.8582,54.5651 L78.3722,54.5651 L78.3722,56.7401 L79.7632,56.7401 C80.6432,56.7401 81.2072,56.3821 81.2072,55.6531 L81.2072,55.6391 Z M76.4322,52.8051 L80.0112,52.8051 C81.0832,52.8051 81.9782,53.0931 82.5292,53.6441 C82.9552,54.0851 83.1752,54.6071 83.1752,55.2811 L83.1752,55.3231 C83.1752,56.4511 82.5562,57.0571 81.8692,57.4281 C82.8992,57.8271 83.5882,58.4611 83.5882,59.7261 L83.5882,59.7951 C83.5882,61.5291 82.1992,62.4371 80.1072,62.4371 L76.4322,62.4371 L76.4322,52.8051 Z" id="Fill-23" fill="#00AEEF"></path>
                <polygon id="Fill-24" fill="#00AEEF" points="84.5235 52.8043 86.5185 52.8043 86.5185 60.6073 90.4135 60.6073 90.4135 62.4373 84.5235 62.4373"></polygon>
                <polygon id="Fill-25" fill="#00AEEF" points="91.2388 52.8043 97.4448 52.8043 97.4448 54.6073 93.2198 54.6073 93.2198 56.6843 96.9358 56.6843 96.9358 58.4873 93.2198 58.4873 93.2198 60.6353 97.4998 60.6353 97.4998 62.4373 91.2388 62.4373"></polygon>
                <path d="M27.1041,85.1447 L35.6201,85.1447 C35.4731,91.9927 31.6931,95.4277 26.6141,95.4277 C21.1401,95.4277 17.6311,90.8137 17.6311,85.8567 C17.6311,80.8987 21.1401,76.2847 26.6141,76.2847 C32.6751,76.2847 34.3441,80.0647 35.0311,82.0277 L31.1781,82.2727 C30.5151,80.6537 29.1891,79.5737 26.6141,79.5737 C23.7171,79.5737 21.4591,81.9297 21.4591,85.8567 C21.4591,89.1687 23.5451,92.1387 26.8591,92.1387 C29.8281,92.1387 31.2031,90.0287 31.5211,88.2867 L27.1041,88.2867 L27.1041,85.1447 Z" id="Fill-26" fill="#5091CD"></path>
                <polygon id="Fill-27" fill="#5091CD" points="72.0079 76.6793 75.6789 76.6793 75.6789 91.6583 82.7539 91.6583 82.7539 95.0853 72.0079 95.0853"></polygon>
                <path d="M93.0562,81.5255 C93.0562,80.2525 91.8322,79.4695 90.3642,79.4695 C88.5282,79.4695 87.4272,80.2765 87.4272,81.5005 C87.4272,82.7735 88.6502,83.3855 89.5562,83.6795 L92.9342,84.7555 C95.3812,85.5395 97.1192,86.9595 97.1192,89.7985 C97.1192,92.0495 95.5042,95.4275 90.4122,95.4275 C84.0242,95.4275 83.4372,91.2915 83.4372,89.6515 L87.1092,89.5785 C87.1092,91.5365 88.6502,92.2955 90.4372,92.2955 C91.6852,92.2955 93.4482,91.6825 93.4482,90.2635 C93.4482,89.2845 93.0322,88.7705 91.2202,88.1095 L87.2062,86.6655 C85.1752,85.9315 83.7552,84.1445 83.7552,82.0635 C83.7552,79.7135 85.3712,76.3365 90.1432,76.3365 C95.8222,76.3365 96.7272,80.1055 96.7272,81.4515 L93.0562,81.5255 Z" id="Fill-28" fill="#5091CD"></path>
                <path d="M41.4888,83.5934 C41.7158,83.2104 41.9888,82.8584 42.3028,82.5464 L39.6338,79.6184 C38.9618,80.2604 38.3888,81.0054 37.9388,81.8254 L41.4888,83.5934 Z" id="Fill-29" fill="#5FBB46"></path>
                <path d="M48.0333,81.526 C48.4373,81.711 48.8133,81.947 49.1533,82.227 L51.8303,79.304 C51.1253,78.696 50.3253,78.195 49.4573,77.824 L48.0333,81.526 Z" id="Fill-30" fill="#D19F2A"></path>
                <path d="M54.1646,82.4054 L50.6166,84.1754 C50.7866,84.5704 50.9066,84.9894 50.9716,85.4284 L54.9186,85.0554 C54.8026,84.1214 54.5436,83.2304 54.1646,82.4054" id="Fill-31" fill="#C22033"></path>
                <path d="M50.3619,83.6617 L53.9099,81.8927 C53.4699,81.0767 52.9099,80.3347 52.2519,79.6917 L49.5739,82.6137 C49.8799,82.9287 50.1449,83.2797 50.3619,83.6617" id="Fill-32" fill="#2D9A47"></path>
                <path d="M40.7838,86.1837 C40.7838,86.1037 40.7858,86.0237 40.7898,85.9447 L36.8418,85.5907 C36.8288,85.7867 36.8218,85.9837 36.8218,86.1837 C36.8218,86.9407 36.9158,87.6767 37.0908,88.3797 L40.9038,87.2857 C40.8258,86.9307 40.7838,86.5617 40.7838,86.1837" id="Fill-33" fill="#48773C"></path>
                <path d="M49.8648,89.4288 C49.5848,89.7698 49.2608,90.0748 48.9018,90.3338 L50.9868,93.7088 C51.7608,93.1848 52.4488,92.5448 53.0278,91.8138 L49.8648,89.4288 Z" id="Fill-34" fill="#FDB714"></path>
                <path d="M51.0269,86.1837 C51.0269,86.5577 50.9869,86.9217 50.9089,87.2727 L54.7219,88.3687 C54.8959,87.6687 54.9879,86.9357 54.9879,86.1837 C54.9879,85.9967 54.9829,85.8097 54.9709,85.6257 L51.0239,85.9977 C51.0259,86.0607 51.0269,86.1217 51.0269,86.1837" id="Fill-35" fill="#EF412A"></path>
                <path d="M42.0093,89.5035 L38.8543,91.9015 C39.4413,92.6255 40.1353,93.2545 40.9153,93.7685 L42.9993,90.3985 C42.6313,90.1435 42.2993,89.8425 42.0093,89.5035" id="Fill-36" fill="#F99D25"></path>
                <path d="M40.8482,85.3746 C40.9182,84.9286 41.0482,84.5026 41.2262,84.1026 L37.6792,82.3356 C37.2872,83.1696 37.0182,84.0726 36.8952,85.0206 L40.8482,85.3746 Z" id="Fill-37" fill="#007DBB"></path>
                <path d="M50.5015,94.0148 L48.4195,90.6438 C48.0425,90.8578 47.6355,91.0248 47.2055,91.1378 L47.9395,95.0368 C48.8545,94.8268 49.7155,94.4778 50.5015,94.0148" id="Fill-38" fill="#8F1838"></path>
                <path d="M50.7579,87.8248 C50.6189,88.2298 50.4329,88.6128 50.2029,88.9668 L53.3689,91.3538 C53.8829,90.6148 54.2889,89.7958 54.5669,88.9198 L50.7579,87.8248 Z" id="Fill-39" fill="#00ADD8"></path>
                <path d="M46.6441,91.2511 C46.4031,91.2861 46.1561,91.3061 45.9051,91.3061 C45.7041,91.3061 45.5051,91.2931 45.3091,91.2701 L44.5751,95.1691 C45.0101,95.2321 45.4541,95.2671 45.9051,95.2671 C46.4071,95.2671 46.8981,95.2251 47.3771,95.1471 L46.6441,91.2511 Z" id="Fill-40" fill="#F36E24"></path>
                <path d="M46.233,81.0724 C46.673,81.1004 47.097,81.1844 47.5,81.3174 L48.924,77.6164 C48.077,77.3164 47.173,77.1394 46.233,77.1074 L46.233,81.0724 Z" id="Fill-41" fill="#EA1D2D"></path>
                <path d="M44.7452,91.1725 C44.3012,91.0685 43.8792,90.9075 43.4872,90.6965 L41.4012,94.0695 C42.2042,94.5285 43.0812,94.8685 44.0112,95.0675 L44.7452,91.1725 Z" id="Fill-42" fill="#E01A83"></path>
                <path d="M44.3658,81.2984 C44.7768,81.1684 45.2108,81.0894 45.6598,81.0694 L45.6598,77.1034 C44.7068,77.1284 43.7908,77.3014 42.9318,77.6004 L44.3658,81.2984 Z" id="Fill-43" fill="#1A3667"></path>
                <path d="M41.6622,89.0485 C41.4112,88.6765 41.2052,88.2705 41.0582,87.8375 L37.2472,88.9305 C37.5372,89.8395 37.9642,90.6865 38.5062,91.4465 L41.6622,89.0485 Z" id="Fill-44" fill="#CD8B2A"></path>
                <path d="M42.732,82.1661 C43.067,81.9011 43.436,81.6771 43.831,81.5011 L42.398,77.8051 C41.544,78.1641 40.758,78.6481 40.061,79.2371 L42.732,82.1661 Z" id="Fill-45" fill="#00558A"></path>
                <path d="M62.6129,80.9137 L62.5639,80.9137 L60.2069,88.1587 L64.9949,88.1587 L62.6129,80.9137 Z M65.9879,91.1847 L59.1649,91.1847 L57.9489,95.0807 L53.9299,95.0807 L60.7279,76.4227 L64.6479,76.4227 L71.3459,95.0807 L67.2529,95.0807 L65.9879,91.1847 Z" id="Fill-46" fill="#5091CD"></path>
            </g>
            <g id="Group" transform="translate(30.000000, 18.000000)">
                <g id="icon_book_flag_eu">
                    <path d="M0,17.21485 C0,17.75435 0.3765,18.19185 0.8425,18.19535 C11.942,18.27185 22.659,17.76235 22.659,16.09885 C22.659,14.63635 20.748,14.11735 18.036,14.11735 C11.409,14.11735 0,17.21485 0,17.21485" id="Fill-1" fill="#0B133A"></path>
                    <g id="Group-5" transform="translate(0.000000, 13.779800)">
                        <mask id="mask-2" fill="white">
                            <use xlink:href="#path-1"></use>
                        </mask>
                        <g id="Clip-4"></g>
                        <path d="M0,3.435 C0,3.9765 0.379,4.4155 0.8465,4.416 L0.8465,4.416 C11.944,4.5 22.6455,4.1515 22.659,2.319 L22.659,2.319 C22.659,0.857 20.7475,0.3375 18.036,0.3375 L18.036,0.3375 C11.4095,0.3375 0,3.435 0,3.435 M22.485,2.3655 C22.485,3.9 11.9365,4.427 0.847,4.352 L0.847,4.352 C0.8165,4.352 0.7875,4.35 0.7585,4.347 L0.7585,4.347 C0.4185,4.3085 0.139,4.0525 0.0395,3.7095 L0.0395,3.7095 C0.148,4.078 0.4675,4.3455 0.8455,4.3465 L0.8455,4.3465 C11.936,4.277 22.485,0.862 22.485,2.3655" id="Fill-3" mask="url(#mask-2)"></path>
                    </g>
                    <g id="Group-263" transform="translate(0.000000, 0.279800)">
                        <mask id="mask-4" fill="white">
                            <use xlink:href="#path-3"></use>
                        </mask>
                        <use id="Clip-7" fill="#4667A9" xlink:href="#path-3"></use>
                    </g>
                    <g id="Group-285" transform="translate(14.500000, 10.279800)">
                        <mask id="mask-6" fill="white">
                            <use xlink:href="#path-5"></use>
                        </mask>
                        <g id="Clip-265"></g>
                        <polygon id="Fill-264" fill="#FCDA37" mask="url(#mask-6)" points="0.4125 1.8665 0.503 1.8665 0.503 0.2725 0.4125 0.2725"></polygon>
                        <polygon id="Fill-266" fill="#FCDA37" mask="url(#mask-6)" points="0.4585 1.8665 0.5915 1.8665 0.5915 0.2725 0.4585 0.2725"></polygon>
                        <polygon id="Fill-267" fill="#FDDA37" mask="url(#mask-6)" points="0.547 1.8665 0.6795 1.8665 0.6795 0.2725 0.547 0.2725"></polygon>
                        <polygon id="Fill-268" fill="#FDDB38" mask="url(#mask-6)" points="0.6355 1.8665 0.7685 1.8665 0.7685 0.2725 0.6355 0.2725"></polygon>
                        <polygon id="Fill-269" fill="#FDDB38" mask="url(#mask-6)" points="0.724 1.8665 0.857 1.8665 0.857 0.2725 0.724 0.2725"></polygon>
                        <polygon id="Fill-270" fill="#FDDB38" mask="url(#mask-6)" points="0.8125 1.8665 0.9455 1.8665 0.9455 0.2725 0.8125 0.2725"></polygon>
                        <polygon id="Fill-271" fill="#FDDB38" mask="url(#mask-6)" points="0.901 1.8665 1.034 1.8665 1.034 0.2725 0.901 0.2725"></polygon>
                        <polygon id="Fill-272" fill="#FDDB38" mask="url(#mask-6)" points="0.99 1.8665 1.123 1.8665 1.123 0.2725 0.99 0.2725"></polygon>
                        <polygon id="Fill-273" fill="#FDDB38" mask="url(#mask-6)" points="1.078 1.8665 1.211 1.8665 1.211 0.2725 1.078 0.2725"></polygon>
                        <polygon id="Fill-274" fill="#FDDB38" mask="url(#mask-6)" points="1.167 1.8665 1.3 1.8665 1.3 0.2725 1.167 0.2725"></polygon>
                        <polygon id="Fill-275" fill="#FDDB38" mask="url(#mask-6)" points="1.255 1.8665 1.388 1.8665 1.388 0.2725 1.255 0.2725"></polygon>
                        <polygon id="Fill-276" fill="#FDDB38" mask="url(#mask-6)" points="1.344 1.8665 1.477 1.8665 1.477 0.2725 1.344 0.2725"></polygon>
                        <polygon id="Fill-277" fill="#FDDB38" mask="url(#mask-6)" points="1.4325 1.8665 1.565 1.8665 1.565 0.2725 1.4325 0.2725"></polygon>
                        <polygon id="Fill-278" fill="#FDDB38" mask="url(#mask-6)" points="1.521 1.8665 1.654 1.8665 1.654 0.2725 1.521 0.2725"></polygon>
                        <polygon id="Fill-279" fill="#FDDB38" mask="url(#mask-6)" points="1.6095 1.8665 1.742 1.8665 1.742 0.2725 1.6095 0.2725"></polygon>
                        <polygon id="Fill-280" fill="#FDDB38" mask="url(#mask-6)" points="1.698 1.8665 1.831 1.8665 1.831 0.2725 1.698 0.2725"></polygon>
                        <polygon id="Fill-281" fill="#FDDC38" mask="url(#mask-6)" points="1.7865 1.8665 1.919 1.8665 1.919 0.2725 1.7865 0.2725"></polygon>
                        <polygon id="Fill-282" fill="#FDDC38" mask="url(#mask-6)" points="1.875 1.8665 2.008 1.8665 2.008 0.2725 1.875 0.2725"></polygon>
                        <polygon id="Fill-283" fill="#FDDC38" mask="url(#mask-6)" points="1.9635 1.8665 2.096 1.8665 2.096 0.2725 1.9635 0.2725"></polygon>
                        <polygon id="Fill-284" fill="#FDDC38" mask="url(#mask-6)" points="1.9985 1.8665 2.052 1.8665 2.052 0.2725 1.9985 0.2725"></polygon>
                    </g>
                    <g id="Group-307" transform="translate(13.000000, 12.279800)">
                        <mask id="mask-8" fill="white">
                            <use xlink:href="#path-7"></use>
                        </mask>
                        <g id="Clip-287"></g>
                        <polygon id="Fill-286" fill="#FCD836" mask="url(#mask-8)" points="0.0785 2.0155 0.144 2.0155 0.144 0.4255 0.0785 0.4255"></polygon>
                        <polygon id="Fill-288" fill="#FCD836" mask="url(#mask-8)" points="0.1 2.0155 0.233 2.0155 0.233 0.4255 0.1 0.4255"></polygon>
                        <polygon id="Fill-289" fill="#FCD835" mask="url(#mask-8)" points="0.188 2.0155 0.321 2.0155 0.321 0.4255 0.188 0.4255"></polygon>
                        <polygon id="Fill-290" fill="#FCD835" mask="url(#mask-8)" points="0.277 2.0155 0.41 2.0155 0.41 0.4255 0.277 0.4255"></polygon>
                        <polygon id="Fill-291" fill="#FCD837" mask="url(#mask-8)" points="0.365 2.0155 0.498 2.0155 0.498 0.4255 0.365 0.4255"></polygon>
                        <polygon id="Fill-292" fill="#FCD837" mask="url(#mask-8)" points="0.454 2.0155 0.587 2.0155 0.587 0.4255 0.454 0.4255"></polygon>
                        <polygon id="Fill-293" fill="#FCD837" mask="url(#mask-8)" points="0.5425 2.0155 0.6755 2.0155 0.6755 0.4255 0.5425 0.4255"></polygon>
                        <polygon id="Fill-294" fill="#FCD837" mask="url(#mask-8)" points="0.631 2.0155 0.764 2.0155 0.764 0.4255 0.631 0.4255"></polygon>
                        <polygon id="Fill-295" fill="#FCD837" mask="url(#mask-8)" points="0.7195 2.0155 0.8525 2.0155 0.8525 0.4255 0.7195 0.4255"></polygon>
                        <polygon id="Fill-296" fill="#FCD937" mask="url(#mask-8)" points="0.808 2.0155 0.9405 2.0155 0.9405 0.4255 0.808 0.4255"></polygon>
                        <polygon id="Fill-297" fill="#FCD937" mask="url(#mask-8)" points="0.8965 2.0155 1.0295 2.0155 1.0295 0.4255 0.8965 0.4255"></polygon>
                        <polygon id="Fill-298" fill="#FCD937" mask="url(#mask-8)" points="0.985 2.0155 1.1175 2.0155 1.1175 0.4255 0.985 0.4255"></polygon>
                        <polygon id="Fill-299" fill="#FCD937" mask="url(#mask-8)" points="1.0735 2.0155 1.2065 2.0155 1.2065 0.4255 1.0735 0.4255"></polygon>
                        <polygon id="Fill-300" fill="#FCD937" mask="url(#mask-8)" points="1.162 2.0155 1.295 2.0155 1.295 0.4255 1.162 0.4255"></polygon>
                        <polygon id="Fill-301" fill="#FCD937" mask="url(#mask-8)" points="1.2505 2.0155 1.3835 2.0155 1.3835 0.4255 1.2505 0.4255"></polygon>
                        <polygon id="Fill-302" fill="#FCD937" mask="url(#mask-8)" points="1.339 2.0155 1.472 2.0155 1.472 0.4255 1.339 0.4255"></polygon>
                        <polygon id="Fill-303" fill="#FCDA37" mask="url(#mask-8)" points="1.4275 2.0155 1.5605 2.0155 1.5605 0.4255 1.4275 0.4255"></polygon>
                        <polygon id="Fill-304" fill="#FCDA37" mask="url(#mask-8)" points="1.516 2.0155 1.649 2.0155 1.649 0.4255 1.516 0.4255"></polygon>
                        <polygon id="Fill-305" fill="#FCDA37" mask="url(#mask-8)" points="1.6045 2.0155 1.7375 2.0155 1.7375 0.4255 1.6045 0.4255"></polygon>
                        <polygon id="Fill-306" fill="#FCDA37" mask="url(#mask-8)" points="1.663 2.0155 1.693 2.0155 1.693 0.4255 1.663 0.4255"></polygon>
                    </g>
                    <g id="Group-329" transform="translate(10.500000, 13.279800)">
                        <mask id="mask-10" fill="white">
                            <use xlink:href="#path-9"></use>
                        </mask>
                        <g id="Clip-309"></g>
                        <polygon id="Fill-308" fill="#FDD534" mask="url(#mask-10)" points="0.068 2.078 0.1655 2.078 0.1655 0.4935 0.068 0.4935"></polygon>
                        <polygon id="Fill-310" fill="#FCD635" mask="url(#mask-10)" points="0.1215 2.078 0.2545 2.078 0.2545 0.4935 0.1215 0.4935"></polygon>
                        <polygon id="Fill-311" fill="#FCD635" mask="url(#mask-10)" points="0.21 2.078 0.343 2.078 0.343 0.4935 0.21 0.4935"></polygon>
                        <polygon id="Fill-312" fill="#FCD635" mask="url(#mask-10)" points="0.2985 2.078 0.4315 2.078 0.4315 0.4935 0.2985 0.4935"></polygon>
                        <polygon id="Fill-313" fill="#FCD635" mask="url(#mask-10)" points="0.387 2.078 0.5195 2.078 0.5195 0.4935 0.387 0.4935"></polygon>
                        <polygon id="Fill-314" fill="#FCD635" mask="url(#mask-10)" points="0.4755 2.078 0.6085 2.078 0.6085 0.4935 0.4755 0.4935"></polygon>
                        <polygon id="Fill-315" fill="#FCD635" mask="url(#mask-10)" points="0.564 2.078 0.6965 2.078 0.6965 0.4935 0.564 0.4935"></polygon>
                        <polygon id="Fill-316" fill="#FCD635" mask="url(#mask-10)" points="0.6525 2.078 0.7855 2.078 0.7855 0.4935 0.6525 0.4935"></polygon>
                        <polygon id="Fill-317" fill="#FCD634" mask="url(#mask-10)" points="0.741 2.078 0.8735 2.078 0.8735 0.4935 0.741 0.4935"></polygon>
                        <polygon id="Fill-318" fill="#FCD634" mask="url(#mask-10)" points="0.8295 2.078 0.9625 2.078 0.9625 0.4935 0.8295 0.4935"></polygon>
                        <polygon id="Fill-319" fill="#FCD634" mask="url(#mask-10)" points="0.918 2.078 1.051 2.078 1.051 0.4935 0.918 0.4935"></polygon>
                        <polygon id="Fill-320" fill="#FCD634" mask="url(#mask-10)" points="1.0065 2.078 1.1395 2.078 1.1395 0.4935 1.0065 0.4935"></polygon>
                        <polygon id="Fill-321" fill="#FCD636" mask="url(#mask-10)" points="1.095 2.078 1.228 2.078 1.228 0.4935 1.095 0.4935"></polygon>
                        <polygon id="Fill-322" fill="#FCD636" mask="url(#mask-10)" points="1.1835 2.078 1.3165 2.078 1.3165 0.4935 1.1835 0.4935"></polygon>
                        <polygon id="Fill-323" fill="#FCD636" mask="url(#mask-10)" points="1.272 2.078 1.405 2.078 1.405 0.4935 1.272 0.4935"></polygon>
                        <polygon id="Fill-324" fill="#FCD636" mask="url(#mask-10)" points="1.361 2.078 1.494 2.078 1.494 0.4935 1.361 0.4935"></polygon>
                        <polygon id="Fill-325" fill="#FCD736" mask="url(#mask-10)" points="1.449 2.078 1.582 2.078 1.582 0.4935 1.449 0.4935"></polygon>
                        <polygon id="Fill-326" fill="#FCD736" mask="url(#mask-10)" points="1.538 2.078 1.671 2.078 1.671 0.4935 1.538 0.4935"></polygon>
                        <polygon id="Fill-327" fill="#FCD736" mask="url(#mask-10)" points="1.6265 2.078 1.759 2.078 1.759 0.4935 1.6265 0.4935"></polygon>
                        <polygon id="Fill-328" fill="#FCD736" mask="url(#mask-10)" points="1.655 2.078 1.715 2.078 1.715 0.4935 1.655 0.4935"></polygon>
                    </g>
                    <g id="Group-351" transform="translate(8.000000, 13.279800)">
                        <mask id="mask-12" fill="white">
                            <use xlink:href="#path-11"></use>
                        </mask>
                        <g id="Clip-331"></g>
                        <polygon id="Fill-330" fill="#FCD233" mask="url(#mask-12)" points="0.054 1.734 0.099 1.734 0.099 0.164 0.054 0.164"></polygon>
                        <polygon id="Fill-332" fill="#FCD233" mask="url(#mask-12)" points="0.055 1.734 0.1875 1.734 0.1875 0.164 0.055 0.164"></polygon>
                        <polygon id="Fill-333" fill="#FCD333" mask="url(#mask-12)" points="0.1435 1.734 0.2765 1.734 0.2765 0.164 0.1435 0.164"></polygon>
                        <polygon id="Fill-334" fill="#FCD333" mask="url(#mask-12)" points="0.2315 1.734 0.3645 1.734 0.3645 0.164 0.2315 0.164"></polygon>
                        <polygon id="Fill-335" fill="#FCD333" mask="url(#mask-12)" points="0.3205 1.734 0.4535 1.734 0.4535 0.164 0.3205 0.164"></polygon>
                        <polygon id="Fill-336" fill="#FCD333" mask="url(#mask-12)" points="0.409 1.734 0.542 1.734 0.542 0.164 0.409 0.164"></polygon>
                        <polygon id="Fill-337" fill="#FCD333" mask="url(#mask-12)" points="0.4975 1.734 0.63 1.734 0.63 0.164 0.4975 0.164"></polygon>
                        <polygon id="Fill-338" fill="#FCD333" mask="url(#mask-12)" points="0.586 1.734 0.719 1.734 0.719 0.164 0.586 0.164"></polygon>
                        <polygon id="Fill-339" fill="#FCD333" mask="url(#mask-12)" points="0.6745 1.734 0.807 1.734 0.807 0.164 0.6745 0.164"></polygon>
                        <polygon id="Fill-340" fill="#FDD433" mask="url(#mask-12)" points="0.763 1.734 0.896 1.734 0.896 0.164 0.763 0.164"></polygon>
                        <polygon id="Fill-341" fill="#FDD433" mask="url(#mask-12)" points="0.8515 1.734 0.984 1.734 0.984 0.164 0.8515 0.164"></polygon>
                        <polygon id="Fill-342" fill="#FDD433" mask="url(#mask-12)" points="0.94 1.734 1.073 1.734 1.073 0.164 0.94 0.164"></polygon>
                        <polygon id="Fill-343" fill="#FDD433" mask="url(#mask-12)" points="1.0285 1.734 1.1615 1.734 1.1615 0.164 1.0285 0.164"></polygon>
                        <polygon id="Fill-344" fill="#FDD433" mask="url(#mask-12)" points="1.117 1.734 1.25 1.734 1.25 0.164 1.117 0.164"></polygon>
                        <polygon id="Fill-345" fill="#FDD433" mask="url(#mask-12)" points="1.2055 1.734 1.3385 1.734 1.3385 0.164 1.2055 0.164"></polygon>
                        <polygon id="Fill-346" fill="#FDD433" mask="url(#mask-12)" points="1.294 1.734 1.427 1.734 1.427 0.164 1.294 0.164"></polygon>
                        <polygon id="Fill-347" fill="#FDD433" mask="url(#mask-12)" points="1.3825 1.734 1.5155 1.734 1.5155 0.164 1.3825 0.164"></polygon>
                        <polygon id="Fill-348" fill="#FDD433" mask="url(#mask-12)" points="1.471 1.734 1.604 1.734 1.604 0.164 1.471 0.164"></polygon>
                        <polygon id="Fill-349" fill="#FDD433" mask="url(#mask-12)" points="1.5595 1.734 1.6925 1.734 1.6925 0.164 1.5595 0.164"></polygon>
                        <polygon id="Fill-350" fill="#FDD433" mask="url(#mask-12)" points="1.6445 1.734 1.648 1.734 1.648 0.164 1.6445 0.164"></polygon>
                    </g>
                    <g id="Group-373" transform="translate(6.000000, 11.779800)">
                        <mask id="mask-14" fill="white">
                            <use xlink:href="#path-13"></use>
                        </mask>
                        <g id="Clip-353"></g>
                        <polygon id="Fill-352" fill="#FCD032" mask="url(#mask-14)" points="0.211 1.5935 0.329 1.5935 0.329 0.035 0.211 0.035"></polygon>
                        <polygon id="Fill-354" fill="#FCD132" mask="url(#mask-14)" points="0.2845 1.5935 0.4175 1.5935 0.4175 0.035 0.2845 0.035"></polygon>
                        <polygon id="Fill-355" fill="#FCD132" mask="url(#mask-14)" points="0.373 1.5935 0.506 1.5935 0.506 0.035 0.373 0.035"></polygon>
                        <polygon id="Fill-356" fill="#FCD132" mask="url(#mask-14)" points="0.4615 1.5935 0.5945 1.5935 0.5945 0.035 0.4615 0.035"></polygon>
                        <polygon id="Fill-357" fill="#FCD132" mask="url(#mask-14)" points="0.55 1.5935 0.683 1.5935 0.683 0.035 0.55 0.035"></polygon>
                        <polygon id="Fill-358" fill="#FCD132" mask="url(#mask-14)" points="0.6385 1.5935 0.7715 1.5935 0.7715 0.035 0.6385 0.035"></polygon>
                        <polygon id="Fill-359" fill="#FCD132" mask="url(#mask-14)" points="0.727 1.5935 0.86 1.5935 0.86 0.035 0.727 0.035"></polygon>
                        <polygon id="Fill-360" fill="#FCD132" mask="url(#mask-14)" points="0.8155 1.5935 0.9485 1.5935 0.9485 0.035 0.8155 0.035"></polygon>
                        <polygon id="Fill-361" fill="#FCD232" mask="url(#mask-14)" points="0.904 1.5935 1.037 1.5935 1.037 0.035 0.904 0.035"></polygon>
                        <polygon id="Fill-362" fill="#FCD232" mask="url(#mask-14)" points="0.9925 1.5935 1.125 1.5935 1.125 0.035 0.9925 0.035"></polygon>
                        <polygon id="Fill-363" fill="#FCD232" mask="url(#mask-14)" points="1.081 1.5935 1.214 1.5935 1.214 0.035 1.081 0.035"></polygon>
                        <polygon id="Fill-364" fill="#FCD232" mask="url(#mask-14)" points="1.1695 1.5935 1.302 1.5935 1.302 0.035 1.1695 0.035"></polygon>
                        <polygon id="Fill-365" fill="#FCD232" mask="url(#mask-14)" points="1.258 1.5935 1.391 1.5935 1.391 0.035 1.258 0.035"></polygon>
                        <polygon id="Fill-366" fill="#FCD232" mask="url(#mask-14)" points="1.3465 1.5935 1.479 1.5935 1.479 0.035 1.3465 0.035"></polygon>
                        <polygon id="Fill-367" fill="#FCD232" mask="url(#mask-14)" points="1.435 1.5935 1.568 1.5935 1.568 0.035 1.435 0.035"></polygon>
                        <polygon id="Fill-368" fill="#FCD232" mask="url(#mask-14)" points="1.5235 1.5935 1.6565 1.5935 1.6565 0.035 1.5235 0.035"></polygon>
                        <polygon id="Fill-369" fill="#FCD232" mask="url(#mask-14)" points="1.612 1.5935 1.745 1.5935 1.745 0.035 1.612 0.035"></polygon>
                        <polygon id="Fill-370" fill="#FCD232" mask="url(#mask-14)" points="1.7005 1.5935 1.8335 1.5935 1.8335 0.035 1.7005 0.035"></polygon>
                        <polygon id="Fill-371" fill="#FCD232" mask="url(#mask-14)" points="1.7895 1.5935 1.922 1.5935 1.922 0.035 1.7895 0.035"></polygon>
                        <polygon id="Fill-372" fill="#FCD232" mask="url(#mask-14)" points="1.804 1.5935 1.8775 1.5935 1.8775 0.035 1.804 0.035"></polygon>
                    </g>
                    <g id="Group-395" transform="translate(5.500000, 9.279800)">
                        <mask id="mask-16" fill="white">
                            <use xlink:href="#path-15"></use>
                        </mask>
                        <g id="Clip-375"></g>
                        <polygon id="Fill-374" fill="#FCCF31" mask="url(#mask-16)" points="0.037 1.647 0.1205 1.647 0.1205 0.092 0.037 0.092"></polygon>
                        <polygon id="Fill-376" fill="#FCCF31" mask="url(#mask-16)" points="0.0765 1.647 0.2095 1.647 0.2095 0.092 0.0765 0.092"></polygon>
                        <polygon id="Fill-377" fill="#FCD031" mask="url(#mask-16)" points="0.165 1.647 0.298 1.647 0.298 0.092 0.165 0.092"></polygon>
                        <polygon id="Fill-378" fill="#FCD031" mask="url(#mask-16)" points="0.2535 1.647 0.3865 1.647 0.3865 0.092 0.2535 0.092"></polygon>
                        <polygon id="Fill-379" fill="#FCD031" mask="url(#mask-16)" points="0.342 1.647 0.475 1.647 0.475 0.092 0.342 0.092"></polygon>
                        <polygon id="Fill-380" fill="#FCD031" mask="url(#mask-16)" points="0.4305 1.647 0.5635 1.647 0.5635 0.092 0.4305 0.092"></polygon>
                        <polygon id="Fill-381" fill="#FCD031" mask="url(#mask-16)" points="0.519 1.647 0.652 1.647 0.652 0.092 0.519 0.092"></polygon>
                        <polygon id="Fill-382" fill="#FCD032" mask="url(#mask-16)" points="0.6075 1.647 0.74 1.647 0.74 0.092 0.6075 0.092"></polygon>
                        <polygon id="Fill-383" fill="#FCD032" mask="url(#mask-16)" points="0.696 1.647 0.829 1.647 0.829 0.092 0.696 0.092"></polygon>
                        <polygon id="Fill-384" fill="#FCD132" mask="url(#mask-16)" points="0.7845 1.647 0.9175 1.647 0.9175 0.092 0.7845 0.092"></polygon>
                        <polygon id="Fill-385" fill="#FCD132" mask="url(#mask-16)" points="0.873 1.647 1.006 1.647 1.006 0.092 0.873 0.092"></polygon>
                        <polygon id="Fill-386" fill="#FCD132" mask="url(#mask-16)" points="0.9615 1.647 1.0945 1.647 1.0945 0.092 0.9615 0.092"></polygon>
                        <polygon id="Fill-387" fill="#FCD132" mask="url(#mask-16)" points="1.05 1.647 1.183 1.647 1.183 0.092 1.05 0.092"></polygon>
                        <polygon id="Fill-388" fill="#FCD132" mask="url(#mask-16)" points="1.1385 1.647 1.2715 1.647 1.2715 0.092 1.1385 0.092"></polygon>
                        <polygon id="Fill-389" fill="#FCD132" mask="url(#mask-16)" points="1.2275 1.647 1.3605 1.647 1.3605 0.092 1.2275 0.092"></polygon>
                        <polygon id="Fill-390" fill="#FCD132" mask="url(#mask-16)" points="1.3155 1.647 1.4485 1.647 1.4485 0.092 1.3155 0.092"></polygon>
                        <polygon id="Fill-391" fill="#FCD232" mask="url(#mask-16)" points="1.4045 1.647 1.5375 1.647 1.5375 0.092 1.4045 0.092"></polygon>
                        <polygon id="Fill-392" fill="#FCD232" mask="url(#mask-16)" points="1.4925 1.647 1.6255 1.647 1.6255 0.092 1.4925 0.092"></polygon>
                        <polygon id="Fill-393" fill="#FCD232" mask="url(#mask-16)" points="1.5815 1.647 1.7145 1.647 1.7145 0.092 1.5815 0.092"></polygon>
                        <polygon id="Fill-394" fill="#FCD232" mask="url(#mask-16)" points="1.6295 1.647 1.6695 1.647 1.6695 0.092 1.6295 0.092"></polygon>
                    </g>
                    <g id="Group-417" transform="translate(6.000000, 6.779800)">
                        <mask id="mask-18" fill="white">
                            <use xlink:href="#path-17"></use>
                        </mask>
                        <g id="Clip-397"></g>
                        <polygon id="Fill-396" fill="#FCD032" mask="url(#mask-18)" points="0.211 1.575 0.329 1.575 0.329 0.017 0.211 0.017"></polygon>
                        <polygon id="Fill-398" fill="#FCD132" mask="url(#mask-18)" points="0.2845 1.575 0.417 1.575 0.417 0.017 0.2845 0.017"></polygon>
                        <polygon id="Fill-399" fill="#FCD132" mask="url(#mask-18)" points="0.373 1.575 0.506 1.575 0.506 0.017 0.373 0.017"></polygon>
                        <polygon id="Fill-400" fill="#FCD132" mask="url(#mask-18)" points="0.4615 1.575 0.5945 1.575 0.5945 0.017 0.4615 0.017"></polygon>
                        <polygon id="Fill-401" fill="#FCD132" mask="url(#mask-18)" points="0.55 1.575 0.683 1.575 0.683 0.017 0.55 0.017"></polygon>
                        <polygon id="Fill-402" fill="#FCD132" mask="url(#mask-18)" points="0.6385 1.575 0.7715 1.575 0.7715 0.017 0.6385 0.017"></polygon>
                        <polygon id="Fill-403" fill="#FCD132" mask="url(#mask-18)" points="0.7275 1.575 0.8605 1.575 0.8605 0.017 0.7275 0.017"></polygon>
                        <polygon id="Fill-404" fill="#FCD132" mask="url(#mask-18)" points="0.8155 1.575 0.9485 1.575 0.9485 0.017 0.8155 0.017"></polygon>
                        <polygon id="Fill-405" fill="#FCD232" mask="url(#mask-18)" points="0.9045 1.575 1.037 1.575 1.037 0.017 0.9045 0.017"></polygon>
                        <polygon id="Fill-406" fill="#FCD232" mask="url(#mask-18)" points="0.9925 1.575 1.1255 1.575 1.1255 0.017 0.9925 0.017"></polygon>
                        <polygon id="Fill-407" fill="#FCD232" mask="url(#mask-18)" points="1.0815 1.575 1.214 1.575 1.214 0.017 1.0815 0.017"></polygon>
                        <polygon id="Fill-408" fill="#FCD232" mask="url(#mask-18)" points="1.1695 1.575 1.3025 1.575 1.3025 0.017 1.1695 0.017"></polygon>
                        <polygon id="Fill-409" fill="#FCD232" mask="url(#mask-18)" points="1.2585 1.575 1.391 1.575 1.391 0.017 1.2585 0.017"></polygon>
                        <polygon id="Fill-410" fill="#FCD232" mask="url(#mask-18)" points="1.3465 1.575 1.4795 1.575 1.4795 0.017 1.3465 0.017"></polygon>
                        <polygon id="Fill-411" fill="#FCD232" mask="url(#mask-18)" points="1.4355 1.575 1.568 1.575 1.568 0.017 1.4355 0.017"></polygon>
                        <polygon id="Fill-412" fill="#FCD232" mask="url(#mask-18)" points="1.5235 1.575 1.6565 1.575 1.6565 0.017 1.5235 0.017"></polygon>
                        <polygon id="Fill-413" fill="#FCD232" mask="url(#mask-18)" points="1.6125 1.575 1.745 1.575 1.745 0.017 1.6125 0.017"></polygon>
                        <polygon id="Fill-414" fill="#FCD232" mask="url(#mask-18)" points="1.7005 1.575 1.8335 1.575 1.8335 0.017 1.7005 0.017"></polygon>
                        <polygon id="Fill-415" fill="#FCD232" mask="url(#mask-18)" points="1.7895 1.575 1.922 1.575 1.922 0.017 1.7895 0.017"></polygon>
                        <polygon id="Fill-416" fill="#FCD232" mask="url(#mask-18)" points="1.8045 1.575 1.8775 1.575 1.8775 0.017 1.8045 0.017"></polygon>
                    </g>
                    <g id="Group-439" transform="translate(8.000000, 4.279800)">
                        <mask id="mask-20" fill="white">
                            <use xlink:href="#path-19"></use>
                        </mask>
                        <g id="Clip-419"></g>
                        <polygon id="Fill-418" fill="#FCD233" mask="url(#mask-20)" points="0.0545 2.0425 0.099 2.0425 0.099 0.4725 0.0545 0.4725"></polygon>
                        <polygon id="Fill-420" fill="#FCD233" mask="url(#mask-20)" points="0.0545 2.0425 0.1875 2.0425 0.1875 0.4725 0.0545 0.4725"></polygon>
                        <polygon id="Fill-421" fill="#FCD333" mask="url(#mask-20)" points="0.1435 2.0425 0.2765 2.0425 0.2765 0.4725 0.1435 0.4725"></polygon>
                        <polygon id="Fill-422" fill="#FCD333" mask="url(#mask-20)" points="0.2315 2.0425 0.3645 2.0425 0.3645 0.4725 0.2315 0.4725"></polygon>
                        <polygon id="Fill-423" fill="#FCD333" mask="url(#mask-20)" points="0.3205 2.0425 0.4535 2.0425 0.4535 0.4725 0.3205 0.4725"></polygon>
                        <polygon id="Fill-424" fill="#FCD333" mask="url(#mask-20)" points="0.409 2.0425 0.5415 2.0425 0.5415 0.4725 0.409 0.4725"></polygon>
                        <polygon id="Fill-425" fill="#FCD333" mask="url(#mask-20)" points="0.4975 2.0425 0.6305 2.0425 0.6305 0.4725 0.4975 0.4725"></polygon>
                        <polygon id="Fill-426" fill="#FCD333" mask="url(#mask-20)" points="0.586 2.0425 0.719 2.0425 0.719 0.4725 0.586 0.4725"></polygon>
                        <polygon id="Fill-427" fill="#FCD333" mask="url(#mask-20)" points="0.6745 2.0425 0.8075 2.0425 0.8075 0.4725 0.6745 0.4725"></polygon>
                        <polygon id="Fill-428" fill="#FDD433" mask="url(#mask-20)" points="0.763 2.0425 0.896 2.0425 0.896 0.4725 0.763 0.4725"></polygon>
                        <polygon id="Fill-429" fill="#FDD433" mask="url(#mask-20)" points="0.8515 2.0425 0.9845 2.0425 0.9845 0.4725 0.8515 0.4725"></polygon>
                        <polygon id="Fill-430" fill="#FDD433" mask="url(#mask-20)" points="0.94 2.0425 1.073 2.0425 1.073 0.4725 0.94 0.4725"></polygon>
                        <polygon id="Fill-431" fill="#FDD433" mask="url(#mask-20)" points="1.0285 2.0425 1.161 2.0425 1.161 0.4725 1.0285 0.4725"></polygon>
                        <polygon id="Fill-432" fill="#FDD433" mask="url(#mask-20)" points="1.117 2.0425 1.25 2.0425 1.25 0.4725 1.117 0.4725"></polygon>
                        <polygon id="Fill-433" fill="#FDD433" mask="url(#mask-20)" points="1.2055 2.0425 1.3385 2.0425 1.3385 0.4725 1.2055 0.4725"></polygon>
                        <polygon id="Fill-434" fill="#FDD433" mask="url(#mask-20)" points="1.294 2.0425 1.427 2.0425 1.427 0.4725 1.294 0.4725"></polygon>
                        <polygon id="Fill-435" fill="#FDD433" mask="url(#mask-20)" points="1.3825 2.0425 1.5155 2.0425 1.5155 0.4725 1.3825 0.4725"></polygon>
                        <polygon id="Fill-436" fill="#FDD433" mask="url(#mask-20)" points="1.471 2.0425 1.604 2.0425 1.604 0.4725 1.471 0.4725"></polygon>
                        <polygon id="Fill-437" fill="#FDD433" mask="url(#mask-20)" points="1.5595 2.0425 1.6925 2.0425 1.6925 0.4725 1.5595 0.4725"></polygon>
                        <polygon id="Fill-438" fill="#FDD433" mask="url(#mask-20)" points="1.646 2.0425 1.648 2.0425 1.648 0.4725 1.646 0.4725"></polygon>
                    </g>
                    <g id="Group-461" transform="translate(10.500000, 3.279800)">
                        <mask id="mask-22" fill="white">
                            <use xlink:href="#path-21"></use>
                        </mask>
                        <g id="Clip-441"></g>
                        <polygon id="Fill-440" fill="#FDD534" mask="url(#mask-22)" points="0.0715 2.041 0.166 2.041 0.166 0.458 0.0715 0.458"></polygon>
                        <polygon id="Fill-442" fill="#FCD635" mask="url(#mask-22)" points="0.1215 2.041 0.2545 2.041 0.2545 0.458 0.1215 0.458"></polygon>
                        <polygon id="Fill-443" fill="#FCD635" mask="url(#mask-22)" points="0.21 2.041 0.343 2.041 0.343 0.458 0.21 0.458"></polygon>
                        <polygon id="Fill-444" fill="#FCD635" mask="url(#mask-22)" points="0.2985 2.041 0.431 2.041 0.431 0.458 0.2985 0.458"></polygon>
                        <polygon id="Fill-445" fill="#FCD635" mask="url(#mask-22)" points="0.387 2.041 0.52 2.041 0.52 0.458 0.387 0.458"></polygon>
                        <polygon id="Fill-446" fill="#FCD635" mask="url(#mask-22)" points="0.4755 2.041 0.6085 2.041 0.6085 0.458 0.4755 0.458"></polygon>
                        <polygon id="Fill-447" fill="#FCD635" mask="url(#mask-22)" points="0.564 2.041 0.697 2.041 0.697 0.458 0.564 0.458"></polygon>
                        <polygon id="Fill-448" fill="#FCD635" mask="url(#mask-22)" points="0.6525 2.041 0.7855 2.041 0.7855 0.458 0.6525 0.458"></polygon>
                        <polygon id="Fill-449" fill="#FCD634" mask="url(#mask-22)" points="0.741 2.041 0.8735 2.041 0.8735 0.458 0.741 0.458"></polygon>
                        <polygon id="Fill-450" fill="#FCD634" mask="url(#mask-22)" points="0.8295 2.041 0.9625 2.041 0.9625 0.458 0.8295 0.458"></polygon>
                        <polygon id="Fill-451" fill="#FCD634" mask="url(#mask-22)" points="0.918 2.041 1.0505 2.041 1.0505 0.458 0.918 0.458"></polygon>
                        <polygon id="Fill-452" fill="#FCD634" mask="url(#mask-22)" points="1.0065 2.041 1.1395 2.041 1.1395 0.458 1.0065 0.458"></polygon>
                        <polygon id="Fill-453" fill="#FCD636" mask="url(#mask-22)" points="1.095 2.041 1.228 2.041 1.228 0.458 1.095 0.458"></polygon>
                        <polygon id="Fill-454" fill="#FCD636" mask="url(#mask-22)" points="1.1835 2.041 1.3165 2.041 1.3165 0.458 1.1835 0.458"></polygon>
                        <polygon id="Fill-455" fill="#FCD636" mask="url(#mask-22)" points="1.272 2.041 1.405 2.041 1.405 0.458 1.272 0.458"></polygon>
                        <polygon id="Fill-456" fill="#FCD636" mask="url(#mask-22)" points="1.361 2.041 1.494 2.041 1.494 0.458 1.361 0.458"></polygon>
                        <polygon id="Fill-457" fill="#FCD736" mask="url(#mask-22)" points="1.449 2.041 1.582 2.041 1.582 0.458 1.449 0.458"></polygon>
                        <polygon id="Fill-458" fill="#FCD736" mask="url(#mask-22)" points="1.538 2.041 1.671 2.041 1.671 0.458 1.538 0.458"></polygon>
                        <polygon id="Fill-459" fill="#FCD736" mask="url(#mask-22)" points="1.6265 2.041 1.759 2.041 1.759 0.458 1.6265 0.458"></polygon>
                        <polygon id="Fill-460" fill="#FCD736" mask="url(#mask-22)" points="1.6565 2.041 1.715 2.041 1.715 0.458 1.6565 0.458"></polygon>
                    </g>
                    <g id="Group-483" transform="translate(13.000000, 3.779800)">
                        <mask id="mask-24" fill="white">
                            <use xlink:href="#path-23"></use>
                        </mask>
                        <g id="Clip-463"></g>
                        <polygon id="Fill-462" fill="#FCD836" mask="url(#mask-24)" points="0.0815 1.8235 0.144 1.8235 0.144 0.2325 0.0815 0.2325"></polygon>
                        <polygon id="Fill-464" fill="#FCD836" mask="url(#mask-24)" points="0.1 1.8235 0.2325 1.8235 0.2325 0.2325 0.1 0.2325"></polygon>
                        <polygon id="Fill-465" fill="#FCD835" mask="url(#mask-24)" points="0.188 1.8235 0.321 1.8235 0.321 0.2325 0.188 0.2325"></polygon>
                        <polygon id="Fill-466" fill="#FCD835" mask="url(#mask-24)" points="0.277 1.8235 0.4095 1.8235 0.4095 0.2325 0.277 0.2325"></polygon>
                        <polygon id="Fill-467" fill="#FCD837" mask="url(#mask-24)" points="0.365 1.8235 0.498 1.8235 0.498 0.2325 0.365 0.2325"></polygon>
                        <polygon id="Fill-468" fill="#FCD837" mask="url(#mask-24)" points="0.454 1.8235 0.5865 1.8235 0.5865 0.2325 0.454 0.2325"></polygon>
                        <polygon id="Fill-469" fill="#FCD837" mask="url(#mask-24)" points="0.5425 1.8235 0.6755 1.8235 0.6755 0.2325 0.5425 0.2325"></polygon>
                        <polygon id="Fill-470" fill="#FCD837" mask="url(#mask-24)" points="0.631 1.8235 0.7635 1.8235 0.7635 0.2325 0.631 0.2325"></polygon>
                        <polygon id="Fill-471" fill="#FCD837" mask="url(#mask-24)" points="0.7195 1.8235 0.8525 1.8235 0.8525 0.2325 0.7195 0.2325"></polygon>
                        <polygon id="Fill-472" fill="#FCD937" mask="url(#mask-24)" points="0.808 1.8235 0.9405 1.8235 0.9405 0.2325 0.808 0.2325"></polygon>
                        <polygon id="Fill-473" fill="#FCD937" mask="url(#mask-24)" points="0.8965 1.8235 1.0295 1.8235 1.0295 0.2325 0.8965 0.2325"></polygon>
                        <polygon id="Fill-474" fill="#FCD937" mask="url(#mask-24)" points="0.985 1.8235 1.1175 1.8235 1.1175 0.2325 0.985 0.2325"></polygon>
                        <polygon id="Fill-475" fill="#FCD937" mask="url(#mask-24)" points="1.0735 1.8235 1.2065 1.8235 1.2065 0.2325 1.0735 0.2325"></polygon>
                        <polygon id="Fill-476" fill="#FCD937" mask="url(#mask-24)" points="1.162 1.8235 1.2945 1.8235 1.2945 0.2325 1.162 0.2325"></polygon>
                        <polygon id="Fill-477" fill="#FCD937" mask="url(#mask-24)" points="1.2505 1.8235 1.3835 1.8235 1.3835 0.2325 1.2505 0.2325"></polygon>
                        <polygon id="Fill-478" fill="#FCD937" mask="url(#mask-24)" points="1.339 1.8235 1.472 1.8235 1.472 0.2325 1.339 0.2325"></polygon>
                        <polygon id="Fill-479" fill="#FCDA37" mask="url(#mask-24)" points="1.4275 1.8235 1.5605 1.8235 1.5605 0.2325 1.4275 0.2325"></polygon>
                        <polygon id="Fill-480" fill="#FCDA37" mask="url(#mask-24)" points="1.516 1.8235 1.649 1.8235 1.649 0.2325 1.516 0.2325"></polygon>
                        <polygon id="Fill-481" fill="#FCDA37" mask="url(#mask-24)" points="1.6045 1.8235 1.7375 1.8235 1.7375 0.2325 1.6045 0.2325"></polygon>
                        <polygon id="Fill-482" fill="#FCDA37" mask="url(#mask-24)" points="1.663 1.8235 1.693 1.8235 1.693 0.2325 1.663 0.2325"></polygon>
                    </g>
                    <g id="Group-505" transform="translate(14.500000, 5.279800)">
                        <mask id="mask-26" fill="white">
                            <use xlink:href="#path-25"></use>
                        </mask>
                        <g id="Clip-485"></g>
                        <polygon id="Fill-484" fill="#FCDA37" mask="url(#mask-26)" points="0.4125 1.849 0.503 1.849 0.503 0.255 0.4125 0.255"></polygon>
                        <polygon id="Fill-486" fill="#FCDA37" mask="url(#mask-26)" points="0.4585 1.849 0.5915 1.849 0.5915 0.255 0.4585 0.255"></polygon>
                        <polygon id="Fill-487" fill="#FDDA37" mask="url(#mask-26)" points="0.547 1.849 0.68 1.849 0.68 0.255 0.547 0.255"></polygon>
                        <polygon id="Fill-488" fill="#FDDB38" mask="url(#mask-26)" points="0.6355 1.849 0.7685 1.849 0.7685 0.255 0.6355 0.255"></polygon>
                        <polygon id="Fill-489" fill="#FDDB38" mask="url(#mask-26)" points="0.724 1.849 0.857 1.849 0.857 0.255 0.724 0.255"></polygon>
                        <polygon id="Fill-490" fill="#FDDB38" mask="url(#mask-26)" points="0.8125 1.849 0.9455 1.849 0.9455 0.255 0.8125 0.255"></polygon>
                        <polygon id="Fill-491" fill="#FDDB38" mask="url(#mask-26)" points="0.901 1.849 1.034 1.849 1.034 0.255 0.901 0.255"></polygon>
                        <polygon id="Fill-492" fill="#FDDB38" mask="url(#mask-26)" points="0.99 1.849 1.123 1.849 1.123 0.255 0.99 0.255"></polygon>
                        <polygon id="Fill-493" fill="#FDDB38" mask="url(#mask-26)" points="1.078 1.849 1.211 1.849 1.211 0.255 1.078 0.255"></polygon>
                        <polygon id="Fill-494" fill="#FDDB38" mask="url(#mask-26)" points="1.167 1.849 1.3 1.849 1.3 0.255 1.167 0.255"></polygon>
                        <polygon id="Fill-495" fill="#FDDB38" mask="url(#mask-26)" points="1.255 1.849 1.388 1.849 1.388 0.255 1.255 0.255"></polygon>
                        <polygon id="Fill-496" fill="#FDDB38" mask="url(#mask-26)" points="1.344 1.849 1.477 1.849 1.477 0.255 1.344 0.255"></polygon>
                        <polygon id="Fill-497" fill="#FDDB38" mask="url(#mask-26)" points="1.4325 1.849 1.565 1.849 1.565 0.255 1.4325 0.255"></polygon>
                        <polygon id="Fill-498" fill="#FDDB38" mask="url(#mask-26)" points="1.521 1.849 1.654 1.849 1.654 0.255 1.521 0.255"></polygon>
                        <polygon id="Fill-499" fill="#FDDB38" mask="url(#mask-26)" points="1.6095 1.849 1.742 1.849 1.742 0.255 1.6095 0.255"></polygon>
                        <polygon id="Fill-500" fill="#FDDB38" mask="url(#mask-26)" points="1.698 1.849 1.831 1.849 1.831 0.255 1.698 0.255"></polygon>
                        <polygon id="Fill-501" fill="#FDDC38" mask="url(#mask-26)" points="1.7865 1.849 1.919 1.849 1.919 0.255 1.7865 0.255"></polygon>
                        <polygon id="Fill-502" fill="#FDDC38" mask="url(#mask-26)" points="1.875 1.849 2.008 1.849 2.008 0.255 1.875 0.255"></polygon>
                        <polygon id="Fill-503" fill="#FDDC38" mask="url(#mask-26)" points="1.9635 1.849 2.096 1.849 2.096 0.255 1.9635 0.255"></polygon>
                        <polygon id="Fill-504" fill="#FDDC38" mask="url(#mask-26)" points="1.999 1.849 2.052 1.849 2.052 0.255 1.999 0.255"></polygon>
                    </g>
                    <g id="Group-526" transform="translate(15.500000, 7.779800)">
                        <mask id="mask-28" fill="white">
                            <use xlink:href="#path-27"></use>
                        </mask>
                        <g id="Clip-507"></g>
                        <polygon id="Fill-506" fill="#FDDB38" mask="url(#mask-28)" points="0.0845 1.7415 0.2105 1.7415 0.2105 0.1475 0.0845 0.1475"></polygon>
                        <polygon id="Fill-508" fill="#FDDB38" mask="url(#mask-28)" points="0.167 1.7415 0.3 1.7415 0.3 0.1475 0.167 0.1475"></polygon>
                        <polygon id="Fill-509" fill="#FDDB38" mask="url(#mask-28)" points="0.255 1.7415 0.388 1.7415 0.388 0.1475 0.255 0.1475"></polygon>
                        <polygon id="Fill-510" fill="#FDDB38" mask="url(#mask-28)" points="0.344 1.7415 0.477 1.7415 0.477 0.1475 0.344 0.1475"></polygon>
                        <polygon id="Fill-511" fill="#FDDB38" mask="url(#mask-28)" points="0.4325 1.7415 0.5655 1.7415 0.5655 0.1475 0.4325 0.1475"></polygon>
                        <polygon id="Fill-512" fill="#FDDB38" mask="url(#mask-28)" points="0.521 1.7415 0.654 1.7415 0.654 0.1475 0.521 0.1475"></polygon>
                        <polygon id="Fill-513" fill="#FDDB38" mask="url(#mask-28)" points="0.6095 1.7415 0.7425 1.7415 0.7425 0.1475 0.6095 0.1475"></polygon>
                        <polygon id="Fill-514" fill="#FDDB38" mask="url(#mask-28)" points="0.698 1.7415 0.831 1.7415 0.831 0.1475 0.698 0.1475"></polygon>
                        <polygon id="Fill-515" fill="#FDDC38" mask="url(#mask-28)" points="0.7865 1.7415 0.919 1.7415 0.919 0.1475 0.7865 0.1475"></polygon>
                        <polygon id="Fill-516" fill="#FDDC38" mask="url(#mask-28)" points="0.875 1.7415 1.008 1.7415 1.008 0.1475 0.875 0.1475"></polygon>
                        <polygon id="Fill-517" fill="#FDDC38" mask="url(#mask-28)" points="0.9635 1.7415 1.096 1.7415 1.096 0.1475 0.9635 0.1475"></polygon>
                        <polygon id="Fill-518" fill="#FDDC38" mask="url(#mask-28)" points="1.052 1.7415 1.185 1.7415 1.185 0.1475 1.052 0.1475"></polygon>
                        <polygon id="Fill-519" fill="#FDDC38" mask="url(#mask-28)" points="1.14 1.7415 1.273 1.7415 1.273 0.1475 1.14 0.1475"></polygon>
                        <polygon id="Fill-520" fill="#FDDC38" mask="url(#mask-28)" points="1.229 1.7415 1.362 1.7415 1.362 0.1475 1.229 0.1475"></polygon>
                        <polygon id="Fill-521" fill="#FDDC38" mask="url(#mask-28)" points="1.317 1.7415 1.45 1.7415 1.45 0.1475 1.317 0.1475"></polygon>
                        <polygon id="Fill-522" fill="#FDDD38" mask="url(#mask-28)" points="1.406 1.7415 1.539 1.7415 1.539 0.1475 1.406 0.1475"></polygon>
                        <polygon id="Fill-523" fill="#FDDD39" mask="url(#mask-28)" points="1.4945 1.7415 1.6275 1.7415 1.6275 0.1475 1.4945 0.1475"></polygon>
                        <polygon id="Fill-524" fill="#FDDD39" mask="url(#mask-28)" points="1.583 1.7415 1.716 1.7415 1.716 0.1475 1.583 0.1475"></polygon>
                        <polygon id="Fill-525" fill="#FDDD39" mask="url(#mask-28)" points="1.6685 1.7415 1.6715 1.7415 1.6715 0.1475 1.6685 0.1475"></polygon>
                    </g>
                    <path d="M0.84765,2.9563 C0.37915,2.9563 0.00015,3.3353 0.00015,3.8038 L0.00015,17.2148 C0.00015,17.6808 0.37665,18.0588 0.84215,18.0613 C11.94265,17.9793 22.67265,14.3053 22.6591627,16.0988 L22.6591627,0.9933 C22.66165,0.6418 22.25265,0.500299922 21.50965,0.500299922 C18.45865,0.4998 9.77415,2.8893 0.84765,2.9563" id="Fill-527" fill="url(#linearGradient-29)" opacity="0.624186198"></path>
                </g>
                <g id="icon_book_flag_asean" transform="translate(32.000000, 0.000000)">
                    <path d="M0,17.2146 C0,17.7541 0.3765,18.1916 0.842,18.1956 C11.942,18.2716 22.659,17.7626 22.659,16.0986 C22.659,14.6361 20.748,14.1176 18.036,14.1176 C11.409,14.1176 0,17.2146 0,17.2146" id="Fill-1" fill="#0B133A"></path>
                    <g id="Group-5" transform="translate(0.000000, 13.779800)">
                        <mask id="mask-31" fill="white">
                            <use xlink:href="#path-30"></use>
                        </mask>
                        <g id="Clip-4"></g>
                        <path d="M0,3.435 C0,3.9765 0.379,4.4155 0.846,4.416 L0.846,4.416 C11.91,4.4995 22.58,4.1535 22.659,2.3355 L22.659,2.3355 L22.659,2.281 C22.626,0.8475 20.7245,0.3375 18.036,0.3375 L18.036,0.3375 C11.4095,0.3375 0,3.435 0,3.435 M22.485,2.3655 C22.485,3.9 11.9365,4.427 0.847,4.352 L0.847,4.352 C0.8165,4.352 0.787,4.35 0.758,4.347 L0.758,4.347 C0.4185,4.3085 0.139,4.052 0.0395,3.7095 L0.0395,3.7095 C0.148,4.078 0.4675,4.3455 0.8455,4.3465 L0.8455,4.3465 C11.936,4.277 22.485,0.8615 22.485,2.3655" id="Fill-3" mask="url(#mask-31)"></path>
                    </g>
                    <g id="Group-263" transform="translate(0.000000, 0.279800)">
                        <mask id="mask-33" fill="white">
                            <use xlink:href="#path-32"></use>
                        </mask>
                        <use id="Clip-7" fill="#4667A9" xlink:href="#path-32"></use>
                    </g>
                    <g id="Group-303" transform="translate(0.000000, 0.279800)">
                        <path d="M11.1323,4.82565 C13.5678,4.58015 15.5428,6.39465 15.5428,8.87665 C15.5428,11.35765 13.5678,13.57065 11.1323,13.81565 C8.6958,14.06165 6.7208,12.24665 6.7208,9.76515 C6.7208,7.28315 8.6958,5.07115 11.1323,4.82565" id="Fill-264" fill="#196BB5"></path>
                        <path d="M11.1323,5.0471 C13.4483,4.8141 15.3253,6.5381 15.3253,8.8981 C15.3253,11.2581 13.4483,13.3606 11.1323,13.5936 C8.8163,13.8271 6.9388,12.1031 6.9388,9.7431 C6.9388,7.3831 8.8163,5.2806 11.1323,5.0471" id="Fill-266" fill="#FFFFFF"></path>
                        <path d="M11.1323,5.2578 C13.3328,5.0363 15.1188,6.6753 15.1188,8.9193 C15.1188,11.1623 13.3328,13.1613 11.1323,13.3828 C8.9308,13.6048 7.1448,11.9658 7.1448,9.7228 C7.1448,7.4788 8.9308,5.4798 11.1323,5.2578" id="Fill-268" fill="#B62B31"></path>
                        <path d="M9.303,6.8745 C9.303,7.352 9.4585,7.776 9.6,8.1025 C9.6915,8.3125 10.0675,8.861 10.2315,8.9565 C10.145,9.099 9.9875,9.255 9.8835,9.424 C9.792,9.575 9.662,9.775 9.597,9.947 C9.454,10.3235 9.291,10.748 9.291,11.251 L9.291,11.3735 C9.291,11.4165 9.2995,11.4205 9.303,11.4585 L9.676,11.421 L9.676,11.3715 C9.676,10.8365 9.765,10.444 9.8685,10.013 C9.915,9.829 10.0115,9.611 10.0865,9.4505 C10.128,9.361 10.1695,9.2775 10.2215,9.1935 C10.2415,9.1615 10.3885,8.9605 10.3885,8.953 C10.3885,8.947 10.124,8.5725 10.09,8.5115 C10.0165,8.3775 9.9195,8.1425 9.8745,7.98 C9.761,7.577 9.689,7.152 9.689,6.6265 L9.303,6.6655 L9.303,6.8745 Z" id="Fill-270" fill="#F8DF42"></path>
                        <path d="M10.71385,6.8186 C10.71385,7.2001 10.75035,7.5536 10.77435,7.9066 C10.78335,8.0451 10.91335,8.9026 10.91185,8.9046 C10.77885,9.4196 10.70235,10.4071 10.70235,11.0351 L10.70235,11.3171 L11.06285,11.2811 L11.06135,8.9096 L11.07535,6.4866 L10.71385,6.5231 L10.71385,6.8186 Z" id="Fill-272" fill="#F8DF42"></path>
                        <path d="M9.78515,6.7031 C9.78515,7.1101 9.89165,7.6526 9.99415,7.9556 C10.05715,8.1396 10.11615,8.3166 10.19965,8.4761 C10.28765,8.6451 10.37615,8.7806 10.46015,8.9326 C10.28465,9.2896 10.14665,9.5156 10.01265,9.9351 C9.91815,10.2321 9.78515,10.7766 9.78515,11.1521 L9.78515,11.4101 L10.13465,11.3746 L10.13465,11.1656 C10.13465,10.8211 10.18815,10.2266 10.26565,9.9591 C10.32065,9.7711 10.34915,9.6101 10.40765,9.4256 C10.43565,9.3361 10.46515,9.2571 10.49665,9.1756 C10.51015,9.1426 10.60565,8.9356 10.60565,8.9311 C10.60565,8.9281 10.44115,8.5406 10.42015,8.4746 C10.36515,8.3141 10.30665,8.1426 10.27865,7.9576 C10.25315,7.7871 10.21215,7.5986 10.18365,7.3996 C10.15815,7.2046 10.14665,6.9851 10.14665,6.7651 L10.14665,6.5811 L9.78515,6.6176 L9.78515,6.7031 Z" id="Fill-274" fill="#F8DF42"></path>
                        <path d="M11.59425,6.8652 C11.59425,7.1972 11.57625,7.5877 11.52575,7.8847 C11.49925,8.0467 11.48525,8.2192 11.46425,8.3677 C11.44875,8.4777 11.39175,8.7787 11.39375,8.8397 C11.39375,8.8397 11.46775,9.2617 11.47575,9.2837 C11.50375,9.3737 11.52125,9.6382 11.53525,9.7577 C11.57075,10.0837 11.60575,10.3997 11.60575,10.7712 L11.60575,11.2267 L11.95675,11.1912 C11.95675,10.4172 11.76775,9.2997 11.50975,8.8277 C11.76075,8.3187 11.94325,7.1552 11.94325,6.3997 L11.59425,6.4347 L11.59425,6.8652 Z" id="Fill-276" fill="#F8DF42"></path>
                        <path d="M10.7019,8.9094 C10.4449,9.4314 10.2559,10.5934 10.2559,11.3619 L10.6054,11.3269 L10.6054,10.7869 C10.6054,10.4534 10.6544,10.1349 10.6774,9.8334 C10.6904,9.6494 10.7594,9.0759 10.8059,8.9314 C10.8269,8.8709 10.7114,8.2019 10.6924,8.0709 C10.6529,7.8129 10.6164,7.4174 10.6164,7.1359 L10.6164,6.5334 L10.2679,6.5684 C10.2679,7.3179 10.4524,8.4534 10.7019,8.9094" id="Fill-278" fill="#F8DF42"></path>
                        <path d="M8.8086,7.0227 C8.8086,7.4452 9.0221,7.9837 9.1786,8.2432 C9.2771,8.4062 9.3956,8.5517 9.5291,8.6737 C9.6101,8.7477 9.8851,8.9622 9.9901,8.9802 C9.9766,9.0007 9.7856,9.1492 9.7441,9.1847 C9.6591,9.2582 9.5896,9.3247 9.5171,9.4062 C9.3791,9.5607 9.2471,9.7502 9.1501,9.9427 C8.9551,10.3237 8.7966,10.7952 8.7966,11.3497 L8.7966,11.5097 L9.1711,11.4717 L9.1711,11.2757 C9.1711,10.8362 9.3266,10.2757 9.4721,9.9672 C9.6061,9.6817 9.9091,9.1562 10.1356,8.9787 C10.0871,8.9107 10.0026,8.8622 9.9451,8.7982 C9.8816,8.7272 9.8306,8.6632 9.7696,8.5887 C9.6546,8.4477 9.5686,8.2852 9.4796,8.1147 C9.3241,7.8137 9.1826,7.3082 9.1826,6.8382 L9.1826,6.6782 L8.8086,6.7162 L8.8086,7.0227 Z" id="Fill-280" fill="#F8DF42"></path>
                        <path d="M11.15135,8.90085 L11.14835,11.27235 L11.51085,11.23585 C11.51085,10.47685 11.46485,9.58185 11.32635,8.97135 C11.28185,8.77885 11.32235,8.67385 11.36385,8.45985 C11.39835,8.28485 11.40935,8.07585 11.43535,7.89885 C11.45885,7.73085 11.46485,7.49335 11.47385,7.31885 C11.48085,7.12585 11.49735,6.92535 11.49735,6.71585 L11.49735,6.44435 L11.13285,6.48135 L11.15135,8.90085 Z" id="Fill-282" fill="#F8DF42"></path>
                        <path d="M12.06445,6.5964 C12.06445,6.7854 12.05495,7.0459 12.02845,7.2144 C12.01245,7.3144 12.00195,7.4074 11.99145,7.5119 C11.98145,7.5934 11.94295,7.7164 11.93245,7.7904 C11.90595,7.9704 11.84745,8.1644 11.79395,8.3274 C11.77045,8.4009 11.60595,8.8074 11.60595,8.8179 C11.60595,8.8219 11.78095,9.2069 11.80345,9.2854 C11.85695,9.4649 11.90145,9.6139 11.95145,9.8079 C12.03295,10.1234 12.07645,10.6459 12.07645,11.0444 L12.07645,11.1789 L12.42595,11.1439 L12.42595,11.0089 C12.42595,10.5169 12.32245,10.1454 12.21645,9.7694 C12.10445,9.3714 11.92195,9.1164 11.75145,8.8034 C11.83545,8.6309 11.92845,8.4714 12.01695,8.2854 C12.09895,8.1079 12.16495,7.9039 12.22395,7.7009 C12.33645,7.3179 12.42595,6.8389 12.42595,6.3509 L12.06445,6.3874 L12.06445,6.5964 Z" id="Fill-284" fill="#F8DF42"></path>
                        <path d="M12.5227,6.3784 C12.5227,6.8809 12.4467,7.3249 12.3372,7.7319 C12.2887,7.9104 12.1992,8.1444 12.1252,8.2989 C12.0877,8.3784 12.0342,8.4759 11.9877,8.5539 C11.9662,8.5869 11.8232,8.7884 11.8232,8.7954 C11.8232,8.8169 11.9597,8.9709 11.9802,9.0014 C12.0332,9.0774 12.0747,9.1479 12.1197,9.2374 C12.1997,9.3909 12.2992,9.5884 12.3432,9.7729 C12.4537,10.2129 12.5352,10.5534 12.5352,11.1329 L12.9202,11.0944 L12.9202,10.8859 C12.9202,10.3684 12.7587,10.0074 12.6177,9.6514 C12.5572,9.4979 12.4242,9.3159 12.3327,9.1844 C12.2262,9.0344 12.0682,8.9074 11.9802,8.7799 C12.1672,8.6344 12.5227,8.0124 12.6272,7.7529 C12.7967,7.3274 12.9087,6.9544 12.9087,6.3769 L12.9087,6.3639 C12.9087,6.3309 12.9032,6.3304 12.8962,6.3039 L12.5227,6.3414 L12.5227,6.3784 Z" id="Fill-286" fill="#F8DF42"></path>
                        <path d="M13.0293,6.46265 C13.0293,6.92515 12.8848,7.46015 12.7323,7.78715 C12.6423,7.97565 12.5568,8.15565 12.4418,8.31915 C12.3818,8.40415 12.3313,8.47315 12.2723,8.55665 C12.2138,8.63815 12.1268,8.70065 12.0763,8.78265 C12.3018,8.91465 12.6053,9.37965 12.7398,9.63865 C12.8868,9.92215 13.0408,10.44965 13.0408,10.89765 L13.0408,11.08165 L13.4163,11.04365 L13.4163,10.81065 C13.4163,10.29565 13.2263,9.84965 13.0503,9.52515 C12.9673,9.37465 12.8083,9.19065 12.6888,9.08015 C12.6038,9.00365 12.2368,8.77615 12.2223,8.75615 C12.3323,8.71465 12.6108,8.43615 12.6948,8.34315 C12.8478,8.17165 12.9343,8.02415 13.0503,7.82265 C13.2333,7.50665 13.4028,6.92115 13.4028,6.43715 L13.4028,6.25315 L13.0293,6.29015 L13.0293,6.46265 Z" id="Fill-288" fill="#F8DF42"></path>
                        <path d="M11.8347,12.03905 C11.8347,11.90105 12.0512,11.91105 12.1487,11.84755 C12.1487,12.03155 12.1167,12.10905 11.9317,12.12755 C11.8822,12.13255 11.8347,12.09005 11.8347,12.03905 M11.6302,11.74005 L11.8597,11.71705 C11.8652,11.64005 11.9117,11.60105 11.9927,11.59255 L12.0527,11.58705 C12.0957,11.58255 12.1487,11.61155 12.1487,11.65155 L12.1487,11.67555 C12.1487,11.79605 11.6057,11.72105 11.6057,12.05005 L11.6057,12.09905 C11.6057,12.23105 11.7357,12.30705 11.8597,12.29455 L11.9197,12.28855 C12.0202,12.27855 12.1142,12.17105 12.1582,12.15455 L12.1722,12.23905 L12.4387,12.21205 C12.4322,12.14705 12.3777,12.16805 12.3777,11.95955 L12.3777,11.64105 C12.3792,11.42655 12.2182,11.38605 12.0162,11.40605 C11.7942,11.42855 11.6472,11.52855 11.6302,11.74005" id="Fill-290" fill="#196BB5"></path>
                        <path d="M9.06175,12.3181 C9.06175,12.1751 9.27025,12.1886 9.37425,12.1271 C9.37425,12.3036 9.32375,12.3906 9.15875,12.4071 C9.10975,12.4121 9.06175,12.3766 9.06175,12.3181 M8.85675,11.9836 L8.85675,12.0196 L9.08575,11.9966 C9.08675,11.9266 9.12625,11.8816 9.19475,11.8751 L9.27925,11.8666 C9.33075,11.8611 9.37425,11.8946 9.37425,11.9431 C9.37425,12.0861 8.82025,12.0001 8.82025,12.3306 C8.82025,12.5041 8.92875,12.5896 9.09725,12.5726 L9.10925,12.5716 C9.27525,12.5551 9.30775,12.4631 9.38375,12.4346 L9.39925,12.5181 L9.65175,12.4931 C9.64575,12.4201 9.61925,12.4601 9.60525,12.3971 C9.59975,12.3671 9.60475,12.2766 9.60475,12.2391 C9.60475,12.1326 9.60325,12.0266 9.60475,11.9201 C9.60525,11.7181 9.44625,11.6651 9.25475,11.6846 C9.06375,11.7036 8.85675,11.8021 8.85675,11.9836" id="Fill-292" fill="#196BB5"></path>
                        <path d="M12.812,11.4614 L12.812,11.3509 L12.5825,11.3739 L12.5825,12.1969 L12.8245,12.1724 L12.8245,11.7184 C12.8245,11.6144 12.872,11.5169 12.9685,11.5069 L13.041,11.4999 C13.1065,11.4929 13.15,11.5324 13.15,11.5999 L13.15,12.1399 L13.391,12.1154 L13.391,11.5504 C13.391,11.3744 13.2585,11.2819 13.089,11.2989 C12.9125,11.3164 12.9035,11.3894 12.812,11.4614" id="Fill-294" fill="#196BB5"></path>
                        <path d="M9.78515,11.88915 L9.78515,11.93765 C9.78515,12.19515 10.32765,12.07515 10.32765,12.19065 L10.32765,12.20365 C10.32765,12.26365 10.24515,12.28515 10.18265,12.29115 L10.14665,12.29515 C9.97215,12.31265 10.02715,12.18465 9.96565,12.19065 L9.74815,12.21265 C9.74815,12.42665 9.97115,12.48465 10.18265,12.46315 C10.38615,12.44265 10.56915,12.34015 10.56915,12.12965 L10.56915,12.11715 C10.56915,11.85565 10.01415,11.97715 10.01415,11.85415 C10.01415,11.80315 10.07965,11.77365 10.13465,11.76765 L10.19615,11.76165 C10.25965,11.75515 10.30265,11.79415 10.30465,11.86165 L10.54515,11.83715 C10.49615,11.62765 10.39265,11.57015 10.13465,11.59615 C9.96765,11.61265 9.78515,11.72265 9.78515,11.88915" id="Fill-296" fill="#196BB5"></path>
                        <path d="M10.9065,11.874 C10.925,11.791 10.9675,11.6965 11.063,11.6865 L11.087,11.6845 C11.1935,11.6735 11.2605,11.743 11.269,11.8375 L10.9065,11.874 Z M10.666,11.9845 L10.666,12.0095 C10.666,12.256 10.8415,12.397 11.087,12.3725 L11.1,12.371 C11.299,12.351 11.46,12.2305 11.4985,12.061 L11.2805,12.0825 C11.237,12.087 11.234,12.1735 11.1365,12.183 L11.087,12.188 C10.9785,12.199 10.9095,12.132 10.9065,12.022 L11.5095,11.9615 L11.5095,11.9245 C11.5095,11.6325 11.3705,11.4715 11.087,11.4995 C10.821,11.5265 10.666,11.7095 10.666,11.9845 L10.666,11.9845 Z" id="Fill-298" fill="#196BB5"></path>
                        <g id="Group-302" fill="url(#linearGradient-34)" opacity="0.624186198">
                            <path d="M0.8474,2.6765 C0.3794,2.6765 -0.0001,3.0555 -0.0001,3.5235 L-0.0001,16.935 C-0.0001,17.401 0.3769,17.7785 0.8419,17.7815 C11.9424,17.6995 22.6729,14.0255 22.6594127,15.819 L22.6594127,0.7135 C22.6619,0.362 22.2524,0.220499922 21.5099,0.220499922 C18.4589,0.22 9.7739,2.6095 0.8474,2.6765" id="Fill-300"></path>
                        </g>
                    </g>
                </g>
            </g>
        </g>
    </g>
</svg>