<?xml version="1.0" encoding="UTF-8"?>
<svg width="601px" height="132px" viewBox="0 0 601 132" version="1.1" xmlns="http://www.w3.org/2000/svg" xmlns:xlink="http://www.w3.org/1999/xlink">
    <!-- Generator: Sketch 61.2 (89653) - https://sketch.com -->
    <title>Group 37</title>
    <desc>Created with Sketch.</desc>
    <defs>
        <path d="M549.707,0.348 C570.876,0.348 588.661,14.839 593.681,34.442 L593.681,34.442 L593.812942,35.0384179 C595.986768,45.13227 594.655788,52.9156923 593.421,58 L593.421,58 L593.25688,58.5717932 C587.720792,77.3899582 570.31979,91.129 549.707,91.129 L549.707,91.129 L549.083421,91.1248035 C528.53832,90.8481307 511.2895,76.91989 505.993,58 L505.993,58 L425.316,58 L425.151851,58.5717932 C419.614793,77.3899582 402.21381,91.129 381.603,91.129 L381.603,91.129 L380.979362,91.1248035 C360.432339,90.8481307 343.18451,76.91989 337.889,58 L337.889,58 L257.21,58 L257.04588,58.5717932 C251.509773,77.3899582 234.1078,91.129 213.496,91.129 L213.496,91.129 L212.872392,91.1248035 C192.326359,90.8481307 175.07949,76.91989 169.782,58 L169.782,58 L89.105,58 L88.9408504,58.5717932 C83.4037726,77.3899582 66.00181,91.129 45.391,91.129 L45.391,91.129 L44.6403697,91.122919 C19.9175922,90.7220853 0,70.55631 0,45.738 L0,45.738 L0.006081025,44.9873994 C0.4069147,20.2655922 20.57269,0.348 45.391,0.348 L45.391,0.348 L46.0250157,0.352337921 C66.9134236,0.6383312 84.39421,15.03503 89.365,34.442 L89.365,34.442 L169.522,34.442 L169.67645,33.855453 C174.899019,14.5506291 192.53869,0.348 213.496,0.348 L213.496,0.348 L214.130045,0.352337921 C235.019404,0.6383312 252.49921,15.03503 257.47,34.442 L257.47,34.442 L337.629,34.442 L337.78342,33.855453 C343.005019,14.5506291 360.6447,0.348 381.603,0.348 L381.603,0.348 L382.237015,0.352337921 C403.125404,0.6383312 420.60521,15.03503 425.576,34.442 L425.576,34.442 L505.733,34.442 L505.88745,33.855453 C511.110019,14.5506291 528.74969,0.348 549.707,0.348 Z" id="path-1"></path>
        <linearGradient x1="50.0000001%" y1="119.491885%" x2="50.0000001%" y2="13.4582354%" id="linearGradient-3">
            <stop stop-color="#3FB8E9" offset="0%"></stop>
            <stop stop-color="#CFE6F7" offset="100%"></stop>
        </linearGradient>
        <linearGradient x1="2.04985031%" y1="50.0011551%" x2="97.6539286%" y2="49.998859%" id="linearGradient-4">
            <stop stop-color="#44BAEB" offset="0%"></stop>
            <stop stop-color="#72CAF2" offset="100%"></stop>
        </linearGradient>
        <linearGradient x1="2.04873202%" y1="50.0011555%" x2="97.6518176%" y2="49.9988594%" id="linearGradient-5">
            <stop stop-color="#44BAEB" offset="0%"></stop>
            <stop stop-color="#72CAF2" offset="100%"></stop>
        </linearGradient>
        <path d="M0.728,38.738 C0.728,59.598 17.637,76.507 38.496,76.507 L38.496,76.507 C59.355,76.507 76.265,59.598 76.265,38.738 L76.265,38.738 C76.265,17.879 59.355,0.97 38.496,0.97 L38.496,0.97 C17.637,0.97 0.728,17.879 0.728,38.738" id="path-6"></path>
        <linearGradient x1="73.9617606%" y1="87.9033942%" x2="15.5798786%" y2="-4.44832718%" id="linearGradient-8">
            <stop stop-color="#0070BA" offset="0%"></stop>
            <stop stop-color="#90D8F7" offset="100%"></stop>
        </linearGradient>
        <path d="M0.939,38.738 C0.939,59.598 17.848,76.507 38.707,76.507 L38.707,76.507 C59.567,76.507 76.476,59.598 76.476,38.738 L76.476,38.738 C76.476,17.879 59.567,0.97 38.707,0.97 L38.707,0.97 C17.848,0.97 0.939,17.879 0.939,38.738" id="path-9"></path>
        <path d="M0.833,38.738 C0.833,59.598 17.742,76.507 38.603,76.507 L38.603,76.507 C59.461,76.507 76.371,59.598 76.371,38.738 L76.371,38.738 C76.371,17.879 59.461,0.97 38.603,0.97 L38.603,0.97 C17.742,0.97 0.833,17.879 0.833,38.738" id="path-11"></path>
        <linearGradient x1="73.9617606%" y1="87.9023907%" x2="15.5798786%" y2="-4.44688557%" id="linearGradient-13">
            <stop stop-color="#0070BA" offset="0%"></stop>
            <stop stop-color="#90D8F7" offset="100%"></stop>
        </linearGradient>
        <path d="M0.622,38.738 C0.622,59.598 17.531,76.507 38.391,76.507 L38.391,76.507 C59.25,76.507 76.159,59.598 76.159,38.738 L76.159,38.738 C76.159,17.879 59.25,0.97 38.391,0.97 L38.391,0.97 C17.531,0.97 0.622,17.879 0.622,38.738" id="path-14"></path>
    </defs>
    <g id="Page-1" stroke="none" stroke-width="1" fill="none" fill-rule="evenodd">
        <g id="Artboard-Copy" transform="translate(-212.000000, -316.000000)">
            <g id="Group-37" transform="translate(212.000000, 315.000000)">
                <path d="M3.42354,116.661378 L3.42354,114.483378 L4.46898,114.483378 C6.36384,114.483378 7.74687,113.535948 7.74687,111.739098 L7.74687,111.717318 C7.74687,110.029368 6.50541,109.038378 4.57788,109.038378 L1.31088,109.038378 L1.31088,116.661378 L3.42354,116.661378 Z M4.42542,112.828098 L3.42354,112.828098 L3.42354,110.813448 L4.41453,110.813448 C5.17683,110.813448 5.63421,111.161928 5.63421,111.815328 L5.63421,111.837108 C5.63421,112.436058 5.17683,112.828098 4.42542,112.828098 Z M12.47313,116.813838 C14.82537,116.813838 16.58955,115.038768 16.58955,112.849878 L16.58955,112.828098 C16.58955,110.639208 14.84715,108.885918 12.49491,108.885918 C10.14267,108.885918 8.37849,110.660988 8.37849,112.849878 L8.37849,112.871658 C8.37849,115.060548 10.12089,116.813838 12.47313,116.813838 Z M12.49491,114.908088 C11.34057,114.908088 10.5456,113.949768 10.5456,112.849878 L10.5456,112.828098 C10.5456,111.728208 11.31879,110.791668 12.47313,110.791668 C13.63836,110.791668 14.43333,111.749988 14.43333,112.849878 L14.43333,112.871658 C14.43333,113.971548 13.66014,114.908088 12.49491,114.908088 Z M23.49381,116.661378 L23.49381,114.810078 L19.8021,114.810078 L19.8021,109.038378 L17.68944,109.038378 L17.68944,116.661378 L23.49381,116.661378 Z M26.56479,116.661378 L26.56479,109.038378 L24.44124,109.038378 L24.44124,116.661378 L26.56479,116.661378 Z M31.93356,116.661378 L31.93356,110.889678 L34.22046,110.889678 L34.22046,109.038378 L27.534,109.038378 L27.534,110.889678 L29.8209,110.889678 L29.8209,116.661378 L31.93356,116.661378 Z M37.31322,116.661378 L37.31322,109.038378 L35.18967,109.038378 L35.18967,116.661378 L37.31322,116.661378 Z M42.37707,116.813838 C44.06502,116.813838 45.03423,116.084208 45.75297,115.093218 L44.16303,113.960658 C43.70565,114.516048 43.23738,114.886308 42.44241,114.886308 C41.37519,114.886308 40.62378,113.993328 40.62378,112.849878 L40.62378,112.828098 C40.62378,111.717318 41.37519,110.813448 42.44241,110.813448 C43.17204,110.813448 43.67298,111.161928 44.10858,111.706428 L45.69852,110.475858 C45.02334,109.539318 44.02146,108.885918 42.46419,108.885918 C40.15551,108.885918 38.44578,110.628318 38.44578,112.849878 L38.44578,112.871658 C38.44578,115.147668 40.19907,116.813838 42.37707,116.813838 Z" id="POLITIC" fill="#233C87" fill-rule="nonzero"></path>
                <path d="M48.2273,116.661378 L48.7718,115.300128 L51.7121,115.300128 L52.26749,116.661378 L54.53261,116.661378 L51.28739,108.983928 L49.25096,108.983928 L46.00574,116.661378 L48.2273,116.661378 Z M51.10226,113.655738 L49.39253,113.655738 L50.25284,111.488628 L51.10226,113.655738 Z M61.0775,116.661378 L61.0775,114.810078 L57.38579,114.810078 L57.38579,109.038378 L55.27313,109.038378 L55.27313,116.661378 L61.0775,116.661378 Z M66.60962,116.661378 L67.15412,115.300128 L70.09442,115.300128 L70.64981,116.661378 L72.91493,116.661378 L69.66971,108.983928 L67.63328,108.983928 L64.38806,116.661378 L66.60962,116.661378 Z M69.48458,113.655738 L67.77485,113.655738 L68.63516,111.488628 L69.48458,113.655738 Z M75.74633,116.661378 L75.74633,112.479618 L79.00244,116.661378 L80.85374,116.661378 L80.85374,109.038378 L78.76286,109.038378 L78.76286,113.067678 L75.62654,109.038378 L73.65545,109.038378 L73.65545,116.661378 L75.74633,116.661378 Z M85.10084,116.661378 C87.84512,116.661378 89.44595,115.027878 89.44595,112.828098 L89.44595,112.806318 C89.44595,110.606538 87.8669,109.038378 85.1444,109.038378 L82.2041,109.038378 L82.2041,116.661378 L85.10084,116.661378 Z M85.17707,114.788298 L84.31676,114.788298 L84.31676,110.911458 L85.17707,110.911458 C86.44031,110.911458 87.27884,111.619308 87.27884,112.838988 L87.27884,112.860768 C87.27884,114.091338 86.44031,114.788298 85.17707,114.788298 Z" id="ALAND" fill="#233C87" fill-rule="nonzero"></path>
                <g id="Group-3" transform="translate(16.000000, 122.653000)" fill="#233C87" fill-rule="nonzero">
                    <path d="M4.43453,9.82125793 C6.28583,9.82125793 7.5164,8.89560793 7.5164,7.33833793 L7.5164,7.31655793 C7.5164,5.88996793 6.4274,5.32368793 4.67411,4.94253793 C3.61778,4.70295793 3.35642,4.55049793 3.35642,4.20201793 L3.35642,4.18023793 C3.35642,3.90798793 3.60689,3.69018793 4.11872,3.69018793 C4.7939,3.69018793 5.5562,3.95154793 6.25316,4.44159793 L7.30949,2.94966793 C6.48185,2.28537793 5.46908,1.93689793 4.17317,1.93689793 C2.34365,1.93689793 1.22198,2.96055793 1.22198,4.37625793 L1.22198,4.39803793 C1.22198,5.96619793 2.47433,6.42357793 4.09694,6.79383793 C5.13149,7.03341793 5.38196,7.20765793 5.38196,7.52346793 L5.38196,7.54524793 C5.38196,7.87194793 5.07704,8.06796793 4.51076,8.06796793 C3.62867,8.06796793 2.79014,7.75215793 2.03873,7.15320793 L0.86261,8.55801793 C1.79915,9.39654793 3.08417,9.82125793 4.43453,9.82125793 Z M14.72558,9.69057793 L14.72558,7.89372793 L10.63094,7.89372793 L10.63094,6.68493793 L14.28998,6.68493793 L14.28998,5.01876793 L10.63094,5.01876793 L10.63094,3.86442793 L14.67113,3.86442793 L14.67113,2.06757793 L8.54006,2.06757793 L8.54006,9.69057793 L14.72558,9.69057793 Z" id="SE"></path>
                    <path d="M19.43006,9.84303793 C21.11801,9.84303793 22.08722,9.11340793 22.80596,8.12241793 L21.21602,6.98985793 C20.75864,7.54524793 20.29037,7.91550793 19.4954,7.91550793 C18.42818,7.91550793 17.67677,7.02252793 17.67677,5.87907793 L17.67677,5.85729793 C17.67677,4.74651793 18.42818,3.84264793 19.4954,3.84264793 C20.22503,3.84264793 20.72597,4.19112793 21.16157,4.73562793 L22.75151,3.50505793 C22.07633,2.56851793 21.07445,1.91511793 19.51718,1.91511793 C17.2085,1.91511793 15.49877,3.65751793 15.49877,5.87907793 L15.49877,5.90085793 C15.49877,8.17686793 17.25206,9.84303793 19.43006,9.84303793 Z M27.14018,9.83214793 C29.30729,9.83214793 30.7121,8.75403793 30.7121,6.29289793 L30.7121,2.06757793 L28.56677,2.06757793 L28.56677,6.35823793 C28.56677,7.42545793 28.01138,7.92639793 27.16196,7.92639793 C26.31254,7.92639793 25.75715,7.40367793 25.75715,6.30378793 L25.75715,2.06757793 L23.61182,2.06757793 L23.61182,6.34734793 C23.61182,8.73225793 24.97307,9.83214793 27.14018,9.83214793 Z M34.07711,9.69057793 L34.07711,7.38189793 L35.00276,7.38189793 L36.53825,9.69057793 L38.97761,9.69057793 L37.15898,7.03341793 C38.10641,6.63048793 38.72714,5.85729793 38.72714,4.69206793 L38.72714,4.67028793 C38.72714,3.91887793 38.49845,3.33081793 38.05196,2.89521793 C37.54013,2.37249793 36.73427,2.06757793 35.56904,2.06757793 L31.96445,2.06757793 L31.96445,9.69057793 L34.07711,9.69057793 Z M35.47103,5.72661793 L34.07711,5.72661793 L34.07711,3.89709793 L35.46014,3.89709793 C36.16799,3.89709793 36.60359,4.20201793 36.60359,4.80096793 L36.60359,4.82274793 C36.60359,5.37813793 36.18977,5.72661793 35.47103,5.72661793 Z M41.96147,9.69057793 L41.96147,2.06757793 L39.83792,2.06757793 L39.83792,9.69057793 L41.96147,9.69057793 Z M47.33024,9.69057793 L47.33024,3.91887793 L49.61714,3.91887793 L49.61714,2.06757793 L42.93068,2.06757793 L42.93068,3.91887793 L45.21758,3.91887793 L45.21758,9.69057793 L47.33024,9.69057793 Z M54.86612,9.69057793 L54.86612,6.80472793 L57.76286,2.06757793 L55.39973,2.06757793 L53.82068,4.84452793 L52.25252,2.06757793 L49.84583,2.06757793 L52.74257,6.83739793 L52.74257,9.69057793 L54.86612,9.69057793 Z" id="CURITY"></path>
                </g>
                <polygon id="E" fill="#233C87" fill-rule="nonzero" points="188.8392 116.661378 188.8392 114.864528 184.74456 114.864528 184.74456 113.655738 188.4036 113.655738 188.4036 111.989568 184.74456 111.989568 184.74456 110.835228 188.78475 110.835228 188.78475 109.038378 182.65368 109.038378 182.65368 116.661378"></polygon>
                <path d="M193.54368,116.813838 C195.23163,116.813838 196.20084,116.084208 196.91958,115.093218 L195.32964,113.960658 C194.87226,114.516048 194.40399,114.886308 193.60902,114.886308 C192.5418,114.886308 191.79039,113.993328 191.79039,112.849878 L191.79039,112.828098 C191.79039,111.717318 192.5418,110.813448 193.60902,110.813448 C194.33865,110.813448 194.83959,111.161928 195.27519,111.706428 L196.86513,110.475858 C196.18995,109.539318 195.18807,108.885918 193.6308,108.885918 C191.32212,108.885918 189.61239,110.628318 189.61239,112.849878 L189.61239,112.871658 C189.61239,115.147668 191.36568,116.813838 193.54368,116.813838 Z" id="C" fill="#233C87" fill-rule="nonzero"></path>
                <path d="M201.44982,116.813838 C203.80206,116.813838 205.56624,115.038768 205.56624,112.849878 L205.56624,112.828098 C205.56624,110.639208 203.82384,108.885918 201.4716,108.885918 C199.11936,108.885918 197.35518,110.660988 197.35518,112.849878 L197.35518,112.871658 C197.35518,115.060548 199.09758,116.813838 201.44982,116.813838 Z M201.4716,114.908088 C200.31726,114.908088 199.52229,113.949768 199.52229,112.849878 L199.52229,112.828098 C199.52229,111.728208 200.29548,110.791668 201.44982,110.791668 C202.61505,110.791668 203.41002,111.749988 203.41002,112.849878 L203.41002,112.871658 C203.41002,113.971548 202.63683,114.908088 201.4716,114.908088 Z M208.75701,116.661378 L208.75701,112.479618 L212.01312,116.661378 L213.86442,116.661378 L213.86442,109.038378 L211.77354,109.038378 L211.77354,113.067678 L208.63722,109.038378 L206.66613,109.038378 L206.66613,116.661378 L208.75701,116.661378 Z M219.04806,116.813838 C221.4003,116.813838 223.16448,115.038768 223.16448,112.849878 L223.16448,112.828098 C223.16448,110.639208 221.42208,108.885918 219.06984,108.885918 C216.7176,108.885918 214.95342,110.660988 214.95342,112.849878 L214.95342,112.871658 C214.95342,115.060548 216.69582,116.813838 219.04806,116.813838 Z M219.06984,114.908088 C217.9155,114.908088 217.12053,113.949768 217.12053,112.849878 L217.12053,112.828098 C217.12053,111.728208 217.89372,110.791668 219.04806,110.791668 C220.21329,110.791668 221.00826,111.749988 221.00826,112.849878 L221.00826,112.871658 C221.00826,113.971548 220.23507,114.908088 219.06984,114.908088 Z M226.33347,116.661378 L226.33347,112.305378 L228.27189,115.267458 L228.31545,115.267458 L230.26476,112.283598 L230.26476,116.661378 L232.36653,116.661378 L232.36653,109.038378 L230.13408,109.038378 L228.31545,111.989568 L226.49682,109.038378 L224.26437,109.038378 L224.26437,116.661378 L226.33347,116.661378 Z M235.884,116.661378 L235.884,109.038378 L233.76045,109.038378 L233.76045,116.661378 L235.884,116.661378 Z M240.94785,116.813838 C242.6358,116.813838 243.60501,116.084208 244.32375,115.093218 L242.73381,113.960658 C242.27643,114.516048 241.80816,114.886308 241.01319,114.886308 C239.94597,114.886308 239.19456,113.993328 239.19456,112.849878 L239.19456,112.828098 C239.19456,111.717318 239.94597,110.813448 241.01319,110.813448 C241.74282,110.813448 242.24376,111.161928 242.67936,111.706428 L244.2693,110.475858 C243.59412,109.539318 242.59224,108.885918 241.03497,108.885918 C238.72629,108.885918 237.01656,110.628318 237.01656,112.849878 L237.01656,112.871658 C237.01656,115.147668 238.76985,116.813838 240.94785,116.813838 Z" id="ONOMIC" fill="#233C87" fill-rule="nonzero"></path>
                <path d="M356.26206,116.661378 L356.26206,114.864528 L352.16742,114.864528 L352.16742,113.655738 L355.82646,113.655738 L355.82646,111.989568 L352.16742,111.989568 L352.16742,110.835228 L356.20761,110.835228 L356.20761,109.038378 L350.07654,109.038378 L350.07654,116.661378 L356.26206,116.661378 Z M360.77052,116.802948 C362.93763,116.802948 364.34244,115.724838 364.34244,113.263698 L364.34244,109.038378 L362.19711,109.038378 L362.19711,113.329038 C362.19711,114.396258 361.64172,114.897198 360.7923,114.897198 C359.94288,114.897198 359.38749,114.374478 359.38749,113.274588 L359.38749,109.038378 L357.24216,109.038378 L357.24216,113.318148 C357.24216,115.703058 358.60341,116.802948 360.77052,116.802948 Z M367.70745,116.661378 L367.70745,114.352698 L368.6331,114.352698 L370.16859,116.661378 L372.60795,116.661378 L370.78932,114.004218 C371.73675,113.601288 372.35748,112.828098 372.35748,111.662868 L372.35748,111.641088 C372.35748,110.889678 372.12879,110.301618 371.6823,109.866018 C371.17047,109.343298 370.36461,109.038378 369.19938,109.038378 L365.59479,109.038378 L365.59479,116.661378 L367.70745,116.661378 Z M369.10137,112.697418 L367.70745,112.697418 L367.70745,110.867898 L369.09048,110.867898 C369.79833,110.867898 370.23393,111.172818 370.23393,111.771768 L370.23393,111.793548 C370.23393,112.348938 369.82011,112.697418 369.10137,112.697418 Z M377.25798,116.813838 C379.61022,116.813838 381.3744,115.038768 381.3744,112.849878 L381.3744,112.828098 C381.3744,110.639208 379.632,108.885918 377.27976,108.885918 C374.92752,108.885918 373.16334,110.660988 373.16334,112.849878 L373.16334,112.871658 C373.16334,115.060548 374.90574,116.813838 377.25798,116.813838 Z M377.27976,114.908088 C376.12542,114.908088 375.33045,113.949768 375.33045,112.849878 L375.33045,112.828098 C375.33045,111.728208 376.10364,110.791668 377.25798,110.791668 C378.42321,110.791668 379.21818,111.749988 379.21818,112.849878 L379.21818,112.871658 C379.21818,113.971548 378.44499,114.908088 377.27976,114.908088 Z M384.58695,116.661378 L384.58695,114.483378 L385.63239,114.483378 C387.52725,114.483378 388.91028,113.535948 388.91028,111.739098 L388.91028,111.717318 C388.91028,110.029368 387.66882,109.038378 385.74129,109.038378 L382.47429,109.038378 L382.47429,116.661378 L384.58695,116.661378 Z M385.58883,112.828098 L384.58695,112.828098 L384.58695,110.813448 L385.57794,110.813448 C386.34024,110.813448 386.79762,111.161928 386.79762,111.815328 L386.79762,111.837108 C386.79762,112.436058 386.34024,112.828098 385.58883,112.828098 Z M395.98878,116.661378 L395.98878,114.864528 L391.89414,114.864528 L391.89414,113.655738 L395.55318,113.655738 L395.55318,111.989568 L391.89414,111.989568 L391.89414,110.835228 L395.93433,110.835228 L395.93433,109.038378 L389.80326,109.038378 L389.80326,116.661378 L395.98878,116.661378 Z M398.67861,116.661378 L399.22311,115.300128 L402.16341,115.300128 L402.7188,116.661378 L404.98392,116.661378 L401.7387,108.983928 L399.70227,108.983928 L396.45705,116.661378 L398.67861,116.661378 Z M401.55357,113.655738 L399.84384,113.655738 L400.70415,111.488628 L401.55357,113.655738 Z M407.81532,116.661378 L407.81532,112.479618 L411.07143,116.661378 L412.92273,116.661378 L412.92273,109.038378 L410.83185,109.038378 L410.83185,113.067678 L407.69553,109.038378 L405.72444,109.038378 L405.72444,116.661378 L407.81532,116.661378 Z" id="EUROPEAN" fill="#233C87" fill-rule="nonzero"></path>
                <path d="M349.41451,132.496038 C350.79754,132.496038 351.91921,131.984208 352.72507,131.319918 L352.72507,127.889568 L349.21849,127.889568 L349.21849,129.435948 L350.72131,129.435948 L350.72131,130.361598 C350.4055,130.568508 350.01346,130.677408 349.50163,130.677408 C348.29284,130.677408 347.43253,129.795318 347.43253,128.564748 L347.43253,128.542968 C347.43253,127.377738 348.28195,126.452088 349.38184,126.452088 C350.13325,126.452088 350.67775,126.713448 351.22225,127.170828 L352.46371,125.678898 C351.65785,124.981938 350.71042,124.568118 349.37095,124.568118 C347.00782,124.568118 345.26542,126.310518 345.26542,128.532078 L345.26542,128.553858 C345.26542,130.862538 347.04049,132.496038 349.41451,132.496038 Z M356.01385,132.343578 L356.01385,130.034898 L356.9395,130.034898 L358.47499,132.343578 L360.91435,132.343578 L359.09572,129.686418 C360.04315,129.283488 360.66388,128.510298 360.66388,127.345068 L360.66388,127.323288 C360.66388,126.571878 360.43519,125.983818 359.9887,125.548218 C359.47687,125.025498 358.67101,124.720578 357.50578,124.720578 L353.90119,124.720578 L353.90119,132.343578 L356.01385,132.343578 Z M357.40777,128.379618 L356.01385,128.379618 L356.01385,126.550098 L357.39688,126.550098 C358.10473,126.550098 358.54033,126.855018 358.54033,127.453968 L358.54033,127.475748 C358.54033,128.031138 358.12651,128.379618 357.40777,128.379618 Z M367.91662,132.343578 L367.91662,130.546728 L363.82198,130.546728 L363.82198,129.337938 L367.48102,129.337938 L367.48102,127.671768 L363.82198,127.671768 L363.82198,126.517428 L367.86217,126.517428 L367.86217,124.720578 L361.7311,124.720578 L361.7311,132.343578 L367.91662,132.343578 Z M375.18025,132.343578 L375.18025,130.546728 L371.08561,130.546728 L371.08561,129.337938 L374.74465,129.337938 L374.74465,127.671768 L371.08561,127.671768 L371.08561,126.517428 L375.1258,126.517428 L375.1258,124.720578 L368.99473,124.720578 L368.99473,132.343578 L375.18025,132.343578 Z M378.34924,132.343578 L378.34924,128.161818 L381.60535,132.343578 L383.45665,132.343578 L383.45665,124.720578 L381.36577,124.720578 L381.36577,128.749878 L378.22945,124.720578 L376.25836,124.720578 L376.25836,132.343578 L378.34924,132.343578 Z M390.72028,132.343578 C393.46456,132.343578 395.06539,130.710078 395.06539,128.510298 L395.06539,128.488518 C395.06539,126.288738 393.48634,124.720578 390.76384,124.720578 L387.82354,124.720578 L387.82354,132.343578 L390.72028,132.343578 Z M390.79651,130.470498 L389.9362,130.470498 L389.9362,126.593658 L390.79651,126.593658 C392.05975,126.593658 392.89828,127.301508 392.89828,128.521188 L392.89828,128.542968 C392.89828,129.773538 392.05975,130.470498 390.79651,130.470498 Z M402.33991,132.343578 L402.33991,130.546728 L398.24527,130.546728 L398.24527,129.337938 L401.90431,129.337938 L401.90431,127.671768 L398.24527,127.671768 L398.24527,126.517428 L402.28546,126.517428 L402.28546,124.720578 L396.15439,124.720578 L396.15439,132.343578 L402.33991,132.343578 Z M405.02974,132.343578 L405.57424,130.982328 L408.51454,130.982328 L409.06993,132.343578 L411.33505,132.343578 L408.08983,124.666128 L406.0534,124.666128 L402.80818,132.343578 L405.02974,132.343578 Z M407.9047,129.337938 L406.19497,129.337938 L407.05528,127.170828 L407.9047,129.337938 Z M417.87994,132.343578 L417.87994,130.492278 L414.18823,130.492278 L414.18823,124.720578 L412.07557,124.720578 L412.07557,132.343578 L417.87994,132.343578 Z" id="GREENDEAL" fill="#233C87" fill-rule="nonzero"></path>
                <path d="M502.68263,116.792058 C504.53393,116.792058 505.7645,115.866408 505.7645,114.309138 L505.7645,114.287358 C505.7645,112.860768 504.6755,112.294488 502.92221,111.913338 C501.86588,111.673758 501.60452,111.521298 501.60452,111.172818 L501.60452,111.151038 C501.60452,110.878788 501.85499,110.660988 502.36682,110.660988 C503.042,110.660988 503.8043,110.922348 504.50126,111.412398 L505.55759,109.920468 C504.72995,109.256178 503.71718,108.907698 502.42127,108.907698 C500.59175,108.907698 499.47008,109.931358 499.47008,111.347058 L499.47008,111.368838 C499.47008,112.936998 500.72243,113.394378 502.34504,113.764638 C503.37959,114.004218 503.63006,114.178458 503.63006,114.494268 L503.63006,114.516048 C503.63006,114.842748 503.32514,115.038768 502.75886,115.038768 C501.87677,115.038768 501.03824,114.722958 500.28683,114.124008 L499.11071,115.528818 C500.04725,116.367348 501.33227,116.792058 502.68263,116.792058 Z M510.62144,116.813838 C512.97368,116.813838 514.73786,115.038768 514.73786,112.849878 L514.73786,112.828098 C514.73786,110.639208 512.99546,108.885918 510.64322,108.885918 C508.29098,108.885918 506.5268,110.660988 506.5268,112.849878 L506.5268,112.871658 C506.5268,115.060548 508.2692,116.813838 510.62144,116.813838 Z M510.64322,114.908088 C509.48888,114.908088 508.69391,113.949768 508.69391,112.849878 L508.69391,112.828098 C508.69391,111.728208 509.4671,110.791668 510.62144,110.791668 C511.78667,110.791668 512.58164,111.749988 512.58164,112.849878 L512.58164,112.871658 C512.58164,113.971548 511.80845,114.908088 510.64322,114.908088 Z M519.50768,116.813838 C521.19563,116.813838 522.16484,116.084208 522.88358,115.093218 L521.29364,113.960658 C520.83626,114.516048 520.36799,114.886308 519.57302,114.886308 C518.5058,114.886308 517.75439,113.993328 517.75439,112.849878 L517.75439,112.828098 C517.75439,111.717318 518.5058,110.813448 519.57302,110.813448 C520.30265,110.813448 520.80359,111.161928 521.23919,111.706428 L522.82913,110.475858 C522.15395,109.539318 521.15207,108.885918 519.5948,108.885918 C517.28612,108.885918 515.57639,110.628318 515.57639,112.849878 L515.57639,112.871658 C515.57639,115.147668 517.32968,116.813838 519.50768,116.813838 Z M525.95456,116.661378 L525.95456,109.038378 L523.83101,109.038378 L523.83101,116.661378 L525.95456,116.661378 Z M531.18176,116.813838 C533.534,116.813838 535.29818,115.038768 535.29818,112.849878 L535.29818,112.828098 C535.29818,110.639208 533.55578,108.885918 531.20354,108.885918 C528.8513,108.885918 527.08712,110.660988 527.08712,112.849878 L527.08712,112.871658 C527.08712,115.060548 528.82952,116.813838 531.18176,116.813838 Z M531.20354,114.908088 C530.0492,114.908088 529.25423,113.949768 529.25423,112.849878 L529.25423,112.828098 C529.25423,111.728208 530.02742,110.791668 531.18176,110.791668 C532.34699,110.791668 533.14196,111.749988 533.14196,112.849878 L533.14196,112.871658 C533.14196,113.971548 532.36877,114.908088 531.20354,114.908088 Z M539.73041,114.167568 L539.73041,112.348938 L536.15849,112.348938 L536.15849,114.167568 L539.73041,114.167568 Z M544.51112,116.813838 C546.19907,116.813838 547.16828,116.084208 547.88702,115.093218 L546.29708,113.960658 C545.8397,114.516048 545.37143,114.886308 544.57646,114.886308 C543.50924,114.886308 542.75783,113.993328 542.75783,112.849878 L542.75783,112.828098 C542.75783,111.717318 543.50924,110.813448 544.57646,110.813448 C545.30609,110.813448 545.80703,111.161928 546.24263,111.706428 L547.83257,110.475858 C547.15739,109.539318 546.15551,108.885918 544.59824,108.885918 C542.28956,108.885918 540.57983,110.628318 540.57983,112.849878 L540.57983,112.871658 C540.57983,115.147668 542.33312,116.813838 544.51112,116.813838 Z M552.22124,116.802948 C554.38835,116.802948 555.79316,115.724838 555.79316,113.263698 L555.79316,109.038378 L553.64783,109.038378 L553.64783,113.329038 C553.64783,114.396258 553.09244,114.897198 552.24302,114.897198 C551.3936,114.897198 550.83821,114.374478 550.83821,113.274588 L550.83821,109.038378 L548.69288,109.038378 L548.69288,113.318148 C548.69288,115.703058 550.05413,116.802948 552.22124,116.802948 Z M562.84988,116.661378 L562.84988,114.810078 L559.15817,114.810078 L559.15817,109.038378 L557.04551,109.038378 L557.04551,116.661378 L562.84988,116.661378 Z" id="SOCIO-CUL" fill="#233C87" fill-rule="nonzero"></path>
                <path d="M566.67227,116.661378 L566.67227,110.889678 L568.95917,110.889678 L568.95917,109.038378 L562.27271,109.038378 L562.27271,110.889678 L564.55961,110.889678 L564.55961,116.661378 L566.67227,116.661378 Z M573.31517,116.802948 C575.48228,116.802948 576.88709,115.724838 576.88709,113.263698 L576.88709,109.038378 L574.74176,109.038378 L574.74176,113.329038 C574.74176,114.396258 574.18637,114.897198 573.33695,114.897198 C572.48753,114.897198 571.93214,114.374478 571.93214,113.274588 L571.93214,109.038378 L569.78681,109.038378 L569.78681,113.318148 C569.78681,115.703058 571.14806,116.802948 573.31517,116.802948 Z M580.2521,116.661378 L580.2521,114.352698 L581.17775,114.352698 L582.71324,116.661378 L585.1526,116.661378 L583.33397,114.004218 C584.2814,113.601288 584.90213,112.828098 584.90213,111.662868 L584.90213,111.641088 C584.90213,110.889678 584.67344,110.301618 584.22695,109.866018 C583.71512,109.343298 582.90926,109.038378 581.74403,109.038378 L578.13944,109.038378 L578.13944,116.661378 L580.2521,116.661378 Z M581.64602,112.697418 L580.2521,112.697418 L580.2521,110.867898 L581.63513,110.867898 C582.34298,110.867898 582.77858,111.172818 582.77858,111.771768 L582.77858,111.793548 C582.77858,112.348938 582.36476,112.697418 581.64602,112.697418 Z" id="TUR" fill="#233C87" fill-rule="nonzero"></path>
                <g id="Group-6" transform="translate(585.000000, 107.653000)" fill="#233C87" fill-rule="nonzero">
                    <path d="M2.4431,9.00837793 L2.9876,7.64712793 L5.9279,7.64712793 L6.48329,9.00837793 L8.74841,9.00837793 L5.50319,1.33092793 L3.46676,1.33092793 L0.22154,9.00837793 L2.4431,9.00837793 Z M5.31806,6.00273793 L3.60833,6.00273793 L4.46864,3.83562793 L5.31806,6.00273793 Z M15.2933,9.00837793 L15.2933,7.15707793 L11.60159,7.15707793 L11.60159,1.38537793 L9.48893,1.38537793 L9.48893,9.00837793 L15.2933,9.00837793 Z" id="AL"></path>
                </g>
                <g id="Group-9" opacity="0.552176339" transform="translate(0.000000, 0.653000)">
                    <mask id="mask-2" fill="white">
                        <use xlink:href="#path-1"></use>
                    </mask>
                    <g id="Clip-8"></g>
                    <polygon id="Fill-7" fill="url(#linearGradient-3)" mask="url(#mask-2)" points="0 91.129 596.039 91.129 596.039 0.347 0 0.347"></polygon>
                </g>
                <polygon id="Fill-10" fill="url(#linearGradient-4)" points="80.852 49.126 177.919 49.126 177.919 43.656 80.852 43.656"></polygon>
                <polygon id="Fill-12" fill="url(#linearGradient-5)" points="248.513 49.126 345.581 49.126 345.581 43.656 248.513 43.656"></polygon>
                <polygon id="Fill-14" fill="url(#linearGradient-5)" points="417.313 49.126 514.381 49.126 514.381 43.656 417.313 43.656"></polygon>
                <g id="Group-18" transform="translate(175.000000, 7.653000)">
                    <mask id="mask-7" fill="white">
                        <use xlink:href="#path-6"></use>
                    </mask>
                    <g id="Clip-17"></g>
                    <path d="M0.728,38.738 C0.728,59.598 17.637,76.507 38.496,76.507 L38.496,76.507 C59.355,76.507 76.265,59.598 76.265,38.738 L76.265,38.738 C76.265,17.879 59.355,0.97 38.496,0.97 L38.496,0.97 C17.637,0.97 0.728,17.879 0.728,38.738" id="Fill-16" fill="url(#linearGradient-8)" mask="url(#mask-7)"></path>
                </g>
                <g id="Group-21" transform="translate(511.000000, 7.653000)">
                    <mask id="mask-10" fill="white">
                        <use xlink:href="#path-9"></use>
                    </mask>
                    <g id="Clip-20"></g>
                    <path d="M0.939,38.738 C0.939,59.598 17.848,76.507 38.707,76.507 L38.707,76.507 C59.567,76.507 76.476,59.598 76.476,38.738 L76.476,38.738 C76.476,17.879 59.567,0.97 38.707,0.97 L38.707,0.97 C17.848,0.97 0.939,17.879 0.939,38.738" id="Fill-19" fill="url(#linearGradient-8)" mask="url(#mask-10)"></path>
                </g>
                <g id="Group-24" transform="translate(343.000000, 7.653000)">
                    <mask id="mask-12" fill="white">
                        <use xlink:href="#path-11"></use>
                    </mask>
                    <g id="Clip-23"></g>
                    <path d="M0.833,38.738 C0.833,59.598 17.742,76.507 38.603,76.507 L38.603,76.507 C59.461,76.507 76.371,59.598 76.371,38.738 L76.371,38.738 C76.371,17.879 59.461,0.97 38.603,0.97 L38.603,0.97 C17.742,0.97 0.833,17.879 0.833,38.738" id="Fill-22" fill="url(#linearGradient-13)" mask="url(#mask-12)"></path>
                </g>
                <g id="Group-27" transform="translate(7.000000, 7.653000)">
                    <mask id="mask-15" fill="white">
                        <use xlink:href="#path-14"></use>
                    </mask>
                    <g id="Clip-26"></g>
                    <path d="M0.622,38.738 C0.622,59.598 17.531,76.507 38.391,76.507 L38.391,76.507 C59.25,76.507 76.159,59.598 76.159,38.738 L76.159,38.738 C76.159,17.879 59.25,0.97 38.391,0.97 L38.391,0.97 C17.531,0.97 0.622,17.879 0.622,38.738" id="Fill-25" fill="url(#linearGradient-8)" mask="url(#mask-15)"></path>
                </g>
                <g id="Group-36" transform="translate(26.000000, 22.653000)" fill="#FFFFFF">
                    <path d="M342.3186,38.3784 C345.9866,32.7854 350.5246,28.1934 356.2956,24.7974 C357.0306,24.3644 357.2756,23.4144 356.8426,22.6794 C356.4096,21.9434 355.4616,21.6994 354.7266,22.1314 C351.5646,23.9934 348.6476,26.2624 346.0526,28.8584 C345.7926,29.1184 345.5356,29.3834 345.2816,29.6504 L344.9506,29.9974 L344.8086,29.5394 C344.5846,28.8134 344.4526,28.0634 344.4476,27.3014 C344.4306,24.6954 345.8456,22.5364 347.6326,20.7544 C351.6946,16.7044 358.2826,15.1004 363.8656,14.8164 L364.1766,14.8004 L364.1616,15.1114 C363.8836,20.6944 362.2676,27.2394 358.2046,31.2904 C356.2796,33.2114 354.0046,34.7914 351.1696,34.1954 C350.3346,34.0194 349.5126,34.5544 349.3376,35.3894 C349.1606,36.2244 349.6966,37.0464 350.5306,37.2214 C351.1386,37.3484 351.7566,37.4164 352.3776,37.4164 C353.7076,37.4164 354.9886,37.1084 356.1946,36.5524 C357.7766,35.8224 359.1636,34.7034 360.3896,33.4804 C365.3016,28.5834 367.4316,20.1534 367.2906,13.2874 C367.3186,12.4374 366.6536,11.7214 365.8016,11.6914 C359.0196,11.4434 350.3216,13.7054 345.4486,18.5644 C343.0606,20.9464 341.3336,23.8684 341.3556,27.3214 C341.3666,29.1374 341.8556,30.8014 342.6376,32.4254 L342.7136,32.5844 L342.6036,32.7224 C341.7666,33.7674 340.9716,34.8464 340.2186,35.9534 L340.0016,36.2734 L339.7646,35.9664 C337.0476,32.4544 335.5846,28.1794 335.5846,23.7384 C335.5846,12.7004 344.5646,3.7204 355.6026,3.7204 C366.6406,3.7204 375.6206,12.7004 375.6206,23.7384 C375.6206,27.7094 374.4326,31.5494 372.2276,34.8484 C371.7526,35.5584 371.9436,36.5184 372.6526,36.9934 C373.3626,37.4684 374.3236,37.2784 374.7976,36.5684 C377.3466,32.7574 378.7136,28.3224 378.7136,23.7384 C378.7136,17.5654 376.3106,11.7604 371.9446,7.3964 C367.5796,3.0304 361.7756,0.6274 355.6026,0.6274 C349.4296,0.6274 343.6246,3.0304 339.2596,7.3964 C334.8946,11.7604 332.4906,17.5654 332.4906,23.7384 C332.4906,29.9114 334.8946,35.7154 339.2596,40.0804 C343.6246,44.4464 349.4296,46.8494 355.6026,46.8494 C359.8176,46.8494 363.9546,45.7034 367.5606,43.5194 C368.2876,43.0784 368.5236,42.1234 368.0826,41.3954 C367.6416,40.6674 366.6856,40.4334 365.9586,40.8744 C362.8366,42.7644 359.2526,43.7564 355.6026,43.7564 C350.7106,43.7564 346.0326,41.9804 342.3676,38.7434 L342.1846,38.5824 L342.3186,38.3784 Z" id="Fill-28"></path>
                    <path d="M19.3909,46.0937 L19.7769,45.9477 C25.2609,43.8797 29.9419,40.2587 33.2889,35.4457 C36.6349,30.6317 38.3999,24.9857 38.3999,19.1217 L38.3999,7.4947 L19.3909,1.3827 L0.3819,7.4947 L0.3819,19.1217 C0.3819,24.9857 2.1459,30.6317 5.4929,35.4457 C8.8399,40.2587 13.5199,43.8807 19.0039,45.9477 L19.3909,46.0937 Z M32.0259,29.6647 L32.0259,21.7757 L27.7709,21.7757 L27.7459,21.6437 C27.3039,19.3017 25.7139,17.3227 23.5329,16.3757 L23.3459,16.2947 L23.4679,16.1307 C24.1199,15.2507 24.4699,14.1947 24.4699,13.0987 C24.4699,10.2877 22.1839,8.0017 19.3729,8.0017 C16.5629,8.0017 14.2749,10.2877 14.2749,13.0987 C14.2749,14.1967 14.6269,15.2557 15.2829,16.1357 L15.4039,16.2997 L15.2169,16.3817 C13.0419,17.3317 11.4579,19.3067 11.0179,21.6437 L10.9929,21.7757 L6.7559,21.7757 L6.7559,29.6647 L10.8629,29.6647 L10.8629,38.3457 L10.5869,38.0777 C9.3679,36.8927 8.2649,35.5907 7.2939,34.1937 C4.2039,29.7497 2.5749,24.5347 2.5749,19.1217 L2.5749,9.1887 L19.3909,3.5587 L36.2069,9.1887 L36.2069,19.1217 C36.2069,24.5347 34.5789,29.7497 31.4889,34.1937 C30.5059,35.6077 29.3879,36.9237 28.1509,38.1207 L27.8759,38.3867 L27.8759,29.6647 L32.0259,29.6647 Z M13.2749,40.3627 L13.2749,29.6647 L25.4629,29.6647 L25.4629,40.3947 L25.3959,40.4427 C23.5629,41.7857 21.5629,42.8867 19.4499,43.7237 L19.3909,43.7477 L19.3309,43.7237 C17.2019,42.8797 15.1869,41.7677 13.3409,40.4107 L13.2749,40.3627 Z M19.3729,10.4137 C20.8529,10.4137 22.0579,11.6187 22.0579,13.0977 C22.0579,14.5787 20.8529,15.7827 19.3729,15.7827 C17.8919,15.7827 16.6889,14.5787 16.6889,13.0977 C16.6889,11.6177 17.8929,10.4137 19.3729,10.4137 L19.3729,10.4137 Z M18.0879,18.1957 L20.6759,18.1957 C22.7719,18.1957 24.6269,19.5687 25.2459,21.5657 L25.3109,21.7757 L13.4539,21.7757 L13.5179,21.5657 C14.1369,19.5687 15.9919,18.1957 18.0879,18.1957 L18.0879,18.1957 Z M9.1689,27.2517 L29.6139,27.2517 L29.6139,24.1887 L9.1689,24.1887 L9.1689,27.2517 Z" id="Fill-30"></path>
                    <path d="M206.4055,30.1968 C205.1635,33.9038 202.8675,37.1758 199.8135,39.6178 C196.2035,42.5028 191.7585,44.0498 187.1375,44.0498 C183.7515,44.0498 180.4315,43.2198 177.4545,41.6028 C175.2205,40.3898 173.2285,38.7618 171.5925,36.8178 L171.4215,36.6158 L174.2795,36.6158 C174.9325,36.6158 175.4615,36.0868 175.4615,35.4338 C175.4615,34.7808 174.9315,34.2518 174.2795,34.2518 L169.1015,34.2518 C168.4485,34.2518 167.9195,34.7808 167.9195,35.4338 L167.9195,40.6118 C167.9195,41.2628 168.4485,41.7938 169.1015,41.7938 C169.7545,41.7938 170.2835,41.2638 170.2835,40.6118 L170.2835,38.9058 L170.4965,39.1368 C172.1785,40.9528 174.1525,42.4888 176.3285,43.6718 C179.6525,45.4768 183.3565,46.4138 187.1375,46.4138 C192.2945,46.4138 197.2545,44.6758 201.2815,41.4568 C205.2785,38.2628 208.0955,33.8078 209.2405,28.8078 C209.5085,27.9668 208.8395,27.0408 207.8865,27.2968 L203.0205,28.6718 L201.3635,22.5968 C201.0665,21.5508 200.7725,20.5038 200.4855,19.4538 C200.2285,18.5168 199.8655,17.4828 199.7185,16.5308 L199.6995,16.4128 L199.8185,16.3918 C200.1865,16.3268 200.5405,16.1958 200.8995,16.0958 L205.5175,14.8208 C206.2325,14.6228 206.8495,14.1548 206.5095,13.3438 C206.4025,13.0848 206.2535,12.8248 205.9965,12.6888 C205.5515,12.4518 204.8315,12.6848 204.3785,12.8198 C203.2825,13.1448 202.1965,13.4978 201.0875,13.7768 C200.3525,13.9608 199.6265,14.1738 198.8975,14.3768 C198.1545,14.5848 197.3825,14.6198 197.2485,15.5328 L197.2295,15.6648 L197.0985,15.6338 C195.3595,15.2268 193.6245,14.7988 191.8825,14.4058 C190.2215,14.0308 187.8785,13.3758 186.2095,13.3758 C184.7035,13.3758 183.0795,14.0538 181.9765,15.0718 C181.4615,15.5468 180.3385,15.4878 179.6715,15.5618 C178.8375,15.6548 178.0065,15.7888 177.1645,15.8108 L177.0515,15.8138 L177.0395,15.7008 C176.9075,14.4598 175.6165,14.4128 174.6545,14.1678 C173.1405,13.7828 171.6475,13.3188 170.1435,12.8958 L169.9835,12.8508 L170.0735,12.7108 C171.7945,10.0528 174.1215,7.8228 176.8505,6.2168 C179.9755,4.3788 183.5145,3.4268 187.1375,3.4268 C189.8875,3.4268 192.6055,3.9738 195.1345,5.0578 C196.6345,5.6998 198.0555,6.5248 199.3585,7.5078 L199.6525,7.7288 L197.5215,7.7288 C196.8695,7.7288 196.3405,8.2578 196.3405,8.9108 C196.3405,9.5628 196.8695,10.0928 197.5215,10.0928 L202.6985,10.0928 C203.3515,10.0928 203.8815,9.5628 203.8815,8.9108 L203.8815,3.7338 C203.8815,3.0808 203.3515,2.5508 202.6985,2.5508 C202.0465,2.5508 201.5175,3.0798 201.5175,3.7338 L201.5175,6.2058 L201.3175,6.0458 C199.7165,4.7608 197.9445,3.6958 196.0575,2.8868 C193.2375,1.6788 190.2065,1.0628 187.1375,1.0628 C183.0935,1.0628 179.1455,2.1328 175.6585,4.1838 C172.1715,6.2348 169.2805,9.1968 167.3135,12.7308 C167.2915,12.7708 167.2725,12.8118 167.2445,12.8728 C167.1975,12.9448 167.1645,13.0238 167.1415,13.1078 C166.8865,14.0618 167.4285,14.3658 168.2725,14.5698 C170.3125,15.0638 172.3915,16.1388 174.4545,16.3978 L174.5795,16.4128 L174.5605,16.5378 C174.4205,17.4778 174.0185,18.4678 173.7755,19.3948 C172.9725,22.4518 172.0115,25.4678 171.2805,28.5438 L171.2515,28.6688 L167.7395,27.6508 C166.9975,27.4348 166.0165,27.1398 165.7475,28.1448 C165.4945,29.0898 166.1515,29.5248 166.9695,29.7558 C168.3255,30.1388 169.6865,30.5088 171.0425,30.8948 C171.7925,31.1078 172.4505,31.2568 172.9515,30.5168 L173.0205,30.4148 L173.1225,30.4848 C176.2185,32.5888 179.0265,35.0988 182.0165,37.3478 C183.3845,38.3768 184.1135,39.4128 185.9775,39.4128 C187.0115,39.4128 188.1175,38.5308 188.4695,37.5788 L188.5115,37.4668 L188.6255,37.5058 C189.0825,37.6638 189.4165,37.8798 189.9185,37.9498 C190.9325,38.0918 191.7605,37.6348 192.4345,36.9088 C192.7455,36.5738 192.8915,36.1998 193.0885,35.7998 L193.1285,35.7178 L193.2185,35.7318 C194.8875,36.0078 196.6245,34.8048 196.7795,33.0878 L196.7875,33.0008 L196.8715,32.9798 C198.3605,32.5988 199.1195,31.9718 199.5215,30.4638 L199.5475,30.3658 L199.6485,30.3728 C200.1375,30.4038 200.5965,30.3948 201.0645,30.2328 L201.1915,30.1898 L201.2235,30.3198 C201.5635,31.6578 203.4655,30.7808 204.3305,30.5608 C204.9745,30.3968 205.6155,30.2228 206.2555,30.0398 L206.4795,29.9748 L206.4055,30.1968 Z M200.4555,28.1008 C198.9475,28.5698 197.1895,26.5878 196.1065,25.7608 C194.6735,24.6668 185.8535,17.5928 185.1645,17.4398 C184.4895,17.4398 183.9885,17.7858 183.9885,18.4998 C183.9885,19.0878 184.3165,19.5598 184.8455,19.8008 L184.9725,19.8588 L184.8985,19.9778 C183.9675,21.4768 182.1285,22.3758 180.4315,21.6158 L180.3235,21.5678 L180.3685,21.4568 C180.8295,20.3278 181.7985,19.0148 182.4385,17.9338 C184.2105,14.9448 186.5645,15.4808 189.4775,16.1428 L197.6205,17.9928 C198.1075,18.1638 197.9865,18.5578 198.0925,18.9478 L200.5695,28.0668 L200.4555,28.1008 Z M173.6965,28.0958 C173.8455,26.7848 174.4705,25.0598 174.8325,23.7468 C175.2315,22.2948 175.6395,20.8448 176.0505,19.3968 C176.1595,19.0128 176.3005,18.6498 176.3415,18.2498 L176.3515,18.1518 L180.0255,17.7318 L179.8845,17.9488 C179.5225,18.5148 177.7185,21.3738 177.7185,21.8668 C177.7185,23.0318 179.8355,23.8428 180.7755,24.0048 C182.9755,24.3838 184.9635,23.4478 186.3125,21.7148 C186.4175,21.5808 186.5305,21.4548 186.6355,21.3228 L186.7085,21.2338 L186.8025,21.2998 C187.6625,21.9008 188.4415,22.6068 189.2835,23.2348 L194.7885,27.4758 C195.2535,27.8328 197.1885,29.2238 197.3455,29.6798 C197.3405,30.2088 197.1905,30.7928 196.5435,30.7928 C196.0925,30.7928 195.2055,29.9888 194.8475,29.6968 C194.0335,29.0318 193.1785,28.4198 192.3425,27.7848 C191.6515,27.2598 190.3415,25.9158 189.4605,25.9158 C188.8845,25.9158 188.4015,26.3988 188.4015,26.9758 C188.4015,27.8698 192.4515,30.5808 193.2355,31.2288 C193.5935,31.5258 194.6705,32.1718 194.6705,32.6648 C194.6705,32.9008 194.4735,33.2608 194.2915,33.4088 C193.8375,33.7808 193.2185,33.3948 192.8425,33.0958 L190.2885,31.1188 C189.7505,30.7178 187.0795,28.4698 186.6735,28.4698 C185.4005,28.4698 184.8635,29.6558 185.8715,30.4648 L190.5185,34.0708 C190.7565,34.2598 191.0725,34.3938 191.0725,34.7548 C191.0725,35.2318 190.6645,35.7858 190.1535,35.7858 C189.2075,35.7538 184.6405,31.0248 183.3065,31.0248 C183.0015,31.0248 182.5915,31.2598 182.4085,31.5008 C181.8995,32.1708 182.6525,32.9108 183.1595,33.3008 C183.9765,33.9278 185.9485,35.2378 186.4845,35.9708 C186.8615,36.4868 186.2115,37.8098 185.0585,36.9258 C181.6425,34.3088 178.2375,31.6768 174.8435,29.0298 C174.4845,28.7498 174.1515,28.4478 173.7565,28.2168 L173.6875,28.1758 L173.6965,28.0958 Z" id="Fill-32"></path>
                    <path d="M506.3069,17.2856 L501.8129,12.7916 C501.3449,12.3236 501.3459,11.5616 501.8129,11.0936 C502.2809,10.6246 503.0439,10.6246 503.5119,11.0936 L508.3579,15.9396 C508.5829,16.1656 508.7089,16.4716 508.7089,16.7906 L508.7069,18.1446 C508.7069,18.8086 508.1679,19.3456 507.5049,19.3446014 C506.8419,19.3436 506.3049,18.8056 506.3059,18.1426 L506.3069,17.2856 Z M516.8989,41.5686 L513.2709,45.2746 C513.0459,45.5036 512.7409,45.6276 512.4199,45.6276 C512.1009,45.6276 511.7969,45.5016 511.5709,45.2756 C511.1029,44.8066 511.1089,44.0506 511.5699,43.5786 L515.5509,39.5186 C515.7739,39.2916 516.0849,39.1656 516.4039,39.1666 L518.6779,39.1696 C521.3829,39.1726 523.9199,38.1246 525.8319,36.2126 L534.8919,27.1526 C535.1009,26.9436 535.2159,26.6656 535.2159,26.3706 C535.2159,26.0756 535.1009,25.7986 534.8919,25.5896 C534.4989,25.1966 533.8689,25.1556 533.4399,25.4936 L530.1609,28.7696 C529.9349,28.9956 529.6319,29.1216 529.3119,29.1216 C528.9929,29.1216 528.6879,28.9956 528.4629,28.7696 C527.9939,28.3006 527.9939,27.5406 528.4629,27.0716 L533.3409,22.1936 C533.5489,21.9856 533.6639,21.7066 533.6639,21.4126 C533.6639,21.1176 533.5499,20.8396 533.3409,20.6306 C532.9489,20.2376 532.3179,20.1986 531.8889,20.5356 L526.9059,25.5146 C526.6809,25.7406 526.3769,25.8676 526.0569,25.8676 C525.7379,25.8676 525.4339,25.7406 525.2079,25.5146 C524.7389,25.0466 524.7389,24.2856 525.2079,23.8166 L531.6259,17.3996 C532.0569,16.9686 532.0569,16.2666 531.6259,15.8366 C531.1949,15.4066 530.4939,15.4056 530.0629,15.8356 L523.6519,22.2596 C523.1829,22.7286 522.4219,22.7286 521.9529,22.2596 C521.4839,21.7896 521.4849,21.0306 521.9529,20.5606 L526.9049,15.5996 C527.0669,15.3956 527.1549,15.1626 527.1549,14.9026 C527.1549,14.6076 527.0399,14.3296 526.8309,14.1216 C526.3989,13.6906 525.6999,13.6906 525.2679,14.1216 L516.8869,22.5026 C516.3289,23.0596 515.4669,23.1136 514.8469,22.6256 C514.2239,22.1386 514.0699,21.2916 514.4799,20.6156 L515.8379,18.3756 C516.1499,17.8616 516.0059,17.1756 515.5129,16.8296 C515.2579,16.6506 514.9449,16.5836 514.6379,16.6396 C514.3299,16.6966 514.0639,16.8726 513.8899,17.1326 L510.4149,22.3156 C509.2939,23.9866 508.7009,25.9386 508.7029,27.9526 L508.7089,31.4726 C508.7089,31.7916 508.5829,32.0976 508.3579,32.3236 L503.5429,37.1376 C503.3169,37.3636 503.0139,37.4906 502.6939,37.4906 C502.3749,37.4906 502.0709,37.3636 501.8449,37.1376 C501.3769,36.6686 501.3769,35.9086 501.8449,35.4396 L506.3069,30.9776 L506.3019,27.9556 C506.2969,25.4626 507.0329,23.0476 508.4199,20.9766 L511.8959,15.7946 C512.4319,14.9946 513.2499,14.4556 514.1979,14.2786 C515.1409,14.1016 516.1039,14.3116 516.8899,14.8616 C517.7479,15.4616 518.2899,16.4066 518.3899,17.4476 L518.4029,17.5916 L523.5709,12.4236 C524.9379,11.0566 527.1619,11.0566 528.5299,12.4236 C528.8199,12.7146 529.0579,13.0546 529.2309,13.4266 L529.2609,13.4886 L529.3229,13.4596 C530.6589,12.8196 532.2759,13.0906 533.3249,14.1386 C534.3759,15.1906 534.6439,16.8006 534.0019,18.1406 L533.9729,18.2026 L534.0359,18.2316 C534.4089,18.4046 534.7479,18.6426 535.0389,18.9326 C535.7019,19.5966 536.0659,20.4756 536.0659,21.4126 C536.0659,22.0146 535.9129,22.6006 535.6189,23.1256 L535.5839,23.1886 L535.6489,23.2206 C535.9969,23.3896 536.3159,23.6166 536.5899,23.8906 C537.9569,25.2586 537.9569,27.4826 536.5899,28.8496 L527.5299,37.9106 C525.1699,40.2696 522.0319,41.5766 518.6929,41.5716 L516.8989,41.5686 Z M530.5899,41.5696 L528.7519,41.5726 C528.0879,41.5736 527.549899,41.0366 527.549899,40.3736 C527.5489,39.7106 528.0859,39.1736 528.7489,39.1716 L531.0859,39.1665942 C531.4039,39.1656 531.7099,39.2936 531.9349,39.5186 L535.9429,43.5246 C536.4119,43.9936 536.4119,44.7546 535.9429,45.2236 C535.7169,45.4496 535.4129,45.5746 535.0939,45.5746 C534.7739,45.5746 534.4709,45.4496 534.2439,45.2236 L530.5899,41.5696 Z M541.1809,30.9776 L544.8349,34.6316 C545.3039,35.1006 545.3039,35.8616 544.8349,36.3296 C544.6099,36.5556 544.3059,36.6826 543.9859,36.6826 C543.6669,36.6826 543.3629,36.5556 543.1369,36.3296 L539.1299,32.3236 C538.9049,32.0986 538.7779,31.7906 538.7779,31.4726 L538.7809,29.1976 C538.7829,27.9996 538.8129,27.5386 538.5749,26.3066 C538.4559,25.6986 538.6099,25.0236 539.2319,24.7666 C539.8399,24.5146 540.5499,24.8076 540.8019,25.4156 C541.4319,26.9366 541.1839,27.6446 541.1829,29.2016 L541.1809,30.9776 Z M541.1809,17.2846 L541.1859,20.3076 C541.1869,20.9716 540.6489,21.5096 539.9839,21.5096 C539.3219,21.5096 538.7849,20.9736 538.7839,20.3106 L538.7779,16.7906 C538.7779,16.4736 538.9079,16.1666 539.1299,15.9406 L543.9029,11.0916 C544.3689,10.6186 545.1349,10.6226 545.6019,11.0906 C546.0729,11.5596 546.0679,12.3156 545.6029,12.7876 L541.1809,17.2846 Z M530.5909,6.6936 L534.3559,3.0096 C534.8269,2.5486 535.5849,2.5436 536.0529,3.0106 C536.5209,3.4776 536.5269,4.2436 536.0519,4.7096 L531.9339,8.7456 C531.7069,8.9686 531.4039,9.0976 531.0849,9.0976 L528.8089,9.0946 C526.1039,9.0906 523.5669,10.1376 521.6549,12.0506 L521.0859,12.6206 C520.8589,12.8476 520.5559,12.9736 520.2359,12.9736 C519.9169,12.9736 519.6129,12.8466 519.3879,12.6206 C518.9179,12.1526 518.9189,11.3916 519.3879,10.9226 L519.9569,10.3526 C522.3159,7.9916 525.4569,6.6886 528.7949,6.6916 L530.5909,6.6936 Z M516.8979,6.6936 L518.6559,6.6916 C519.3189,6.6916 519.856901,7.2276 519.856901,7.8906 C519.8579,8.5536 519.3219,9.0926 518.6589,9.0936 L516.4019,9.0976 C516.0839,9.0976 515.7769,8.9696 515.5519,8.7446 L510.7059,3.8986 C510.2389,3.4306 510.2379,2.6676 510.7069,2.1996 C511.1759,1.7316 511.9359,1.7306 512.4049,2.1996 L516.8979,6.6936 Z" id="Fill-34"></path>
                </g>
            </g>
        </g>
    </g>
</svg>